<svg xmlns="http://www.w3.org/2000/svg" xmlns:xlink="http://www.w3.org/1999/xlink" width="502" height="27" viewBox="0 0 502 27">
    <rect x="0" y="0" width="502" height="27" fill="white"/>
    <rect x="0" y="0" width="15" height="22" fill="lightgray"/>
    <path d="M 12.850484 21.115812 L 10.76228 15.780567 L 4.0387235 15.780567 L 1.9734672 21.115812 L 0 21.115812 L 6.6317677 4.272499 L 8.272499 4.272499 L 14.869845 21.115812 L 12.850484 21.115812 Z M 10.154177 14.025099 L 8.203657 8.827537 Q 7.825027 7.840803 7.423449 6.406598 Q 7.171029 7.508068 6.7006097 8.827537 L 4.7271423 14.025099 L 10.154177 14.025099 Z M 9.982073 2.907135 Q 9.982073 4.0315533 9.2764435 4.7142353 Q 8.570814 5.3969164 7.4005017 5.3969164 Q 6.2416635 5.3969164 5.553245 4.725708 Q 4.864826 4.0545006 4.864826 2.9300823 Q 4.864826 1.805666 5.558982 1.1459312 Q 6.253137 0.48619652 7.4005017 0.48619652 Q 8.5593405 0.48619652 9.270706 1.1688786 Q 9.982073 1.8515606 9.982073 2.907135 Z M 8.742919 2.9300823 Q 8.742919 2.2875595 8.364288 1.9376125 Q 7.9856577 1.5876656 7.4005017 1.5876656 Q 6.815346 1.5876656 6.4367156 1.9376125 Q 6.0580854 2.2875595 6.0580854 2.9300823 Q 6.0580854 3.572607 6.4022946 3.922554 Q 6.7465043 4.272499 7.4005017 4.272499 Q 7.9971313 4.272499 8.370025 3.922554 Q 8.742919 3.572607 8.742919 2.9300823 Z " stroke="black" stroke-width="0.1" fill="dodgerblue"/>
    <rect x="14" y="0" width="16" height="22" fill="lightgray"/>
    <path d="M 27.72033 21.115812 L 25.632126 15.780567 L 18.90857 15.780567 L 16.843313 21.115812 L 14.869845 21.115812 L 21.501614 4.272499 L 23.142345 4.272499 L 29.73969 21.115812 L 27.72033 21.115812 Z M 25.024021 14.025099 L 23.073502 8.827537 Q 22.694872 7.840803 22.293295 6.406598 Q 22.040874 7.508068 21.570456 8.827537 L 19.596989 14.025099 L 25.024021 14.025099 Z M 19.046253 1.2549305 Q 19.046253 0.6583004 19.350304 0.39440727 Q 19.654356 0.13051224 20.07888 0.13051224 Q 20.51488 0.13051224 20.830404 0.39440727 Q 21.14593 0.6583004 21.14593 1.2549305 Q 21.14593 1.8286133 20.830404 2.1097164 Q 20.51488 2.3908215 20.07888 2.3908215 Q 19.654356 2.3908215 19.350304 2.1097164 Q 19.046253 1.8286133 19.046253 1.2549305 Z M 23.417713 1.2549305 Q 23.417713 0.6583004 23.721764 0.39440727 Q 24.025814 0.13051224 24.45034 0.13051224 Q 24.874865 0.13051224 25.190392 0.39440727 Q 25.505917 0.6583004 25.505917 1.2549305 Q 25.505917 1.8286133 25.190392 2.1097164 Q 24.874865 2.3908215 24.45034 2.3908215 Q 24.025814 2.3908215 23.721764 2.1097164 Q 23.417713 1.8286133 23.417713 1.2549305 Z " stroke="black" stroke-width="0.1" fill="dodgerblue"/>
    <rect x="30" y="0" width="17" height="22" fill="lightgray"/>
    <path d="M 46.135532 12.705629 Q 46.135532 16.73288 44.09896 19.039082 Q 42.062386 21.345285 38.436714 21.345285 Q 34.73073 21.345285 32.717102 19.07924 Q 30.703478 16.813194 30.703478 12.682682 Q 30.703478 8.586591 32.72284 6.332019 Q 34.742203 4.077448 38.459663 4.077448 Q 42.07386 4.077448 44.1047 6.372177 Q 46.135532 8.666906 46.135532 12.705629 Z M 32.768734 12.705629 Q 32.768734 16.113302 34.22015 17.874508 Q 35.671566 19.635712 38.436714 19.635712 Q 41.22481 19.635712 42.647545 17.880243 Q 44.070274 16.124775 44.070274 12.705629 Q 44.070274 9.320904 42.653282 7.5711727 Q 41.236286 5.8214417 38.459663 5.8214417 Q 35.671566 5.8214417 34.22015 7.5826464 Q 32.768734 9.343851 32.768734 12.705629 Z M 35.258514 1.2549305 Q 35.258514 0.6583004 35.56257 0.39440727 Q 35.86662 0.13051224 36.291145 0.13051224 Q 36.727142 0.13051224 37.042667 0.39440727 Q 37.358192 0.6583004 37.358192 1.2549305 Q 37.358192 1.8286133 37.042667 2.1097164 Q 36.727142 2.3908215 36.291145 2.3908215 Q 35.86662 2.3908215 35.56257 2.1097164 Q 35.258514 1.8286133 35.258514 1.2549305 Z M 39.629974 1.2549305 Q 39.629974 0.6583004 39.934025 0.39440727 Q 40.23808 0.13051224 40.6626 0.13051224 Q 41.087128 0.13051224 41.402653 0.39440727 Q 41.718178 0.6583004 41.718178 1.2549305 Q 41.718178 1.8286133 41.402653 2.1097164 Q 41.087128 2.3908215 40.6626 2.3908215 Q 40.23808 2.3908215 39.934025 2.1097164 Q 39.629974 1.8286133 39.629974 1.2549305 Z " stroke="black" stroke-width="0.1" fill="dodgerblue"/>
    <rect x="55" y="4" width="7" height="18" fill="lightgray"/>
    <path d="M 61.87738 21.115812 L 60.018646 21.115812 L 60.018646 9.160273 Q 60.018646 7.6686983 60.110435 6.337756 Q 59.86949 6.578702 59.571175 6.842596 Q 59.27286 7.10649 56.840446 9.079957 L 55.83077 7.771961 L 60.27107 4.341341 L 61.87738 4.341341 L 61.87738 21.115812 Z " stroke="black" stroke-width="0.1" fill="dodgerblue"/>
    <rect x="68" y="4" width="12" height="18" fill="lightgray"/>
    <path d="M 79.2829 21.115812 L 68.25672 21.115812 L 68.25672 19.47508 L 72.67408 15.03478 Q 74.69344 12.992471 75.33597 12.120474 Q 75.978485 11.248476 76.29975 10.422374 Q 76.62101 9.5962715 76.62101 8.643959 Q 76.62101 7.3015423 75.80638 6.5155973 Q 74.99175 5.7296524 73.546074 5.7296524 Q 72.501976 5.7296524 71.56687 6.073862 Q 70.63177 6.4180717 69.484406 7.3244896 L 68.474724 6.0279675 Q 70.7924 4.100395 73.523125 4.100395 Q 75.8867 4.100395 77.22912 5.3108644 Q 78.57153 6.5213337 78.57153 8.563643 Q 78.57153 10.15848 77.67659 11.718896 Q 76.78165 13.279312 74.32629 15.665831 L 70.65472 19.257082 L 70.65472 19.348871 L 79.2829 19.348871 L 79.2829 21.115812 Z " stroke="black" stroke-width="0.1" fill="dodgerblue"/>
    <rect x="81" y="4" width="12" height="18" fill="lightgray"/>
    <path d="M 92.08749 8.288276 Q 92.08749 9.894587 91.186806 10.915741 Q 90.286125 11.936895 88.63392 12.281105 L 88.63392 12.372893 Q 90.65328 12.625314 91.62854 13.657942 Q 92.6038 14.690571 92.6038 16.365723 Q 92.6038 18.763714 90.940125 20.0545 Q 89.27644 21.345285 86.21298 21.345285 Q 84.882034 21.345285 83.774826 21.144497 Q 82.667625 20.943708 81.62352 20.438868 L 81.62352 18.62603 Q 82.71352 19.165293 83.94694 19.446396 Q 85.18035 19.7275 86.28182 19.7275 Q 90.63033 19.7275 90.63033 16.319828 Q 90.63033 13.267838 85.83435 13.267838 L 84.182144 13.267838 L 84.182144 11.627107 L 85.8573 11.627107 Q 87.81929 11.627107 88.96665 10.760846 Q 90.11402 9.894587 90.11402 8.357118 Q 90.11402 7.1294374 89.270706 6.4295444 Q 88.42739 5.7296524 86.98171 5.7296524 Q 85.88024 5.7296524 84.90498 6.0279675 Q 83.929726 6.3262825 82.6791 7.1294374 L 81.71531 5.844389 Q 82.74794 5.0297604 84.09609 4.565077 Q 85.444244 4.100395 86.93582 4.100395 Q 89.37971 4.100395 90.7336 5.219075 Q 92.08749 6.337756 92.08749 8.288276 Z " stroke="black" stroke-width="0.1" fill="dodgerblue"/>
    <rect x="100" y="4" width="13" height="18" fill="lightgray"/>
    <path d="M 107.55396 21.115812 L 105.60344 21.115812 L 105.60344 6.073862 L 100.291145 6.073862 L 100.291145 4.341341 L 112.86626 4.341341 L 112.86626 6.073862 L 107.55396 6.073862 L 107.55396 21.115812 Z " stroke="black" stroke-width="0.1" fill="dodgerblue"/>
    <rect x="115" y="3" width="11" height="19" fill="lightgray"/>
    <path d="M 123.708855 21.115812 L 123.708855 12.980997 Q 123.708855 11.443528 123.008965 10.686268 Q 122.30907 9.929008 120.8175 9.929008 Q 118.83256 9.929008 117.9204 11.00753 Q 117.00825 12.086053 117.00825 14.541412 L 117.00825 21.115812 L 115.10362 21.115812 L 115.10362 3.2628193 L 117.00825 3.2628193 L 117.00825 8.666906 Q 117.00825 9.642166 116.91646 10.28469 L 117.0312 10.28469 Q 117.5934 9.378272 118.63177 8.856221 Q 119.670135 8.33417 121.001076 8.33417 Q 123.30728 8.33417 124.46038 9.429903 Q 125.61348 10.525637 125.61348 12.912155 L 125.61348 21.115812 L 123.708855 21.115812 Z " stroke="black" stroke-width="0.1" fill="dodgerblue"/>
    <rect x="129" y="3" width="3" height="19" fill="lightgray"/>
    <path d="M 131.43062 21.115812 L 129.52599 21.115812 L 129.52599 8.540696 L 131.43062 8.540696 L 131.43062 21.115812 Z M 129.36536 5.1330233 Q 129.36536 4.479025 129.68663 4.1749725 Q 130.00789 3.870922 130.48978 3.870922 Q 130.94873 3.870922 131.28146 4.18071 Q 131.6142 4.4904995 131.6142 5.1330233 Q 131.6142 5.775547 131.28146 6.091072 Q 130.94873 6.406598 130.48978 6.406598 Q 130.00789 6.406598 129.68663 6.091072 Q 129.36536 5.775547 129.36536 5.1330233 Z " stroke="black" stroke-width="0.1" fill="dodgerblue"/>
    <rect x="134" y="8" width="10" height="14" fill="lightgray"/>
    <path d="M 143.5812 17.685192 Q 143.5812 19.440659 142.27321 20.392973 Q 140.96523 21.345285 138.60165 21.345285 Q 136.10039 21.345285 134.7006 20.553604 L 134.7006 18.786663 Q 135.60703 19.24561 136.64539 19.509502 Q 137.68376 19.773396 138.64754 19.773396 Q 140.13911 19.773396 140.94228 19.29724 Q 141.74542 18.821083 141.74542 17.845823 Q 141.74542 17.11151 141.10864 16.589458 Q 140.47185 16.067408 138.6246 15.356042 Q 136.86913 14.702044 136.12907 14.214415 Q 135.38902 13.726784 135.0276 13.107207 Q 134.66618 12.48763 134.66618 11.627107 Q 134.66618 10.089638 135.91681 9.200431 Q 137.16745 8.311223 139.34744 8.311223 Q 141.37827 8.311223 143.31732 9.137325 L 142.64037 10.686268 Q 140.74722 9.90606 139.20975 9.90606 Q 137.85587 9.90606 137.16745 10.330585 Q 136.47902 10.75511 136.47902 11.500896 Q 136.47902 12.005737 136.73718 12.36142 Q 136.99533 12.717103 137.56902 13.038365 Q 138.1427 13.359627 139.77196 13.9677305 Q 142.00932 14.78236 142.79527 15.608461 Q 143.5812 16.434565 143.5812 17.685192 Z " stroke="black" stroke-width="0.1" fill="dodgerblue"/>
    <rect x="152" y="3" width="3" height="19" fill="lightgray"/>
    <path d="M 154.68768 21.115812 L 152.78307 21.115812 L 152.78307 8.540696 L 154.68768 8.540696 L 154.68768 21.115812 Z M 152.62244 5.1330233 Q 152.62244 4.479025 152.9437 4.1749725 Q 153.26495 3.870922 153.74686 3.870922 Q 154.2058 3.870922 154.53853 4.18071 Q 154.87126 4.4904995 154.87126 5.1330233 Q 154.87126 5.775547 154.53853 6.091072 Q 154.2058 6.406598 153.74686 6.406598 Q 153.26495 6.406598 152.9437 6.091072 Q 152.62244 5.775547 152.62244 5.1330233 Z " stroke="black" stroke-width="0.1" fill="dodgerblue"/>
    <rect x="157" y="8" width="10" height="14" fill="lightgray"/>
    <path d="M 166.83827 17.685192 Q 166.83827 19.440659 165.53027 20.392973 Q 164.22229 21.345285 161.85872 21.345285 Q 159.35745 21.345285 157.95767 20.553604 L 157.95767 18.786663 Q 158.86409 19.24561 159.90245 19.509502 Q 160.94083 19.773396 161.9046 19.773396 Q 163.39618 19.773396 164.19934 19.29724 Q 165.00249 18.821083 165.00249 17.845823 Q 165.00249 17.11151 164.3657 16.589458 Q 163.72891 16.067408 161.88167 15.356042 Q 160.12619 14.702044 159.38614 14.214415 Q 158.64609 13.726784 158.28467 13.107207 Q 157.92325 12.48763 157.92325 11.627107 Q 157.92325 10.089638 159.17387 9.200431 Q 160.42451 8.311223 162.6045 8.311223 Q 164.63533 8.311223 166.57439 9.137325 L 165.89743 10.686268 Q 164.00429 9.90606 162.46681 9.90606 Q 161.11293 9.90606 160.42451 10.330585 Q 159.73608 10.75511 159.73608 11.500896 Q 159.73608 12.005737 159.99425 12.36142 Q 160.25241 12.717103 160.82608 13.038365 Q 161.39977 13.359627 163.02902 13.9677305 Q 165.26639 14.78236 166.05234 15.608461 Q 166.83827 16.434565 166.83827 17.685192 Z " stroke="black" stroke-width="0.1" fill="dodgerblue"/>
    <rect x="176" y="4" width="13" height="18" fill="lightgray"/>
    <path d="M 178.2775 14.139835 L 178.2775 21.115812 L 176.32697 21.115812 L 176.32697 4.341341 L 180.9279 4.341341 Q 184.01431 4.341341 185.48868 5.5231266 Q 186.96304 6.704912 186.96304 9.079957 Q 186.96304 12.407314 183.58978 13.577627 L 188.14482 21.115812 L 185.83862 21.115812 L 181.77695 14.139835 L 178.2775 14.139835 Z M 178.2775 12.464683 L 180.95085 12.464683 Q 183.01611 12.464683 183.97989 11.644318 Q 184.94368 10.823952 184.94368 9.18322 Q 184.94368 7.5195417 183.96268 6.785228 Q 182.98169 6.050915 180.81317 6.050915 L 178.2775 6.050915 L 178.2775 12.464683 Z " stroke="black" stroke-width="0.1" fill="dodgerblue"/>
    <rect x="190" y="8" width="11" height="14" fill="lightgray"/>
    <path d="M 192.35565 8.540696 L 192.35565 16.69846 Q 192.35565 18.235928 193.05554 18.993187 Q 193.75543 19.750448 195.24701 19.750448 Q 197.22047 19.750448 198.13263 18.671925 Q 199.04478 17.593403 199.04478 15.149516 L 199.04478 8.540696 L 200.94942 8.540696 L 200.94942 21.115812 L 199.37752 21.115812 L 199.10216 19.429186 L 198.9989 19.429186 Q 198.41374 20.358551 197.37537 20.851917 Q 196.337 21.345285 195.00606 21.345285 Q 192.71133 21.345285 191.5697 20.25529 Q 190.42809 19.165293 190.42809 16.7673 L 190.42809 8.540696 L 192.35565 8.540696 Z " stroke="black" stroke-width="0.1" fill="dodgerblue"/>
    <rect x="204" y="8" width="10" height="14" fill="lightgray"/>
    <path d="M 213.1 17.685192 Q 213.1 19.440659 211.792 20.392973 Q 210.48402 21.345285 208.12045 21.345285 Q 205.61919 21.345285 204.2194 20.553604 L 204.2194 18.786663 Q 205.12582 19.24561 206.16418 19.509502 Q 207.20256 19.773396 208.16634 19.773396 Q 209.65791 19.773396 210.46107 19.29724 Q 211.26422 18.821083 211.26422 17.845823 Q 211.26422 17.11151 210.62744 16.589458 Q 209.99065 16.067408 208.1434 15.356042 Q 206.38792 14.702044 205.64787 14.214415 Q 204.90782 13.726784 204.5464 13.107207 Q 204.18498 12.48763 204.18498 11.627107 Q 204.18498 10.089638 205.43561 9.200431 Q 206.68625 8.311223 208.86624 8.311223 Q 210.89706 8.311223 212.83612 9.137325 L 212.15916 10.686268 Q 210.26602 9.90606 208.72855 9.90606 Q 207.37466 9.90606 206.68625 10.330585 Q 205.99782 10.75511 205.99782 11.500896 Q 205.99782 12.005737 206.25598 12.36142 Q 206.51413 12.717103 207.08781 13.038365 Q 207.6615 13.359627 209.29076 13.9677305 Q 211.52812 14.78236 212.31407 15.608461 Q 213.1 16.434565 213.1 17.685192 Z " stroke="black" stroke-width="0.1" fill="dodgerblue"/>
    <rect x="214" y="5" width="8" height="17" fill="lightgray"/>
    <path d="M 220.25957 19.773396 Q 220.7644 19.773396 221.23482 19.698818 Q 221.70525 19.624237 221.9806 19.543922 L 221.9806 21.001076 Q 221.67082 21.150232 221.06845 21.247759 Q 220.46608 21.345285 219.98419 21.345285 Q 216.33557 21.345285 216.33557 17.501614 L 216.33557 10.020796 L 214.53421 10.020796 L 214.53421 9.102904 L 216.33557 8.311223 L 217.13873 5.6263895 L 218.2402 5.6263895 L 218.2402 8.540696 L 221.88882 8.540696 L 221.88882 10.020796 L 218.2402 10.020796 L 218.2402 17.421299 Q 218.2402 18.55719 218.77946 19.165293 Q 219.31873 19.773396 220.25957 19.773396 Z " stroke="black" stroke-width="0.1" fill="dodgerblue"/>
    <rect x="222" y="4" width="14" height="18" fill="lightgray"/>
    <path d="M 229.94331 21.115812 L 227.9928 21.115812 L 227.9928 6.073862 L 222.6805 6.073862 L 222.6805 4.341341 L 235.25562 4.341341 L 235.25562 6.073862 L 229.94331 6.073862 L 229.94331 21.115812 Z " stroke="black" stroke-width="0.1" fill="dodgerblue"/>
    <rect x="235" y="8" width="12" height="19" fill="lightgray"/>
    <path d="M 235.02614 8.540696 L 237.06845 8.540696 L 239.82211 15.711725 Q 240.72855 18.167086 240.94653 19.257082 L 241.03833 19.257082 Q 241.18748 18.671925 241.66364 17.25493 Q 242.1398 15.8379345 244.77873 8.540696 L 246.82104 8.540696 L 241.41696 22.859806 Q 240.6138 24.982431 239.54102 25.87164 Q 238.46823 26.760845 236.90782 26.760845 Q 236.03581 26.760845 235.18677 26.565794 L 235.18677 25.039799 Q 235.81783 25.177483 236.59802 25.177483 Q 238.56001 25.177483 239.3976 22.974543 L 240.09749 21.184654 L 235.02614 8.540696 Z " stroke="black" stroke-width="0.1" fill="dodgerblue"/>
    <rect x="248" y="8" width="12" height="19" fill="lightgray"/>
    <path d="M 254.71492 21.345285 Q 253.48723 21.345285 252.47182 20.892076 Q 251.4564 20.438868 250.76797 19.498028 L 250.6303 19.498028 Q 250.76797 20.599499 250.76797 21.586231 L 250.76797 26.760845 L 248.86336 26.760845 L 248.86336 8.540696 L 250.4123 8.540696 L 250.6762 10.261743 L 250.76797 10.261743 Q 251.50229 9.229115 252.47755 8.770169 Q 253.45282 8.311223 254.71492 8.311223 Q 257.21616 8.311223 258.5758 10.020796 Q 259.93542 11.73037 259.93542 14.81678 Q 259.93542 17.914665 258.55286 19.629974 Q 257.1703 21.345285 254.71492 21.345285 Z M 254.43954 9.929008 Q 252.51198 9.929008 251.65146 10.996057 Q 250.79092 12.063106 250.76797 14.392256 L 250.76797 14.81678 Q 250.76797 17.467194 251.65146 18.608822 Q 252.53493 19.750448 254.48544 19.750448 Q 256.1147 19.750448 257.03833 18.430979 Q 257.96194 17.11151 257.96194 14.793833 Q 257.96194 12.441735 257.03833 11.185371 Q 256.1147 9.929008 254.43954 9.929008 Z " stroke="black" stroke-width="0.1" fill="dodgerblue"/>
    <rect x="262" y="8" width="12" height="14" fill="lightgray"/>
    <path d="M 268.57507 21.345285 Q 265.787 21.345285 264.17493 19.647186 Q 262.56287 17.949085 262.56287 14.931517 Q 262.56287 11.891001 264.06018 10.101111 Q 265.5575 8.311223 268.0817 8.311223 Q 270.44528 8.311223 271.8221 9.865902 Q 273.19894 11.420581 273.19894 13.9677305 L 273.19894 15.172463 L 264.53635 15.172463 Q 264.59372 17.386877 265.65503 18.53424 Q 266.71634 19.681606 268.64392 19.681606 Q 270.67474 19.681606 272.6597 18.832558 L 272.6597 20.530657 Q 271.65 20.966656 270.74933 21.15597 Q 269.84863 21.345285 268.57507 21.345285 Z M 268.05875 9.90606 Q 266.54422 9.90606 265.64355 10.892794 Q 264.74286 11.879527 264.58224 13.623522 L 271.15665 13.623522 Q 271.15665 11.822159 270.3535 10.864109 Q 269.55032 9.90606 268.05875 9.90606 Z " stroke="black" stroke-width="0.1" fill="dodgerblue"/>
    <rect x="282" y="8" width="8" height="14" fill="lightgray"/>
    <path d="M 288.2868 8.311223 Q 289.12436 8.311223 289.78986 8.448907 L 289.52594 10.215848 Q 288.74573 10.043743 288.1491 10.043743 Q 286.6231 10.043743 285.53885 11.282897 Q 284.4546 12.522051 284.4546 14.369308 L 284.4546 21.115812 L 282.54996 21.115812 L 282.54996 8.540696 L 284.12186 8.540696 L 284.33987 10.869846 L 284.43164 10.869846 Q 285.13153 9.642166 286.1183 8.976694 Q 287.105 8.311223 288.2868 8.311223 Z " stroke="black" stroke-width="0.1" fill="dodgerblue"/>
    <rect x="290" y="8" width="12" height="14" fill="lightgray"/>
    <path d="M 296.98383 21.345285 Q 294.19574 21.345285 292.58368 19.647186 Q 290.97162 17.949085 290.97162 14.931517 Q 290.97162 11.891001 292.46893 10.101111 Q 293.96625 8.311223 296.49045 8.311223 Q 298.85403 8.311223 300.23087 9.865902 Q 301.6077 11.420581 301.6077 13.9677305 L 301.6077 15.172463 L 292.9451 15.172463 Q 293.00247 17.386877 294.06378 18.53424 Q 295.1251 19.681606 297.05267 19.681606 Q 299.0835 19.681606 301.06845 18.832558 L 301.06845 20.530657 Q 300.05875 20.966656 299.15808 21.15597 Q 298.2574 21.345285 296.98383 21.345285 Z M 296.4675 9.90606 Q 294.95297 9.90606 294.0523 10.892794 Q 293.1516 11.879527 292.991 13.623522 L 299.5654 13.623522 Q 299.5654 11.822159 298.76224 10.864109 Q 297.95908 9.90606 296.4675 9.90606 Z " stroke="black" stroke-width="0.1" fill="dodgerblue"/>
    <rect x="304" y="8" width="12" height="14" fill="lightgray"/>
    <path d="M 313.46 21.115812 L 313.46 12.980997 Q 313.46 11.443528 312.7601 10.686268 Q 312.0602 9.929008 310.56863 9.929008 Q 308.59515 9.929008 307.67728 10.996057 Q 306.75937 12.063106 306.75937 14.518465 L 306.75937 21.115812 L 304.85474 21.115812 L 304.85474 8.540696 L 306.4037 8.540696 L 306.71347 10.261743 L 306.80527 10.261743 Q 307.3904 9.332377 308.446 8.8218 Q 309.5016 8.311223 310.7981 8.311223 Q 313.0699 8.311223 314.21725 9.406956 Q 315.36462 10.502689 315.36462 12.912155 L 315.36462 21.115812 L 313.46 21.115812 Z " stroke="black" stroke-width="0.1" fill="dodgerblue"/>
    <rect x="318" y="3" width="12" height="19" fill="lightgray"/>
    <path d="M 327.83646 19.429186 L 327.7332 19.429186 Q 326.41373 21.345285 323.78625 21.345285 Q 321.31943 21.345285 319.94833 19.658659 Q 318.5772 17.972034 318.5772 14.862675 Q 318.5772 11.753317 319.95407 10.0322695 Q 321.3309 8.311223 323.78625 8.311223 Q 326.34488 8.311223 327.71024 10.169953 L 327.8594 10.169953 L 327.77908 9.2635355 L 327.7332 8.380065 L 327.7332 3.2628193 L 329.63782 3.2628193 L 329.63782 21.115812 L 328.08887 21.115812 L 327.83646 19.429186 Z M 324.0272 19.750448 Q 325.97772 19.750448 326.85547 18.689137 Q 327.7332 17.627823 327.7332 15.264253 L 327.7332 14.862675 Q 327.7332 12.189316 326.844 11.047688 Q 325.95477 9.90606 324.00424 9.90606 Q 322.3291 9.90606 321.43988 11.208319 Q 320.5507 12.510577 320.5507 14.885622 Q 320.5507 17.295088 321.43417 18.522768 Q 322.31763 19.750448 324.0272 19.750448 Z " stroke="black" stroke-width="0.1" fill="dodgerblue"/>
    <rect x="332" y="8" width="12" height="14" fill="lightgray"/>
    <path d="M 338.98883 21.345285 Q 336.20074 21.345285 334.58868 19.647186 Q 332.97662 17.949085 332.97662 14.931517 Q 332.97662 11.891001 334.47394 10.101111 Q 335.97125 8.311223 338.49545 8.311223 Q 340.85904 8.311223 342.23587 9.865902 Q 343.6127 11.420581 343.6127 13.9677305 L 343.6127 15.172463 L 334.9501 15.172463 Q 335.00748 17.386877 336.0688 18.53424 Q 337.1301 19.681606 339.05768 19.681606 Q 341.0885 19.681606 343.07346 18.832558 L 343.07346 20.530657 Q 342.06375 20.966656 341.1631 21.15597 Q 340.2624 21.345285 338.98883 21.345285 Z M 338.4725 9.90606 Q 336.95798 9.90606 336.0573 10.892794 Q 335.15662 11.879527 334.996 13.623522 L 341.5704 13.623522 Q 341.5704 11.822159 340.76724 10.864109 Q 339.96408 9.90606 338.4725 9.90606 Z " stroke="black" stroke-width="0.1" fill="dodgerblue"/>
    <rect x="346" y="8" width="9" height="14" fill="lightgray"/>
    <path d="M 352.5966 8.311223 Q 353.43414 8.311223 354.09964 8.448907 L 353.83572 10.215848 Q 353.0555 10.043743 352.4589 10.043743 Q 350.9329 10.043743 349.84863 11.282897 Q 348.76437 12.522051 348.76437 14.369308 L 348.76437 21.115812 L 346.85974 21.115812 L 346.85974 8.540696 L 348.43164 8.540696 L 348.64966 10.869846 L 348.74142 10.869846 Q 349.4413 9.642166 350.42807 8.976694 Q 351.4148 8.311223 352.5966 8.311223 Z " stroke="black" stroke-width="0.1" fill="dodgerblue"/>
    <rect x="355" y="8" width="11" height="14" fill="lightgray"/>
    <path d="M 361.2936 21.345285 Q 358.5055 21.345285 356.89346 19.647186 Q 355.2814 17.949085 355.2814 14.931517 Q 355.2814 11.891001 356.77872 10.101111 Q 358.27603 8.311223 360.80023 8.311223 Q 363.16382 8.311223 364.54065 9.865902 Q 365.91748 11.420581 365.91748 13.9677305 L 365.91748 15.172463 L 357.25488 15.172463 Q 357.31226 17.386877 358.37357 18.53424 Q 359.43488 19.681606 361.36246 19.681606 Q 363.39328 19.681606 365.37823 18.832558 L 365.37823 20.530657 Q 364.36853 20.966656 363.46786 21.15597 Q 362.56717 21.345285 361.2936 21.345285 Z M 360.77728 9.90606 Q 359.26276 9.90606 358.3621 10.892794 Q 357.4614 11.879527 357.30078 13.623522 L 363.87518 13.623522 Q 363.87518 11.822159 363.07202 10.864109 Q 362.26886 9.90606 360.77728 9.90606 Z " stroke="black" stroke-width="0.1" fill="dodgerblue"/>
    <rect x="368" y="3" width="12" height="19" fill="lightgray"/>
    <path d="M 377.72388 19.429186 L 377.6206 19.429186 Q 376.30115 21.345285 373.67368 21.345285 Q 371.20685 21.345285 369.83575 19.658659 Q 368.46463 17.972034 368.46463 14.862675 Q 368.46463 11.753317 369.8415 10.0322695 Q 371.21832 8.311223 373.67368 8.311223 Q 376.2323 8.311223 377.59766 10.169953 L 377.74683 10.169953 L 377.6665 9.2635355 L 377.6206 8.380065 L 377.6206 3.2628193 L 379.52524 3.2628193 L 379.52524 21.115812 L 377.9763 21.115812 L 377.72388 19.429186 Z M 373.9146 19.750448 Q 375.86514 19.750448 376.7429 18.689137 Q 377.6206 17.627823 377.6206 15.264253 L 377.6206 14.862675 Q 377.6206 12.189316 376.7314 11.047688 Q 375.8422 9.90606 373.89166 9.90606 Q 372.21652 9.90606 371.32733 11.208319 Q 370.4381 12.510577 370.4381 14.885622 Q 370.4381 17.295088 371.3216 18.522768 Q 372.20505 19.750448 373.9146 19.750448 Z " stroke="black" stroke-width="0.1" fill="dodgerblue"/>
    <rect x="389" y="3" width="3" height="19" fill="lightgray"/>
    <path d="M 391.57254 21.115812 L 389.6679 21.115812 L 389.6679 8.540696 L 391.57254 8.540696 L 391.57254 21.115812 Z M 389.5073 5.1330233 Q 389.5073 4.479025 389.82855 4.1749725 Q 390.1498 3.870922 390.6317 3.870922 Q 391.09067 3.870922 391.4234 4.18071 Q 391.75613 4.4904995 391.75613 5.1330233 Q 391.75613 5.775547 391.4234 6.091072 Q 391.09067 6.406598 390.6317 6.406598 Q 390.1498 6.406598 389.82855 6.091072 Q 389.5073 5.775547 389.5073 5.1330233 Z " stroke="black" stroke-width="0.1" fill="dodgerblue"/>
    <rect x="395" y="8" width="12" height="14" fill="lightgray"/>
    <path d="M 404.21652 21.115812 L 404.21652 12.980997 Q 404.21652 11.443528 403.51663 10.686268 Q 402.81674 9.929008 401.32516 9.929008 Q 399.35168 9.929008 398.4338 10.996057 Q 397.5159 12.063106 397.5159 14.518465 L 397.5159 21.115812 L 395.61127 21.115812 L 395.61127 8.540696 L 397.16022 8.540696 L 397.47 10.261743 L 397.5618 10.261743 Q 398.14694 9.332377 399.20255 8.8218 Q 400.25812 8.311223 401.55463 8.311223 Q 403.82642 8.311223 404.9738 9.406956 Q 406.12115 10.502689 406.12115 12.912155 L 406.12115 21.115812 L 404.21652 21.115812 Z " stroke="black" stroke-width="0.1" fill="dodgerblue"/>
    <rect x="408" y="5" width="8" height="17" fill="lightgray"/>
    <path d="M 414.0953 19.773396 Q 414.60016 19.773396 415.0706 19.698818 Q 415.541 19.624237 415.81638 19.543922 L 415.81638 21.001076 Q 415.50656 21.150232 414.9042 21.247759 Q 414.30185 21.345285 413.81995 21.345285 Q 410.17133 21.345285 410.17133 17.501614 L 410.17133 10.020796 L 408.36996 10.020796 L 408.36996 9.102904 L 410.17133 8.311223 L 410.9745 5.6263895 L 412.07596 5.6263895 L 412.07596 8.540696 L 415.72458 8.540696 L 415.72458 10.020796 L 412.07596 10.020796 L 412.07596 17.421299 Q 412.07596 18.55719 412.6152 19.165293 Q 413.15448 19.773396 414.0953 19.773396 Z " stroke="black" stroke-width="0.1" fill="dodgerblue"/>
    <rect x="417" y="8" width="13" height="14" fill="lightgray"/>
    <path d="M 429.18317 14.81678 Q 429.18317 17.891718 427.63422 19.618502 Q 426.08527 21.345285 423.35455 21.345285 Q 421.6679 21.345285 420.35992 20.553604 Q 419.0519 19.76192 418.34055 18.281822 Q 417.62918 16.801722 417.62918 14.81678 Q 417.62918 11.741843 419.16666 10.026533 Q 420.70413 8.311223 423.43484 8.311223 Q 426.0738 8.311223 427.62848 10.06669 Q 429.18317 11.822159 429.18317 14.81678 Z M 419.60266 14.81678 Q 419.60266 17.226246 420.56644 18.488346 Q 421.53024 19.750448 423.40045 19.750448 Q 425.27063 19.750448 426.24017 18.494083 Q 427.2097 17.23772 427.2097 14.81678 Q 427.2097 12.418788 426.24017 11.173898 Q 425.27063 9.929008 423.3775 9.929008 Q 421.5073 9.929008 420.55496 11.156687 Q 419.60266 12.384367 419.60266 14.81678 Z " stroke="black" stroke-width="0.1" fill="dodgerblue"/>
    <rect x="437" y="8" width="11" height="14" fill="lightgray"/>
    <path d="M 446.3592 21.115812 L 445.98056 19.325924 L 445.88876 19.325924 Q 444.94794 20.50771 444.01285 20.926498 Q 443.07773 21.345285 441.67795 21.345285 Q 439.80774 21.345285 438.74643 20.3815 Q 437.68512 19.417713 437.68512 17.639297 Q 437.68512 13.830047 443.77762 13.646469 L 445.9117 13.577627 L 445.9117 12.797419 Q 445.9117 11.317318 445.27493 10.611689 Q 444.63815 9.90606 443.23837 9.90606 Q 441.66647 9.90606 439.68155 10.869846 L 439.09637 9.412693 Q 440.02576 8.907852 441.13297 8.621012 Q 442.24017 8.33417 443.3531 8.33417 Q 445.60193 8.33417 446.6862 9.332377 Q 447.77045 10.330585 447.77045 12.5335245 L 447.77045 21.115812 L 446.3592 21.115812 Z M 442.05658 19.773396 Q 443.835 19.773396 444.8504 18.798136 Q 445.86584 17.822876 445.86584 16.067408 L 445.86584 14.931517 L 443.9612 15.011832 Q 441.68942 15.092148 440.6855 15.717462 Q 439.68155 16.342775 439.68155 17.662245 Q 439.68155 18.694874 440.30685 19.234135 Q 440.93216 19.773396 442.05658 19.773396 Z " stroke="black" stroke-width="0.1" fill="dodgerblue"/>
    <rect x="457" y="8" width="12" height="19" fill="lightgray"/>
    <path d="M 463.64996 21.345285 Q 462.4223 21.345285 461.4069 20.892076 Q 460.39145 20.438868 459.70303 19.498028 L 459.56537 19.498028 Q 459.70303 20.599499 459.70303 21.586231 L 459.70303 26.760845 L 457.7984 26.760845 L 457.7984 8.540696 L 459.34735 8.540696 L 459.61124 10.261743 L 459.70303 10.261743 Q 460.43735 9.229115 461.4126 8.770169 Q 462.38788 8.311223 463.64996 8.311223 Q 466.1512 8.311223 467.51086 10.020796 Q 468.87048 11.73037 468.87048 14.81678 Q 468.87048 17.914665 467.4879 19.629974 Q 466.10535 21.345285 463.64996 21.345285 Z M 463.3746 9.929008 Q 461.44702 9.929008 460.58652 10.996057 Q 459.72598 12.063106 459.70303 14.392256 L 459.70303 14.81678 Q 459.70303 17.467194 460.58652 18.608822 Q 461.46997 19.750448 463.4205 19.750448 Q 465.04974 19.750448 465.9734 18.430979 Q 466.897 17.11151 466.897 14.793833 Q 466.897 12.441735 465.9734 11.185371 Q 465.04974 9.929008 463.3746 9.929008 Z " stroke="black" stroke-width="0.1" fill="dodgerblue"/>
    <rect x="472" y="8" width="11" height="14" fill="lightgray"/>
    <path d="M 480.80307 21.115812 L 480.80307 12.980997 Q 480.80307 11.443528 480.10318 10.686268 Q 479.4033 9.929008 477.9117 9.929008 Q 475.93823 9.929008 475.02036 10.996057 Q 474.10245 12.063106 474.10245 14.518465 L 474.10245 21.115812 L 472.1978 21.115812 L 472.1978 8.540696 L 473.74677 8.540696 L 474.05655 10.261743 L 474.14835 10.261743 Q 474.7335 9.332377 475.7891 8.8218 Q 476.84467 8.311223 478.14117 8.311223 Q 480.41296 8.311223 481.56033 9.406956 Q 482.7077 10.502689 482.7077 12.912155 L 482.7077 21.115812 L 480.80307 21.115812 Z " stroke="black" stroke-width="0.1" fill="dodgerblue"/>
    <rect x="485" y="8" width="12" height="19" fill="lightgray"/>
    <path d="M 496.91205 8.540696 L 496.91205 9.745429 L 494.58292 10.020796 Q 494.90417 10.422374 495.1566 11.070635 Q 495.409 11.718896 495.409 12.5335245 Q 495.409 14.380781 494.1469 15.482252 Q 492.8848 16.583721 490.68185 16.583721 Q 490.11966 16.583721 489.62628 16.491932 Q 488.4101 17.134457 488.4101 18.109716 Q 488.4101 18.62603 488.8346 18.872715 Q 489.25912 19.119398 490.29175 19.119398 L 492.51764 19.119398 Q 494.55997 19.119398 495.6557 19.979921 Q 496.75143 20.840445 496.75143 22.481176 Q 496.75143 24.56938 495.07626 25.665113 Q 493.40112 26.760845 490.1885 26.760845 Q 487.72165 26.760845 486.38498 25.842955 Q 485.0483 24.925062 485.0483 23.24991 Q 485.0483 22.102547 485.78262 21.264969 Q 486.51694 20.427395 487.84787 20.129078 Q 487.36597 19.91108 487.03897 19.452133 Q 486.71198 18.993187 486.71198 18.385084 Q 486.71198 17.696667 487.07913 17.180351 Q 487.4463 16.664038 488.23798 16.182144 Q 487.26273 15.780567 486.64886 14.81678 Q 486.03503 13.852994 486.03503 12.61384 Q 486.03503 10.548584 487.2742 9.429903 Q 488.51334 8.311223 490.78513 8.311223 Q 491.77185 8.311223 492.56354 8.540696 L 496.91205 8.540696 Z M 486.8841 23.226963 Q 486.8841 24.248117 487.7446 24.775906 Q 488.60513 25.303694 490.21146 25.303694 Q 492.60944 25.303694 493.76254 24.58659 Q 494.91565 23.869488 494.91565 22.641808 Q 494.91565 21.620653 494.28458 21.224812 Q 493.65353 20.828972 491.90955 20.828972 L 489.62628 20.828972 Q 488.32977 20.828972 487.60693 21.448547 Q 486.8841 22.068125 486.8841 23.226963 Z M 487.91672 12.5679455 Q 487.91672 13.887415 488.6625 14.56436 Q 489.4083 15.241305 490.73923 15.241305 Q 493.5273 15.241305 493.5273 12.5335245 Q 493.5273 9.699534 490.7048 9.699534 Q 489.3624 9.699534 488.63956 10.422374 Q 487.91672 11.145213 487.91672 12.5679455 Z " stroke="black" stroke-width="0.1" fill="dodgerblue"/>
    <rect x="499" y="4" width="3" height="18" fill="lightgray"/>
    <path d="M 501.2147 16.491932 L 500.00995 16.491932 L 499.4248 4.341341 L 501.79984 4.341341 L 501.2147 16.491932 Z M 499.21826 19.899605 Q 499.21826 18.33919 500.5951 18.33919 Q 501.2606 18.33919 501.622 18.740768 Q 501.98343 19.142345 501.98343 19.899605 Q 501.98343 20.633919 501.61627 21.041233 Q 501.2491 21.448547 500.5951 21.448547 Q 499.99847 21.448547 499.60837 21.087128 Q 499.21826 20.725708 499.21826 19.899605 Z " stroke="black" stroke-width="0.1" fill="dodgerblue"/>
</svg>
