<svg xmlns="http://www.w3.org/2000/svg" xmlns:xlink="http://www.w3.org/1999/xlink" width="151.29543" height="37.603798" viewBox="0 0 151.29543 37.603798">
    <rect x="0" y="0" width="151.29543" height="37.603798" fill="white"/>
    <path d="M 19.899607 28.580494 L 16.85192 28.580494 L 16.85192 16.246325 L 3.0476873 16.246325 L 3.0476873 28.580494 L 0 28.580494 L 0 2.3703842 L 3.0476873 2.3703842 L 3.0476873 13.521334 L 16.85192 13.521334 L 16.85192 2.3703842 L 19.899607 2.3703842 L 19.899607 28.580494 Z " stroke="black" stroke-width="0.1" fill="tomato"/>
    <path d="M 36.0294 29.141983 Q 31.673002 29.141983 29.154177 26.488705 Q 26.635353 23.835426 26.635353 19.120472 Q 26.635353 14.369667 28.974901 11.572966 Q 31.31445 8.776264 35.258514 8.776264 Q 38.951595 8.776264 41.1029 11.20545 Q 43.25421 13.634636 43.25421 17.614555 L 43.25421 19.496952 L 29.718897 19.496952 Q 29.808535 22.956974 31.466833 24.749733 Q 33.125134 26.542488 36.136967 26.542488 Q 39.310146 26.542488 42.411617 25.215847 L 42.411617 27.869125 Q 40.83399 28.550377 39.426674 28.84618 Q 38.01936 29.141983 36.0294 29.141983 Z M 35.22266 11.268196 Q 32.85622 11.268196 31.448908 12.809967 Q 30.041592 14.351738 29.790606 17.076729 L 40.063103 17.076729 Q 40.063103 14.2621 38.808174 12.765148 Q 37.55324 11.268196 35.22266 11.268196 Z " stroke="black" stroke-width="0.1" fill="tomato"/>
    <path d="M 50.54212 36.66583 Q 48.839 36.66583 47.781277 36.21764 L 47.781277 33.797417 Q 49.01828 34.155968 50.219425 34.155968 Q 51.617775 34.155968 52.272133 33.394047 Q 52.926487 32.632126 52.926487 31.072426 L 52.926487 8.196844 L 55.902466 8.196844 L 55.902466 30.857296 Q 55.902466 36.66583 50.54212 36.66583 Z M 52.675503 2.8723545 Q 52.675503 1.850483 53.177475 1.3754025 Q 53.679447 0.90032196 54.432404 0.90032196 Q 55.14951 0.90032196 55.669407 1.384367 Q 56.18931 1.8684101 56.18931 2.8723545 Q 56.18931 3.876299 55.669407 4.3693066 Q 55.14951 4.862316 54.432404 4.862316 Q 53.679447 4.862316 53.177475 4.3693066 Q 52.675503 3.876299 52.675503 2.8723545 Z " stroke="black" stroke-width="0.1" fill="tomato"/>
    <path d="" stroke="black" stroke-width="0.1" fill="tomato"/>
    <path d="M 80.02007 27.895302 L 80.02007 15.184654 Q 80.02007 12.782358 78.92649 11.599138 Q 77.83291 10.415918 75.50233 10.415918 Q 72.400856 10.415918 70.97562 12.10111 Q 69.55038 13.786303 69.55038 17.622803 L 69.55038 27.895302 L 66.574394 27.895302 L 66.574394 0 L 69.55038 0 L 69.55038 8.443886 Q 69.55038 9.96773 69.40695 10.971674 L 69.58623 10.971674 Q 70.464676 9.555395 72.08713 8.739691 Q 73.70957 7.9239864 75.78917 7.9239864 Q 79.39261 7.9239864 81.194336 9.63607 Q 82.99605 11.348152 82.99605 15.077087 L 82.99605 27.895302 L 80.02007 27.895302 Z " stroke="black" stroke-width="0.1" fill="tomato"/>
    <path d="M 106.6038 18.941196 Q 106.6038 23.745789 104.18357 26.443886 Q 101.76335 29.141983 97.49659 29.141983 Q 94.86124 29.141983 92.81749 27.904984 Q 90.77375 26.66798 89.66224 24.355324 Q 88.55073 22.042667 88.55073 18.941196 Q 88.55073 14.136608 90.953026 11.456436 Q 93.355316 8.776264 97.622086 8.776264 Q 101.74542 8.776264 104.17461 11.519182 Q 106.6038 14.2621 106.6038 18.941196 Z M 91.63427 18.941196 Q 91.63427 22.705986 93.14019 24.67802 Q 94.6461 26.650055 97.5683 26.650055 Q 100.49049 26.650055 102.00537 24.686981 Q 103.52025 22.723915 103.52025 18.941196 Q 103.52025 15.194334 102.00537 13.249191 Q 100.49049 11.30405 97.53244 11.30405 Q 94.61025 11.30405 93.12226 13.2223015 Q 91.63427 15.1405525 91.63427 18.941196 Z " stroke="black" stroke-width="0.1" fill="tomato"/>
    <path d="M 120.14019 29.141983 Q 118.22194 29.141983 116.635345 28.433846 Q 115.04876 27.725708 113.97311 26.255646 L 113.75797 26.255646 Q 113.97311 27.976692 113.97311 29.518463 L 113.97311 37.603798 L 110.99712 37.603798 L 110.99712 9.134815 L 113.41735 9.134815 L 113.82968 11.82395 L 113.97311 11.82395 Q 115.12047 10.210468 116.64431 9.493366 Q 118.16815 8.776264 120.14019 8.776264 Q 124.0484 8.776264 126.17281 11.447472 Q 128.29723 14.118679 128.29723 18.941196 Q 128.29723 23.78164 126.13696 26.461815 Q 123.976685 29.141983 120.14019 29.141983 Z M 119.70992 11.30405 Q 116.69809 11.30405 115.35352 12.971315 Q 114.00896 14.63858 113.97311 18.277878 L 113.97311 18.941196 Q 113.97311 23.082466 115.35352 24.866257 Q 116.73395 26.650055 119.78164 26.650055 Q 122.327354 26.650055 123.77052 24.588383 Q 125.21369 22.52671 125.21369 18.905342 Q 125.21369 15.23019 123.77052 13.26712 Q 122.327354 11.30405 119.70992 11.30405 Z " stroke="black" stroke-width="0.1" fill="tomato"/>
    <path d="M 143.13838 29.141983 Q 141.22014 29.141983 139.63354 28.433846 Q 138.04695 27.725708 136.9713 26.255646 L 136.75616 26.255646 Q 136.9713 27.976692 136.9713 29.518463 L 136.9713 37.603798 L 133.99533 37.603798 L 133.99533 9.134815 L 136.41554 9.134815 L 136.82788 11.82395 L 136.9713 11.82395 Q 138.11867 10.210468 139.64252 9.493366 Q 141.16635 8.776264 143.13838 8.776264 Q 147.0466 8.776264 149.17102 11.447472 Q 151.29543 14.118679 151.29543 18.941196 Q 151.29543 23.78164 149.13516 26.461815 Q 146.97488 29.141983 143.13838 29.141983 Z M 142.70813 11.30405 Q 139.69629 11.30405 138.35173 12.971315 Q 137.00716 14.63858 136.9713 18.277878 L 136.9713 18.941196 Q 136.9713 23.082466 138.35173 24.866257 Q 139.73215 26.650055 142.77983 26.650055 Q 145.32555 26.650055 146.76872 24.588383 Q 148.21188 22.52671 148.21188 18.905342 Q 148.21188 15.23019 146.76872 13.26712 Q 145.32555 11.30405 142.70813 11.30405 Z " stroke="black" stroke-width="0.1" fill="tomato"/>
</svg>
