<svg xmlns="http://www.w3.org/2000/svg" xmlns:xlink="http://www.w3.org/1999/xlink" width="10.257961" height="15.397018" viewBox="0 0 10.257961 15.397018">
    <rect x="0" y="0" width="10.257961" height="15.397018" fill="white"/>
    <path d="M 9.089077 7.698509 Q 9.089077 4.534462 7.698509 2.8012905 Q 7.6380496 2.7408295 7.6380496 2.6602173 Q 7.6380496 2.3982277 7.9403467 2.3982277 Q 8.061266 2.3982277 8.162032 2.519146 Q 10.257961 5.139057 10.257961 7.698509 Q 10.257961 10.257961 8.162032 12.877872 Q 8.061266 12.998791 7.9403467 12.998791 Q 7.6380496 12.998791 7.6380496 12.736801 Q 7.6380496 12.656189 7.698509 12.59573 Q 9.089077 10.862556 9.089077 7.698509 Z M 4.413543 4.07094 L 6.590085 3.627571 L 6.650544 3.627571 Q 7.0133014 3.627571 7.0133014 3.970173 L 7.1543736 15.255947 Q 6.872229 15.397018 6.650544 15.397018 Q 6.4288597 15.397018 6.146715 15.255947 L 6.207175 11.688835 Q 6.207175 11.547764 6.106409 11.43692 Q 6.005643 11.3260765 5.8444176 11.3260765 Q 5.8041115 11.3260765 5.7839584 11.3260765 L 3.6074166 11.7896 L 3.546957 11.7896 Q 3.1842 11.7896 3.1842 11.446999 L 3.0229747 0.14107132 Q 3.305119 0 3.546957 0 Q 3.768642 0 4.050786 0.14107132 L 3.9903266 3.6880302 Q 3.9903266 3.8492546 4.0910926 3.9600983 Q 4.1918583 4.07094 4.3530836 4.07094 Q 4.3732367 4.07094 4.413543 4.07094 Z M 4.3329306 9.713825 L 5.9250307 9.3510685 Q 6.227328 9.290609 6.227328 8.988312 L 6.2877874 6.066103 Q 6.2877874 5.9048767 6.166868 5.7839584 Q 6.0459495 5.66304 5.884724 5.7033463 L 4.272471 6.04595 Q 3.9701734 6.106409 3.9701734 6.3885536 L 3.909714 9.371222 Q 3.909714 9.532448 4.0407095 9.643291 Q 4.1717052 9.754131 4.3329306 9.713825 Z M 1.1487304 7.698509 Q 1.1487304 10.862556 2.5392988 12.59573 Q 2.5997581 12.656189 2.5997581 12.736801 Q 2.5997581 12.998791 2.317614 12.998791 Q 2.1563888 12.998791 2.075776 12.877872 Q 0 10.298267 0 7.698509 Q 0 5.098751 2.075776 2.519146 Q 2.1563888 2.3982277 2.317614 2.3982277 Q 2.5997581 2.3982277 2.5997581 2.6602173 Q 2.5997581 2.7408295 2.5392988 2.8012905 Q 1.1487304 4.534462 1.1487304 7.698509 Z " fill="red"/>
</svg>
