<svg xmlns="http://www.w3.org/2000/svg" xmlns:xlink="http://www.w3.org/1999/xlink" width="151.29543" height="35.765507" viewBox="0 0 151.29543 35.765507">
    <rect x="0" y="0" width="151.29543" height="35.765507" fill="white"/>
    <path d="M 19.899607 26.94514 L 16.85192 26.94514 L 16.85192 14.610971 L 3.0476873 14.610971 L 3.0476873 26.94514 L 0 26.94514 L 0 0.7350311 L 3.0476873 0.7350311 L 3.0476873 11.885981 L 16.85192 11.885981 L 16.85192 0.7350311 L 19.899607 0.7350311 L 19.899607 26.94514 Z " stroke="black" stroke-width="0.1" fill="tomato"/>
    <path d="M 36.0294 21.303692 Q 31.673002 21.303692 29.154177 18.650412 Q 26.635353 15.997131 26.635353 11.28218 Q 26.635353 6.531373 28.974901 3.7346725 Q 31.31445 0.9379711 35.258514 0.9379711 Q 38.951595 0.9379711 41.1029 3.367157 Q 43.25421 5.796343 43.25421 9.776263 L 43.25421 11.658658 L 29.718897 11.658658 Q 29.808535 15.11868 31.466833 16.911438 Q 33.125134 18.704195 36.136967 18.704195 Q 39.310146 18.704195 42.411617 17.377554 L 42.411617 20.030834 Q 40.83399 20.712082 39.426674 21.007887 Q 38.01936 21.303692 36.0294 21.303692 Z M 35.22266 3.429903 Q 32.85622 3.429903 31.448908 4.971674 Q 30.041592 6.513445 29.790606 9.238437 L 40.063103 9.238437 Q 40.063103 6.423807 38.808174 4.926855 Q 37.55324 3.429903 35.22266 3.429903 Z " stroke="black" stroke-width="0.1" fill="tomato"/>
    <path d="M 50.54212 35.765507 Q 48.839 35.765507 47.781277 35.317318 L 47.781277 32.897095 Q 49.01828 33.255646 50.219425 33.255646 Q 51.617775 33.255646 52.272133 32.493725 Q 52.926487 31.731802 52.926487 30.172104 L 52.926487 7.296522 L 55.902466 7.296522 L 55.902466 29.956974 Q 55.902466 35.765507 50.54212 35.765507 Z M 52.675503 1.9720325 Q 52.675503 0.950161 53.177475 0.4750805 Q 53.679447 0 54.432404 0 Q 55.14951 0 55.669407 0.48404503 Q 56.18931 0.96808815 56.18931 1.9720325 Q 56.18931 2.975977 55.669407 3.4689846 Q 55.14951 3.9619942 54.432404 3.9619942 Q 53.679447 3.9619942 53.177475 3.4689846 Q 52.675503 2.975977 52.675503 1.9720325 Z " stroke="black" stroke-width="0.1" fill="tomato"/>
    <path d="" stroke="black" stroke-width="0.1" fill="tomato"/>
    <path d="M 80.02007 27.94514 L 80.02007 15.234492 Q 80.02007 12.832197 78.92649 11.648977 Q 77.83291 10.465757 75.50233 10.465757 Q 72.400856 10.465757 70.97562 12.1509495 Q 69.55038 13.836142 69.55038 17.672642 L 69.55038 27.94514 L 66.574394 27.94514 L 66.574394 0.04983902 L 69.55038 0.04983902 L 69.55038 8.493725 Q 69.55038 10.017569 69.40695 11.021513 L 69.58623 11.021513 Q 70.464676 9.605234 72.08713 8.78953 Q 73.70957 7.9738255 75.78917 7.9738255 Q 79.39261 7.9738255 81.194336 9.685909 Q 82.99605 11.397991 82.99605 15.126926 L 82.99605 27.94514 L 80.02007 27.94514 Z " stroke="black" stroke-width="0.1" fill="tomato"/>
    <path d="M 106.6038 11.102903 Q 106.6038 15.907494 104.18357 18.605593 Q 101.76335 21.303692 97.49659 21.303692 Q 94.86124 21.303692 92.81749 20.06669 Q 90.77375 18.829687 89.66224 16.51703 Q 88.55073 14.204374 88.55073 11.102903 Q 88.55073 6.298314 90.953026 3.618143 Q 93.355316 0.9379711 97.622086 0.9379711 Q 101.74542 0.9379711 104.17461 3.6808891 Q 106.6038 6.423807 106.6038 11.102903 Z M 91.63427 11.102903 Q 91.63427 14.867694 93.14019 16.839727 Q 94.6461 18.81176 97.5683 18.81176 Q 100.49049 18.81176 102.00537 16.84869 Q 103.52025 14.885622 103.52025 11.102903 Q 103.52025 7.356041 102.00537 5.410899 Q 100.49049 3.4657574 97.53244 3.4657574 Q 94.61025 3.4657574 93.12226 5.3840084 Q 91.63427 7.3022585 91.63427 11.102903 Z " stroke="black" stroke-width="0.1" fill="tomato"/>
    <path d="M 120.14019 21.303692 Q 118.22194 21.303692 116.635345 20.595552 Q 115.04876 19.887415 113.97311 18.417353 L 113.75797 18.417353 Q 113.97311 20.138401 113.97311 21.680172 L 113.97311 29.765507 L 110.99712 29.765507 L 110.99712 1.2965221 L 113.41735 1.2965221 L 113.82968 3.9856567 L 113.97311 3.9856567 Q 115.12047 2.3721752 116.64431 1.6550732 Q 118.16815 0.9379711 120.14019 0.9379711 Q 124.0484 0.9379711 126.17281 3.6091785 Q 128.29723 6.280387 128.29723 11.102903 Q 128.29723 15.943348 126.13696 18.62352 Q 123.976685 21.303692 120.14019 21.303692 Z M 119.70992 3.4657574 Q 116.69809 3.4657574 115.35352 5.1330223 Q 114.00896 6.8002863 113.97311 10.439584 L 113.97311 11.102903 Q 113.97311 15.244173 115.35352 17.027966 Q 116.73395 18.81176 119.78164 18.81176 Q 122.327354 18.81176 123.77052 16.75009 Q 125.21369 14.688418 125.21369 11.067049 Q 125.21369 7.3918962 123.77052 5.4288273 Q 122.327354 3.4657574 119.70992 3.4657574 Z " stroke="black" stroke-width="0.1" fill="tomato"/>
    <path d="M 143.13838 21.303692 Q 141.22014 21.303692 139.63354 20.595552 Q 138.04695 19.887415 136.9713 18.417353 L 136.75616 18.417353 Q 136.9713 20.138401 136.9713 21.680172 L 136.9713 29.765507 L 133.99533 29.765507 L 133.99533 1.2965221 L 136.41554 1.2965221 L 136.82788 3.9856567 L 136.9713 3.9856567 Q 138.11867 2.3721752 139.64252 1.6550732 Q 141.16635 0.9379711 143.13838 0.9379711 Q 147.0466 0.9379711 149.17102 3.6091785 Q 151.29543 6.280387 151.29543 11.102903 Q 151.29543 15.943348 149.13516 18.62352 Q 146.97488 21.303692 143.13838 21.303692 Z M 142.70813 3.4657574 Q 139.69629 3.4657574 138.35173 5.1330223 Q 137.00716 6.8002863 136.9713 10.439584 L 136.9713 11.102903 Q 136.9713 15.244173 138.35173 17.027966 Q 139.73215 18.81176 142.77983 18.81176 Q 145.32555 18.81176 146.76872 16.75009 Q 148.21188 14.688418 148.21188 11.067049 Q 148.21188 7.3918962 146.76872 5.4288273 Q 145.32555 3.4657574 142.70813 3.4657574 Z " stroke="black" stroke-width="0.1" fill="tomato"/>
</svg>
