<svg xmlns="http://www.w3.org/2000/svg" xmlns:xlink="http://www.w3.org/1999/xlink" width="13.301088" height="37.202744" viewBox="0 0 13.301088 37.202744">
    <rect x="0" y="0" width="13.301088" height="37.202744" fill="white"/>
    <path d="M 4.997985 11.7896 Q 4.534462 10.31842 4.3530836 9.169689 Q 4.1918583 8.202338 4.1918583 6.9125366 Q 4.1918583 6.469166 4.2120113 6.025797 Q 4.292624 4.111246 4.997985 2.5090694 Q 5.703346 0.9068928 7.114067 0.060459137 Q 7.2148333 0 7.3760586 0 Q 7.5171304 0 7.617896 0.10076523 Q 8.746473 1.2293434 9.3510685 2.982668 Q 9.955664 4.7359943 9.955664 6.529625 Q 9.955664 8.605402 9.068924 10.600565 Q 8.222491 12.595728 6.6908507 14.127369 Q 6.569932 14.248287 6.610238 14.44982 L 7.4163647 17.674326 Q 7.4768243 17.996777 7.819428 17.95647 Q 8.141878 17.916164 8.444176 17.916164 Q 9.61306 17.916164 10.560259 18.379686 Q 11.507457 18.843208 12.091899 19.588877 Q 12.676341 20.334543 12.988715 21.23136 Q 13.301088 22.128176 13.301088 23.075375 Q 13.301088 24.808546 12.333736 26.20919 Q 11.3663845 27.609837 10.016123 28.053204 Q 9.733978 28.153973 9.794438 28.476421 Q 10.298267 30.854496 10.31842 32.486904 Q 10.31842 33.111652 10.237808 33.716244 Q 10.076582 35.106815 9.028618 36.154778 Q 7.9806533 37.202744 6.5296254 37.202744 Q 4.756147 37.202744 3.526804 36.134624 Q 2.2974608 35.06651 2.2974608 33.333336 Q 2.2974608 32.446598 2.9222088 31.801693 Q 3.546957 31.156796 4.3933897 31.156796 Q 5.259976 31.156796 5.8544946 31.771465 Q 6.4490128 32.386135 6.4490128 33.23257 Q 6.4490128 33.958084 5.965337 34.502216 Q 5.481661 35.06651 4.7964535 35.126965 Q 4.554615 35.14712 4.474003 35.368805 Q 4.3933897 35.59049 4.635228 35.77187 Q 5.3607416 36.336155 6.4087067 36.336155 Q 7.557437 36.336155 8.393793 35.509876 Q 9.230149 34.683598 9.371222 33.63563 Q 9.471988 32.91012 9.471988 32.184605 Q 9.471988 30.61266 8.988312 28.698109 Q 8.907699 28.355503 8.544942 28.39581 Q 7.7388153 28.496574 7.053608 28.496574 Q 4.070939 28.496574 2.0354695 26.622334 Q 0 24.748087 0 21.52358 Q 0 20.536076 0.2317614 19.5788 Q 0.4635228 18.621525 0.7557437 17.92624 Q 1.0479646 17.230957 1.662636 16.313988 Q 2.2773075 15.397018 2.6501412 14.9133415 Q 3.0229747 14.4296665 3.8291013 13.472391 Q 4.635228 12.515116 4.9375253 12.132206 Q 5.0584445 11.991135 4.997985 11.7896 Z M 8.141878 20.999598 L 9.451835 26.944782 Q 9.512294 27.206772 9.814591 27.206772 Q 9.895204 27.206772 9.955664 27.186619 Q 10.781943 26.844013 11.326078 25.85651 Q 11.870214 24.869007 11.870214 23.901653 Q 11.870214 22.490932 11.043934 21.52358 Q 10.197501 20.536076 8.504636 20.536076 Q 8.363564 20.536076 8.252721 20.646917 Q 8.141878 20.75776 8.141878 20.898832 Q 8.121725 20.959291 8.141878 20.999598 Z M 5.3607416 15.397018 Q 5.038291 15.759775 4.4034667 16.434906 Q 3.768642 17.110037 3.4562678 17.462717 Q 3.1438937 17.8154 2.6904476 18.4603 Q 2.2370014 19.105202 2.0153165 19.649336 Q 1.7936317 20.193472 1.6223297 20.979445 Q 1.4510279 21.765419 1.4510279 22.652157 Q 1.4510279 23.8815 2.2067716 25.030231 Q 2.9625154 26.178959 4.2825475 26.904476 Q 5.60258 27.62999 7.114067 27.62999 Q 7.6582026 27.62999 8.323257 27.56953 Q 8.484483 27.549377 8.585248 27.41838 Q 8.686014 27.287388 8.645708 27.12616 L 7.335752 21.100365 Q 7.2752924 20.81822 6.9528418 20.81822 Q 6.8923826 20.81822 6.8117695 20.838373 Q 5.884724 21.180977 5.501814 21.805725 Q 5.118904 22.430473 5.118904 23.377672 Q 5.118904 24.486095 6.3280935 25.292221 Q 6.469166 25.392986 6.469166 25.59452 Q 6.469166 25.755745 6.3381705 25.896816 Q 6.207175 26.037891 6.0257964 26.037891 Q 5.9250307 26.037891 5.8444176 25.997585 Q 4.6956873 25.392986 4.141475 24.3551 Q 3.5872633 23.317211 3.5872633 22.168482 Q 3.5872633 21.060059 4.383313 19.881098 Q 5.1793633 18.702137 6.3684 18.258768 Q 6.6706977 18.137848 6.610238 17.835552 L 6.005643 15.558243 Q 5.965337 15.336559 5.723499 15.296253 Q 5.481661 15.255947 5.3607416 15.397018 Z M 8.746473 3.6678772 Q 8.585248 3.1438942 8.202338 3.1438942 Q 8.081419 3.1438942 7.9806533 3.2043533 Q 6.6908507 3.970173 5.935107 5.3607426 Q 5.1793633 6.7513103 5.1793633 8.303104 Q 5.1793633 9.310762 5.60258 10.781944 Q 5.663039 11.003628 5.904877 11.043934 Q 6.106409 11.064087 6.2474813 10.902863 Q 6.3079405 10.82225 6.8218465 10.187424 Q 7.335752 9.552601 7.4969773 9.340992 Q 7.6582026 9.129383 8.041113 8.534865 Q 8.424023 7.9403477 8.575171 7.5473604 Q 8.72632 7.154373 8.867393 6.569931 Q 9.008465 5.985491 9.008465 5.4010487 Q 9.008465 4.554615 8.746473 3.6678772 Z " fill="red"/>
</svg>
