<svg xmlns="http://www.w3.org/2000/svg" xmlns:xlink="http://www.w3.org/1999/xlink" width="103.6" height="95.874245" viewBox="0 0 103.6 95.874245">
    <rect x="0" y="0" width="103.6" height="95.874245" fill="white"/>
    <rect x="0.1" y="15.874245" width="30" height="40" fill="lightgray"/>
    <path d="M 0.1 56.3676 L 0.1 55.37001 L 40.00326 55.37001 L 40.00326 56.3676 L 0.1 56.3676 Z M 0.1 46.391777 L 0.1 45.394196 L 40.00326 45.394196 L 40.00326 46.391777 L 0.1 46.391777 Z M 0.1 36.415962 L 0.1 35.41838 L 40.00326 35.41838 L 40.00326 36.415962 L 0.1 36.415962 Z M 0.1 26.440147 L 0.1 25.442566 L 40.00326 25.442566 L 40.00326 26.440147 L 0.1 26.440147 Z M 0.1 16.464329 L 0.1 15.466747 L 40.00326 15.466747 L 40.00326 16.464329 L 0.1 16.464329 Z " fill="red"/>
    <path d="M 9.99601 23.343414 Q 9.078235 20.430473 8.719106 18.15599 Q 8.399879 16.240631 8.399879 13.686821 Q 8.399879 12.8089485 8.439783 11.931076 Q 8.599396 8.140266 9.99601 4.9679565 Q 11.392624 1.7956467 14.185853 0.11971283 Q 14.385369 0 14.704596 0 Q 14.983918 0 15.1834345 0.1995163 Q 17.418016 2.434101 18.615114 5.9056854 Q 19.812214 9.37727 19.812214 12.928658 Q 19.812214 17.038696 18.056469 20.98912 Q 16.380533 24.939545 13.347884 27.97219 Q 13.108464 28.211609 13.1882715 28.610641 L 14.784402 34.995163 Q 14.904112 35.63362 15.582467 35.55381 Q 16.220919 35.474 16.819468 35.474 Q 19.133858 35.474 21.009312 36.391777 Q 22.884764 37.309555 24.04196 38.785973 Q 25.199154 40.26239 25.817654 42.038086 Q 26.436155 43.81378 26.436155 45.68924 Q 26.436155 49.12092 24.520798 51.894196 Q 22.605442 54.667473 19.931923 55.54534 Q 19.373278 55.744865 19.492987 56.383316 Q 20.490568 61.091896 20.530472 64.324066 Q 20.530472 65.561066 20.37086 66.75816 Q 20.051632 69.51149 17.976664 71.58646 Q 15.901693 73.66143 13.028658 73.66143 Q 9.517171 73.66143 7.083071 71.546555 Q 4.648972 69.43168 4.648972 66 Q 4.648972 64.244255 5.8859735 62.967354 Q 7.1229744 61.690453 8.798912 61.690453 Q 10.514752 61.690453 11.691898 62.907494 Q 12.869045 64.12455 12.869045 65.80048 Q 12.869045 67.237 11.911366 68.31439 Q 10.953689 69.43168 9.596977 69.55139 Q 9.118138 69.59129 8.958525 70.030235 Q 8.798912 70.46917 9.277751 70.8283 Q 10.714269 71.94559 12.789239 71.94559 Q 15.0637245 71.94559 16.71971 70.309555 Q 18.375696 68.673515 18.655018 66.59855 Q 18.854534 65.16203 18.854534 63.725517 Q 18.854534 60.61306 17.896856 56.82225 Q 17.737244 56.143898 17.018984 56.2237 Q 15.422853 56.423218 14.066143 56.423218 Q 8.1604595 56.423218 4.1302295 52.71221 Q 0.1 49.001205 0.1 42.616684 Q 0.1 40.661423 0.55888754 38.76602 Q 1.017775 36.87062 1.5963725 35.493958 Q 2.1749697 34.117294 3.3920193 32.301697 Q 4.609069 30.4861 5.347279 29.52842 Q 6.0854897 28.57074 7.68162 26.675331 Q 9.277751 24.77993 9.8763 24.021767 Q 10.11572 23.742447 9.99601 23.343414 Z M 16.220919 41.57921 L 18.81463 53.35067 Q 18.934341 53.869408 19.53289 53.869408 Q 19.692503 53.869408 19.812214 53.829506 Q 21.448246 53.151146 22.525635 51.195885 Q 23.603024 49.24063 23.603024 47.32527 Q 23.603024 44.532043 21.96699 42.616684 Q 20.291052 40.661423 16.939178 40.661423 Q 16.659855 40.661423 16.440388 40.880898 Q 16.220919 41.100365 16.220919 41.379684 Q 16.181017 41.499397 16.220919 41.57921 Z M 10.714269 30.4861 Q 10.075816 31.204353 8.818864 32.541115 Q 7.56191 33.87787 6.94341 34.57618 Q 6.324909 35.27449 5.427086 36.55139 Q 4.529262 37.828293 4.0903263 38.905685 Q 3.6513906 39.983078 3.3122127 41.5393 Q 2.9730349 43.095528 2.9730349 44.851273 Q 2.9730349 47.28537 4.4694076 49.55986 Q 5.96578 51.834343 8.579444 53.27086 Q 11.193108 54.707375 14.185853 54.707375 Q 15.263241 54.707375 16.58005 54.58767 Q 16.899275 54.547768 17.098791 54.28839 Q 17.298307 54.029022 17.2185 53.7098 L 14.624788 41.778717 Q 14.505079 41.220078 13.866627 41.220078 Q 13.746917 41.220078 13.587304 41.25998 Q 11.751754 41.93833 10.993591 43.17534 Q 10.23543 44.41234 10.23543 46.28779 Q 10.23543 48.482468 12.629625 50.078598 Q 12.908948 50.278114 12.908948 50.677147 Q 12.908948 50.996376 12.649577 51.275696 Q 12.390205 51.555016 12.031076 51.555016 Q 11.83156 51.555016 11.6719475 51.475212 Q 9.397461 50.278114 8.300121 48.2231 Q 7.202781 46.168076 7.202781 43.893593 Q 7.202781 41.698914 8.77896 39.36457 Q 10.35514 37.030228 12.709432 36.15236 Q 13.307981 35.91294 13.1882715 35.314392 L 11.991173 30.80532 Q 11.911366 30.366386 11.432528 30.286575 Q 10.953689 30.206772 10.714269 30.4861 Z M 17.418016 7.262394 Q 17.098791 6.2249107 16.34063 6.2249107 Q 16.10121 6.2249107 15.901693 6.3446198 Q 13.347884 7.860943 11.851512 10.614269 Q 10.35514 13.367596 10.35514 16.440147 Q 10.35514 18.43531 11.193108 21.348251 Q 11.312818 21.787186 11.7916565 21.86699 Q 12.190689 21.90689 12.470013 21.58767 Q 12.589723 21.428055 13.607255 20.171104 Q 14.624788 18.914146 14.944015 18.495163 Q 15.263241 18.07618 16.021402 16.899033 Q 16.779566 15.721886 17.07884 14.943771 Q 17.378115 14.165665 17.657436 13.008465 Q 17.93676 11.851273 17.93676 10.694077 Q 17.93676 9.018139 17.418016 7.262394 Z " fill="black"/>
    <path d="M 45.03591 31.858528 Q 43.87872 31.858528 40.147762 34.47219 Q 36.41681 37.085854 36.41681 38.28295 Q 36.41681 39.12092 37.135067 39.51995 Q 37.853325 39.918983 38.850906 39.918983 Q 40.008102 39.918983 43.73906 37.30532 Q 47.470013 34.691658 47.470013 33.49456 Q 47.470013 32.656593 46.751755 32.25756 Q 46.033493 31.858528 45.03591 31.858528 Z M 35.1 37.405075 Q 35.1 34.532043 37.574 32.477028 Q 40.048004 30.422012 43.559494 30.422012 Q 44.75659 30.422012 45.794075 30.661423 Q 46.83156 30.900848 47.789238 31.858528 Q 48.746918 32.816208 48.746918 34.372437 Q 48.746918 37.24547 46.272915 39.300484 Q 43.798912 41.355507 40.287422 41.355507 Q 39.090324 41.355507 38.05284 41.11608 Q 37.015358 40.876663 36.05768 39.918983 Q 35.1 38.961304 35.1 37.405075 Z " fill="black"/>
    <rect x="30.1" y="25.874245" width="5" height="20" fill="gray"/>
    <path d="M 48.6 42.24547 Q 48.6 39.851273 51.233616 37.636642 Q 53.86723 35.422012 56.620556 35.422012 Q 57.737846 35.422012 58.755383 35.701332 Q 59.772915 35.98065 60.69069 36.97824 Q 61.608463 37.975815 61.608463 39.532043 Q 61.608463 41.726723 58.934944 44.041115 Q 56.261425 46.355507 53.587906 46.355507 Q 52.470615 46.355507 51.453083 46.07618 Q 50.43555 45.79686 49.517776 44.79927 Q 48.6 43.801697 48.6 42.24547 Z " fill="black"/>
    <path d="M 61.6 42.24547 Q 61.6 39.851273 64.23361 37.636642 Q 66.86723 35.422012 69.62056 35.422012 Q 70.73785 35.422012 71.75538 35.701332 Q 72.77292 35.98065 73.69069 36.97824 Q 74.60847 37.975815 74.60847 39.532043 Q 74.60847 41.726723 71.934944 44.041115 Q 69.26143 46.355507 66.587906 46.355507 Q 65.47062 46.355507 64.45309 46.07618 Q 63.43555 45.79686 62.517776 44.79927 Q 61.6 43.801697 61.6 42.24547 Z " fill="black"/>
    <path d="M 74.6 45.290207 Q 74.6 43.534462 76.51536 41.97824 Q 78.43071 40.422012 82.022 40.422012 Q 84.45611 40.422012 86.45127 41.00061 Q 88.446434 41.57921 89.84305 42.995773 Q 91.23966 44.41234 91.23966 46.487305 Q 91.23966 48.56227 89.424065 49.958885 Q 87.60847 51.355507 84.3763 51.355507 Q 82.460945 51.355507 80.864815 51.07618 Q 79.268684 50.79686 77.79226 50.15841 Q 76.31584 49.51995 75.457924 48.28295 Q 74.6 47.04595 74.6 45.290207 Z M 82.022 41.499397 Q 78.51052 41.499397 78.51052 42.736397 Q 78.51052 44.13301 80.64535 47.205566 Q 82.78017 50.278114 84.21669 50.278114 Q 87.64837 50.278114 87.64837 49.041115 Q 87.64837 47.524788 85.43374 44.512093 Q 83.21911 41.499397 82.022 41.499397 Z " fill="black"/>
    <rect x="98.6" y="15.874245" width="5" height="40" fill="black"/>
    <line x1="0" y1="35.874245" x2="0.1" y2="95.874245" stroke="rgba(0,0,0,0.2)" stroke-width="0.2"/>
    <line x1="35" y1="35.874245" x2="35.1" y2="95.874245" stroke="rgba(0,0,0,0.2)" stroke-width="0.2"/>
    <line x1="48.5" y1="35.874245" x2="48.6" y2="95.874245" stroke="rgba(0,0,0,0.2)" stroke-width="0.2"/>
    <line x1="61.5" y1="35.874245" x2="61.6" y2="95.874245" stroke="rgba(0,0,0,0.2)" stroke-width="0.2"/>
    <line x1="74.5" y1="35.874245" x2="74.6" y2="95.874245" stroke="rgba(0,0,0,0.2)" stroke-width="0.2"/>
    <line x1="98.5" y1="35.874245" x2="98.6" y2="95.874245" stroke="rgba(0,0,0,0.2)" stroke-width="0.2"/>
    <line x1="103.5" y1="35.874245" x2="103.6" y2="95.874245" stroke="rgba(0,0,0,0.2)" stroke-width="0.2"/>
</svg>
