<svg xmlns="http://www.w3.org/2000/svg" xmlns:xlink="http://www.w3.org/1999/xlink" width="220.6" height="215.87424" viewBox="0 0 220.6 215.87424">
    <rect x="0" y="0" width="220.6" height="215.87424" fill="white"/>
    <rect x="0.1" y="15.874245" width="30" height="40" fill="lightgray"/>
    <path d="M 0.1 56.3676 L 0.1 55.37001 L 40.00326 55.37001 L 40.00326 56.3676 L 0.1 56.3676 Z M 0.1 46.391777 L 0.1 45.394196 L 40.00326 45.394196 L 40.00326 46.391777 L 0.1 46.391777 Z M 0.1 36.415962 L 0.1 35.41838 L 40.00326 35.41838 L 40.00326 36.415962 L 0.1 36.415962 Z M 0.1 26.440147 L 0.1 25.442566 L 40.00326 25.442566 L 40.00326 26.440147 L 0.1 26.440147 Z M 0.1 16.464329 L 0.1 15.466747 L 40.00326 15.466747 L 40.00326 16.464329 L 0.1 16.464329 Z " fill="red"/>
    <path d="M 9.99601 23.343414 Q 9.078235 20.430473 8.719106 18.15599 Q 8.399879 16.240631 8.399879 13.686821 Q 8.399879 12.8089485 8.439783 11.931076 Q 8.599396 8.140266 9.99601 4.9679565 Q 11.392624 1.7956467 14.185853 0.11971283 Q 14.385369 0 14.704596 0 Q 14.983918 0 15.1834345 0.1995163 Q 17.418016 2.434101 18.615114 5.9056854 Q 19.812214 9.37727 19.812214 12.928658 Q 19.812214 17.038696 18.056469 20.98912 Q 16.380533 24.939545 13.347884 27.97219 Q 13.108464 28.211609 13.1882715 28.610641 L 14.784402 34.995163 Q 14.904112 35.63362 15.582467 35.55381 Q 16.220919 35.474 16.819468 35.474 Q 19.133858 35.474 21.009312 36.391777 Q 22.884764 37.309555 24.04196 38.785973 Q 25.199154 40.26239 25.817654 42.038086 Q 26.436155 43.81378 26.436155 45.68924 Q 26.436155 49.12092 24.520798 51.894196 Q 22.605442 54.667473 19.931923 55.54534 Q 19.373278 55.744865 19.492987 56.383316 Q 20.490568 61.091896 20.530472 64.324066 Q 20.530472 65.561066 20.37086 66.75816 Q 20.051632 69.51149 17.976664 71.58646 Q 15.901693 73.66143 13.028658 73.66143 Q 9.517171 73.66143 7.083071 71.546555 Q 4.648972 69.43168 4.648972 66 Q 4.648972 64.244255 5.8859735 62.967354 Q 7.1229744 61.690453 8.798912 61.690453 Q 10.514752 61.690453 11.691898 62.907494 Q 12.869045 64.12455 12.869045 65.80048 Q 12.869045 67.237 11.911366 68.31439 Q 10.953689 69.43168 9.596977 69.55139 Q 9.118138 69.59129 8.958525 70.030235 Q 8.798912 70.46917 9.277751 70.8283 Q 10.714269 71.94559 12.789239 71.94559 Q 15.0637245 71.94559 16.71971 70.309555 Q 18.375696 68.673515 18.655018 66.59855 Q 18.854534 65.16203 18.854534 63.725517 Q 18.854534 60.61306 17.896856 56.82225 Q 17.737244 56.143898 17.018984 56.2237 Q 15.422853 56.423218 14.066143 56.423218 Q 8.1604595 56.423218 4.1302295 52.71221 Q 0.1 49.001205 0.1 42.616684 Q 0.1 40.661423 0.55888754 38.76602 Q 1.017775 36.87062 1.5963725 35.493958 Q 2.1749697 34.117294 3.3920193 32.301697 Q 4.609069 30.4861 5.347279 29.52842 Q 6.0854897 28.57074 7.68162 26.675331 Q 9.277751 24.77993 9.8763 24.021767 Q 10.11572 23.742447 9.99601 23.343414 Z M 16.220919 41.57921 L 18.81463 53.35067 Q 18.934341 53.869408 19.53289 53.869408 Q 19.692503 53.869408 19.812214 53.829506 Q 21.448246 53.151146 22.525635 51.195885 Q 23.603024 49.24063 23.603024 47.32527 Q 23.603024 44.532043 21.96699 42.616684 Q 20.291052 40.661423 16.939178 40.661423 Q 16.659855 40.661423 16.440388 40.880898 Q 16.220919 41.100365 16.220919 41.379684 Q 16.181017 41.499397 16.220919 41.57921 Z M 10.714269 30.4861 Q 10.075816 31.204353 8.818864 32.541115 Q 7.56191 33.87787 6.94341 34.57618 Q 6.324909 35.27449 5.427086 36.55139 Q 4.529262 37.828293 4.0903263 38.905685 Q 3.6513906 39.983078 3.3122127 41.5393 Q 2.9730349 43.095528 2.9730349 44.851273 Q 2.9730349 47.28537 4.4694076 49.55986 Q 5.96578 51.834343 8.579444 53.27086 Q 11.193108 54.707375 14.185853 54.707375 Q 15.263241 54.707375 16.58005 54.58767 Q 16.899275 54.547768 17.098791 54.28839 Q 17.298307 54.029022 17.2185 53.7098 L 14.624788 41.778717 Q 14.505079 41.220078 13.866627 41.220078 Q 13.746917 41.220078 13.587304 41.25998 Q 11.751754 41.93833 10.993591 43.17534 Q 10.23543 44.41234 10.23543 46.28779 Q 10.23543 48.482468 12.629625 50.078598 Q 12.908948 50.278114 12.908948 50.677147 Q 12.908948 50.996376 12.649577 51.275696 Q 12.390205 51.555016 12.031076 51.555016 Q 11.83156 51.555016 11.6719475 51.475212 Q 9.397461 50.278114 8.300121 48.2231 Q 7.202781 46.168076 7.202781 43.893593 Q 7.202781 41.698914 8.77896 39.36457 Q 10.35514 37.030228 12.709432 36.15236 Q 13.307981 35.91294 13.1882715 35.314392 L 11.991173 30.80532 Q 11.911366 30.366386 11.432528 30.286575 Q 10.953689 30.206772 10.714269 30.4861 Z M 17.418016 7.262394 Q 17.098791 6.2249107 16.34063 6.2249107 Q 16.10121 6.2249107 15.901693 6.3446198 Q 13.347884 7.860943 11.851512 10.614269 Q 10.35514 13.367596 10.35514 16.440147 Q 10.35514 18.43531 11.193108 21.348251 Q 11.312818 21.787186 11.7916565 21.86699 Q 12.190689 21.90689 12.470013 21.58767 Q 12.589723 21.428055 13.607255 20.171104 Q 14.624788 18.914146 14.944015 18.495163 Q 15.263241 18.07618 16.021402 16.899033 Q 16.779566 15.721886 17.07884 14.943771 Q 17.378115 14.165665 17.657436 13.008465 Q 17.93676 11.851273 17.93676 10.694077 Q 17.93676 9.018139 17.418016 7.262394 Z " fill="black"/>
    <path d="M 35.1 37.24547 Q 35.1 34.851273 37.733616 32.636642 Q 40.36723 30.422012 43.120556 30.422012 Q 44.237846 30.422012 45.255383 30.701332 Q 46.272915 30.980652 47.19069 31.978241 Q 48.108463 32.975815 48.108463 34.532043 Q 48.108463 36.726723 45.434944 39.041115 Q 42.761425 41.355507 40.087906 41.355507 Q 38.970615 41.355507 37.953083 41.07618 Q 36.93555 40.79686 36.017776 39.79927 Q 35.1 38.801697 35.1 37.24547 Z " fill="black"/>
    <path d="M 35.1 47.24547 Q 35.1 44.851273 37.733616 42.636642 Q 40.36723 40.422012 43.120556 40.422012 Q 44.237846 40.422012 45.255383 40.701332 Q 46.272915 40.98065 47.19069 41.97824 Q 48.108463 42.975815 48.108463 44.532043 Q 48.108463 46.726723 45.434944 49.041115 Q 42.761425 51.355507 40.087906 51.355507 Q 38.970615 51.355507 37.953083 51.07618 Q 36.93555 50.79686 36.017776 49.79927 Q 35.1 48.801697 35.1 47.24547 Z " fill="black"/>
    <rect x="30.1" y="25.874245" width="5" height="20" fill="gray"/>
    <path d="M 54.1 52.24547 Q 54.1 49.851273 56.733616 47.636642 Q 59.36723 45.422012 62.120556 45.422012 Q 63.237846 45.422012 64.25538 45.701332 Q 65.27292 45.98065 66.19069 46.97824 Q 67.10847 47.975815 67.10847 49.532043 Q 67.10847 51.726723 64.434944 54.041115 Q 61.761425 56.355507 59.087906 56.355507 Q 57.970615 56.355507 56.953083 56.07618 Q 55.93555 55.79686 55.017776 54.79927 Q 54.1 53.801697 54.1 52.24547 Z " fill="black"/>
    <path d="M 73.1 42.24547 Q 73.1 39.851273 75.73361 37.636642 Q 78.36723 35.422012 81.12056 35.422012 Q 82.23785 35.422012 83.25538 35.701332 Q 84.27292 35.98065 85.19069 36.97824 Q 86.10847 37.975815 86.10847 39.532043 Q 86.10847 41.726723 83.434944 44.041115 Q 80.76143 46.355507 78.087906 46.355507 Q 76.97062 46.355507 75.95309 46.07618 Q 74.93555 45.79686 74.01778 44.79927 Q 73.1 43.801697 73.1 42.24547 Z " fill="black"/>
    <path d="M 83.1 47.24547 Q 83.1 44.851273 85.73361 42.636642 Q 88.36723 40.422012 91.12056 40.422012 Q 92.23785 40.422012 93.25538 40.701332 Q 94.27292 40.98065 95.19069 41.97824 Q 96.10847 42.975815 96.10847 44.532043 Q 96.10847 46.726723 93.434944 49.041115 Q 90.76143 51.355507 88.087906 51.355507 Q 86.97062 51.355507 85.95309 51.07618 Q 84.93555 50.79686 84.01778 49.79927 Q 83.1 48.801697 83.1 47.24547 Z " fill="black"/>
    <path d="M 96.1 47.24547 Q 96.1 44.851273 98.73361 42.636642 Q 101.36723 40.422012 104.12056 40.422012 Q 105.23785 40.422012 106.25538 40.701332 Q 107.27292 40.98065 108.19069 41.97824 Q 109.10847 42.975815 109.10847 44.532043 Q 109.10847 46.726723 106.434944 49.041115 Q 103.76143 51.355507 101.087906 51.355507 Q 99.97062 51.355507 98.95309 51.07618 Q 97.93555 50.79686 97.01778 49.79927 Q 96.1 48.801697 96.1 47.24547 Z " fill="black"/>
    <rect x="115.1" y="35.874245" width="1" height="1" fill="orange"/>
    <rect x="140.6" y="35.874245" width="1" height="1" fill="orange"/>
    <rect x="155.8" y="35.874245" width="1" height="1" fill="orange"/>
    <rect x="178.8" y="35.874245" width="1" height="1" fill="orange"/>
    <rect x="194" y="35.874245" width="1" height="1" fill="orange"/>
    <rect x="0.1" y="75.874245" width="30" height="40" fill="lightgray"/>
    <path d="M 0.1 116.3676 L 0.1 115.37001 L 40.00326 115.37001 L 40.00326 116.3676 L 0.1 116.3676 Z M 0.1 106.39178 L 0.1 105.394196 L 40.00326 105.394196 L 40.00326 106.39178 L 0.1 106.39178 Z M 0.1 96.41596 L 0.1 95.41838 L 40.00326 95.41838 L 40.00326 96.41596 L 0.1 96.41596 Z M 0.1 86.44015 L 0.1 85.442566 L 40.00326 85.442566 L 40.00326 86.44015 L 0.1 86.44015 Z M 0.1 76.464325 L 0.1 75.46675 L 40.00326 75.46675 L 40.00326 76.464325 L 0.1 76.464325 Z " fill="red"/>
    <path d="M 22.844862 90.87666 Q 22.844862 90.0387 23.44341 89.44015 Q 24.04196 88.8416 24.879927 88.8416 Q 25.717896 88.8416 26.316444 89.44015 Q 26.914993 90.0387 26.914993 90.87666 Q 26.914993 91.71463 26.316444 92.31318 Q 25.717896 92.91173 24.879927 92.91173 Q 24.04196 92.91173 23.44341 92.31318 Q 22.844862 91.71463 22.844862 90.87666 Z M 22.844862 80.90085 Q 22.844862 80.06288 23.44341 79.464325 Q 24.04196 78.86578 24.879927 78.86578 Q 25.717896 78.86578 26.316444 79.464325 Q 26.914993 80.06288 26.914993 80.90085 Q 26.914993 81.738815 26.316444 82.337364 Q 25.717896 82.93591 24.879927 82.93591 Q 24.04196 82.93591 23.44341 82.337364 Q 22.844862 81.738815 22.844862 80.90085 Z M 4.9681983 81.14027 Q 6.763845 81.14027 7.9210396 82.29746 Q 9.078235 83.45466 9.078235 85.13059 Q 9.078235 86.88634 7.9210396 88.12334 Q 6.763845 89.36034 5.087908 89.36034 Q 3.2922611 89.36034 1.9555018 88.12334 Q 0.61874247 86.88634 0.61874247 85.13059 Q 0.61874247 80.821045 3.4917774 78.10762 Q 6.3648124 75.394196 10.634462 75.394196 Q 15.462757 75.394196 18.515356 78.16747 Q 21.567957 80.94075 21.567957 85.40991 Q 21.567957 99.53567 1.0576783 108.59371 Q 0.77835554 108.713425 0.61874247 108.713425 Q 0.1 108.713425 0.1 108.19468 Q 0.1 107.91536 0.61874247 107.59613 Q 3.8110034 105.72068 5.905925 104.28416 Q 8.000847 102.84764 10.23543 100.81258 Q 12.470013 98.77751 13.746917 96.722496 Q 15.023821 94.66747 15.86179 91.874245 Q 16.699759 89.08102 16.699759 85.808945 Q 16.699759 81.65901 14.88416 79.1451 Q 13.068562 76.631195 9.9162035 76.631195 Q 8.000847 76.631195 6.444619 77.52902 Q 4.8883915 78.42685 4.2898426 79.98308 Q 4.1302295 80.501816 4.329746 80.78114 Q 4.609069 81.14027 4.9681983 81.14027 Z " fill="black"/>
    <path d="M 45.03591 91.85853 Q 43.87872 91.85853 40.147762 94.47219 Q 36.41681 97.08585 36.41681 98.28295 Q 36.41681 99.12092 37.135067 99.51995 Q 37.853325 99.91898 38.850906 99.91898 Q 40.008102 99.91898 43.73906 97.30532 Q 47.470013 94.69166 47.470013 93.49456 Q 47.470013 92.65659 46.751755 92.25756 Q 46.033493 91.85853 45.03591 91.85853 Z M 35.1 97.405075 Q 35.1 94.53204 37.574 92.47703 Q 40.048004 90.42201 43.559494 90.42201 Q 44.75659 90.42201 45.794075 90.66142 Q 46.83156 90.90085 47.789238 91.85853 Q 48.746918 92.81621 48.746918 94.37244 Q 48.746918 97.24547 46.272915 99.30048 Q 43.798912 101.35551 40.287422 101.35551 Q 39.090324 101.35551 38.05284 101.11608 Q 37.015358 100.87666 36.05768 99.91898 Q 35.1 98.9613 35.1 97.405075 Z " fill="black"/>
    <rect x="48.6" y="90.874245" width="10" height="10" fill="tomato"/>
    <rect x="30.1" y="85.874245" width="5" height="20" fill="gray"/>
    <rect x="54.1" y="95.874245" width="1" height="1" fill="orange"/>
    <rect x="73.1" y="95.874245" width="1" height="1" fill="orange"/>
    <rect x="96.1" y="95.874245" width="1" height="1" fill="orange"/>
    <rect x="115.1" y="95.874245" width="1" height="1" fill="orange"/>
    <rect x="140.6" y="95.874245" width="1" height="1" fill="orange"/>
    <rect x="155.8" y="95.874245" width="1" height="1" fill="orange"/>
    <rect x="178.8" y="95.874245" width="1" height="1" fill="orange"/>
    <path d="M 194 97.24547 Q 194 94.85127 196.6336 92.63664 Q 199.26723 90.42201 202.02055 90.42201 Q 203.13785 90.42201 204.15538 90.70133 Q 205.17291 90.98065 206.09068 91.97824 Q 207.00845 92.975815 207.00845 94.53204 Q 207.00845 96.72672 204.33495 99.041115 Q 201.66142 101.35551 198.9879 101.35551 Q 197.8706 101.35551 196.85307 101.07618 Q 195.83554 100.79686 194.91777 99.79927 Q 194 98.8017 194 97.24547 Z " fill="black"/>
    <rect x="0.1" y="135.87424" width="30" height="40" fill="lightgray"/>
    <path d="M 0.1 176.3676 L 0.1 175.37001 L 40.00326 175.37001 L 40.00326 176.3676 L 0.1 176.3676 Z M 0.1 166.39178 L 0.1 165.3942 L 40.00326 165.3942 L 40.00326 166.39178 L 0.1 166.39178 Z M 0.1 156.41595 L 0.1 155.41838 L 40.00326 155.41838 L 40.00326 156.41595 L 0.1 156.41595 Z M 0.1 146.44016 L 0.1 145.44257 L 40.00326 145.44257 L 40.00326 146.44016 L 0.1 146.44016 Z M 0.1 136.46432 L 0.1 135.46675 L 40.00326 135.46675 L 40.00326 136.46432 L 0.1 136.46432 Z " fill="red"/>
    <path d="M 9.99601 143.34341 Q 9.078235 140.43048 8.719106 138.15599 Q 8.399879 136.24063 8.399879 133.68683 Q 8.399879 132.80894 8.439783 131.93108 Q 8.599396 128.14026 9.99601 124.96796 Q 11.392624 121.79565 14.185853 120.11971 Q 14.385369 120 14.704596 120 Q 14.983918 120 15.1834345 120.19952 Q 17.418016 122.4341 18.615114 125.905685 Q 19.812214 129.37727 19.812214 132.92865 Q 19.812214 137.0387 18.056469 140.98912 Q 16.380533 144.93954 13.347884 147.9722 Q 13.108464 148.21161 13.1882715 148.61064 L 14.784402 154.99516 Q 14.904112 155.63362 15.582467 155.5538 Q 16.220919 155.474 16.819468 155.474 Q 19.133858 155.474 21.009312 156.39178 Q 22.884764 157.30956 24.04196 158.78598 Q 25.199154 160.26239 25.817654 162.03809 Q 26.436155 163.81378 26.436155 165.68924 Q 26.436155 169.12091 24.520798 171.8942 Q 22.605442 174.66748 19.931923 175.54535 Q 19.373278 175.74487 19.492987 176.38332 Q 20.490568 181.09189 20.530472 184.32407 Q 20.530472 185.56107 20.37086 186.75816 Q 20.051632 189.51149 17.976664 191.58646 Q 15.901693 193.66144 13.028658 193.66144 Q 9.517171 193.66144 7.083071 191.54655 Q 4.648972 189.43167 4.648972 186 Q 4.648972 184.24426 5.8859735 182.96735 Q 7.1229744 181.69046 8.798912 181.69046 Q 10.514752 181.69046 11.691898 182.9075 Q 12.869045 184.12454 12.869045 185.80048 Q 12.869045 187.237 11.911366 188.31439 Q 10.953689 189.43167 9.596977 189.55139 Q 9.118138 189.5913 8.958525 190.03024 Q 8.798912 190.46918 9.277751 190.82831 Q 10.714269 191.94559 12.789239 191.94559 Q 15.0637245 191.94559 16.71971 190.30956 Q 18.375696 188.67352 18.655018 186.59854 Q 18.854534 185.16203 18.854534 183.72552 Q 18.854534 180.61307 17.896856 176.82225 Q 17.737244 176.14389 17.018984 176.2237 Q 15.422853 176.42322 14.066143 176.42322 Q 8.1604595 176.42322 4.1302295 172.71222 Q 0.1 169.0012 0.1 162.61668 Q 0.1 160.66142 0.55888754 158.76602 Q 1.017775 156.87062 1.5963725 155.49396 Q 2.1749697 154.1173 3.3920193 152.3017 Q 4.609069 150.4861 5.347279 149.52841 Q 6.0854897 148.57074 7.68162 146.67532 Q 9.277751 144.77994 9.8763 144.02176 Q 10.11572 143.74245 9.99601 143.34341 Z M 16.220919 161.57921 L 18.81463 173.35068 Q 18.934341 173.86942 19.53289 173.86942 Q 19.692503 173.86942 19.812214 173.8295 Q 21.448246 173.15115 22.525635 171.19589 Q 23.603024 169.24063 23.603024 167.32527 Q 23.603024 164.53204 21.96699 162.61668 Q 20.291052 160.66142 16.939178 160.66142 Q 16.659855 160.66142 16.440388 160.88089 Q 16.220919 161.10037 16.220919 161.37968 Q 16.181017 161.49939 16.220919 161.57921 Z M 10.714269 150.4861 Q 10.075816 151.20435 8.818864 152.5411 Q 7.56191 153.87787 6.94341 154.57617 Q 6.324909 155.27449 5.427086 156.55139 Q 4.529262 157.8283 4.0903263 158.90569 Q 3.6513906 159.98308 3.3122127 161.5393 Q 2.9730349 163.09552 2.9730349 164.85127 Q 2.9730349 167.28537 4.4694076 169.55986 Q 5.96578 171.83435 8.579444 173.27086 Q 11.193108 174.70737 14.185853 174.70737 Q 15.263241 174.70737 16.58005 174.58768 Q 16.899275 174.54776 17.098791 174.28839 Q 17.298307 174.02902 17.2185 173.70981 L 14.624788 161.77872 Q 14.505079 161.22008 13.866627 161.22008 Q 13.746917 161.22008 13.587304 161.25998 Q 11.751754 161.93832 10.993591 163.17534 Q 10.23543 164.41234 10.23543 166.28778 Q 10.23543 168.48247 12.629625 170.0786 Q 12.908948 170.2781 12.908948 170.67715 Q 12.908948 170.99637 12.649577 171.2757 Q 12.390205 171.55502 12.031076 171.55502 Q 11.83156 171.55502 11.6719475 171.47522 Q 9.397461 170.2781 8.300121 168.2231 Q 7.202781 166.16808 7.202781 163.89359 Q 7.202781 161.69891 8.77896 159.36456 Q 10.35514 157.03023 12.709432 156.15236 Q 13.307981 155.91293 13.1882715 155.31439 L 11.991173 150.80533 Q 11.911366 150.3664 11.432528 150.28658 Q 10.953689 150.20677 10.714269 150.4861 Z M 17.418016 127.26239 Q 17.098791 126.224915 16.34063 126.224915 Q 16.10121 126.224915 15.901693 126.34462 Q 13.347884 127.86095 11.851512 130.61427 Q 10.35514 133.3676 10.35514 136.44016 Q 10.35514 138.4353 11.193108 141.34825 Q 11.312818 141.78719 11.7916565 141.86699 Q 12.190689 141.90689 12.470013 141.58768 Q 12.589723 141.42805 13.607255 140.17111 Q 14.624788 138.91415 14.944015 138.49516 Q 15.263241 138.07617 16.021402 136.89903 Q 16.779566 135.7219 17.07884 134.94377 Q 17.378115 134.16566 17.657436 133.00847 Q 17.93676 131.85127 17.93676 130.69408 Q 17.93676 129.01814 17.418016 127.26239 Z " fill="black"/>
    <path d="M 35.1 157.24547 Q 35.1 154.85127 37.733616 152.63664 Q 40.36723 150.42201 43.120556 150.42201 Q 44.237846 150.42201 45.255383 150.70132 Q 46.272915 150.98065 47.19069 151.97824 Q 48.108463 152.97581 48.108463 154.53204 Q 48.108463 156.72672 45.434944 159.0411 Q 42.761425 161.3555 40.087906 161.3555 Q 38.970615 161.3555 37.953083 161.07617 Q 36.93555 160.79686 36.017776 159.79927 Q 35.1 158.8017 35.1 157.24547 Z " fill="black"/>
    <rect x="30.1" y="145.87424" width="5" height="20" fill="gray"/>
    <rect x="54.1" y="155.87424" width="1" height="1" fill="orange"/>
    <path d="M 73.1 157.24547 Q 73.1 154.85127 75.73361 152.63664 Q 78.36723 150.42201 81.12056 150.42201 Q 82.23785 150.42201 83.25538 150.70132 Q 84.27292 150.98065 85.19069 151.97824 Q 86.10847 152.97581 86.10847 154.53204 Q 86.10847 156.72672 83.434944 159.0411 Q 80.76143 161.3555 78.087906 161.3555 Q 76.97062 161.3555 75.95309 161.07617 Q 74.93555 160.79686 74.01778 159.79927 Q 73.1 158.8017 73.1 157.24547 Z " fill="black"/>
    <rect x="96.1" y="155.87424" width="1" height="1" fill="orange"/>
    <path d="M 115.1 157.24547 Q 115.1 154.85127 117.73361 152.63664 Q 120.36723 150.42201 123.12056 150.42201 Q 124.23785 150.42201 125.25538 150.70132 Q 126.27292 150.98065 127.19069 151.97824 Q 128.10846 152.97581 128.10846 154.53204 Q 128.10846 156.72672 125.434944 159.0411 Q 122.76143 161.3555 120.087906 161.3555 Q 118.97062 161.3555 117.95309 161.07617 Q 116.93555 160.79686 116.01778 159.79927 Q 115.1 158.8017 115.1 157.24547 Z " fill="black"/>
    <path d="M 140.6 157.24547 Q 140.6 154.85127 143.23361 152.63664 Q 145.86723 150.42201 148.62056 150.42201 Q 149.73785 150.42201 150.75539 150.70132 Q 151.77292 150.98065 152.69069 151.97824 Q 153.60846 152.97581 153.60846 154.53204 Q 153.60846 156.72672 150.93495 159.0411 Q 148.26143 161.3555 145.5879 161.3555 Q 144.47061 161.3555 143.45308 161.07617 Q 142.43555 160.79686 141.51778 159.79927 Q 140.6 158.8017 140.6 157.24547 Z " fill="black"/>
    <path d="M 140.6 182.24547 Q 140.6 179.85127 143.23361 177.63664 Q 145.86723 175.42201 148.62056 175.42201 Q 149.73785 175.42201 150.75539 175.70132 Q 151.77292 175.98065 152.69069 176.97824 Q 153.60846 177.97581 153.60846 179.53204 Q 153.60846 181.72672 150.93495 184.0411 Q 148.26143 186.3555 145.5879 186.3555 Q 144.47061 186.3555 143.45308 186.07617 Q 142.43555 185.79686 141.51778 184.79927 Q 140.6 183.8017 140.6 182.24547 Z " fill="black"/>
    <path d="M 136.7191 152.05804 L 136.7191 156.92624 Q 136.7191 157.24547 136.91862 157.44498 Q 137.11813 157.6445 137.43736 157.6445 Q 137.55707 157.6445 137.67679 157.6046 L 137.996 157.4849 Q 138.11572 157.44498 138.27533 157.44498 Q 138.59456 157.44498 138.83398 157.6844 Q 139.0734 157.92383 139.0734 158.24304 L 139.0734 160.63724 Q 139.0734 161.15598 138.55466 161.3555 L 137.19794 161.87424 Q 136.7191 162.07376 136.7191 162.5127 L 136.7191 168.33856 Q 136.7191 168.6578 136.49963 168.87726 Q 136.28017 169.09674 136.00085 169.09674 Q 135.68163 169.09674 135.46216 168.87726 Q 135.24269 168.6578 135.24269 168.33856 L 135.24269 163.59009 Q 135.24269 163.27086 135.02322 163.07135 Q 134.80374 162.87183 134.52443 162.87183 Q 134.3648 162.87183 134.2451 162.91173 L 132.40955 163.62999 Q 131.93071 163.78961 131.93071 164.26843 L 131.93071 170.09433 Q 131.93071 170.41354 131.6913 170.63301 Q 131.45187 170.85248 131.17255 170.85248 Q 130.89323 170.85248 130.67377 170.63301 Q 130.4543 170.41354 130.4543 170.09433 L 130.4543 165.34583 Q 130.4543 165.02661 130.23482 164.82709 Q 130.01535 164.62756 129.73604 164.62756 Q 129.61632 164.62756 129.49661 164.66748 L 129.17738 164.78719 Q 129.09758 164.82709 128.89807 164.82709 Q 128.57884 164.82709 128.33942 164.58768 Q 128.1 164.34824 128.1 164.02902 L 128.1 161.63483 Q 128.1 161.07617 128.61874 160.87666 L 129.97545 160.39783 Q 130.4543 160.2781 130.4543 159.71947 L 130.4543 154.85127 Q 130.4543 154.53204 130.23482 154.33252 Q 130.01535 154.13301 129.73604 154.13301 Q 129.61632 154.13301 129.53651 154.17291 L 129.17738 154.29263 Q 129.09758 154.33252 128.89807 154.33252 Q 128.57884 154.33252 128.33942 154.09311 Q 128.1 153.8537 128.1 153.53445 L 128.1 151.14026 Q 128.1 150.62152 128.61874 150.42201 L 130.01535 149.90326 Q 130.4543 149.70375 130.4543 149.26482 L 130.4543 143.43893 Q 130.4543 143.11972 130.67377 142.90024 Q 130.89323 142.68077 131.17255 142.68077 Q 131.45187 142.68077 131.6913 142.90024 Q 131.93071 143.11972 131.93071 143.43893 L 131.93071 148.18742 Q 131.93071 148.50665 132.15018 148.70618 Q 132.36964 148.90569 132.68887 148.90569 Q 132.80858 148.90569 132.9283 148.86578 L 134.76384 148.14752 Q 135.24269 147.948 135.24269 147.46916 L 135.24269 141.6832 Q 135.24269 141.36397 135.46216 141.1445 Q 135.68163 140.92503 136.00085 140.92503 Q 136.28017 140.92503 136.49963 141.1445 Q 136.7191 141.36397 136.7191 141.6832 L 136.7191 146.47159 Q 136.7191 146.75092 136.91862 146.95042 Q 137.11813 147.14993 137.39746 147.14993 Q 137.51717 147.14993 137.67679 147.11005 L 137.996 146.99033 Q 138.07582 146.95042 138.27533 146.95042 Q 138.59456 146.95042 138.83398 147.18985 Q 139.0734 147.42926 139.0734 147.74849 L 139.0734 150.14268 Q 139.0734 150.70132 138.55466 150.90085 L 137.19794 151.37968 Q 136.7191 151.49939 136.7191 152.05804 Z M 135.24269 157.96373 L 135.24269 153.13544 Q 135.24269 152.85611 135.02322 152.63664 Q 134.80374 152.41718 134.52443 152.41718 Q 134.40471 152.41718 134.285 152.45708 L 132.40955 153.13544 Q 131.93071 153.33495 131.93071 153.81378 L 131.93071 158.64209 Q 131.93071 158.9613 132.13023 159.16083 Q 132.32974 159.36034 132.64897 159.36034 Q 132.76868 159.36034 132.8884 159.32043 L 134.76384 158.64209 Q 135.24269 158.44257 135.24269 157.96373 Z " fill="black"/>
    <path d="M 119.93555 184.32043 Q 119.93555 184.79929 120.33458 184.9589 Q 120.81342 185.15842 121.132645 184.83917 Q 123.766266 182.44498 123.766266 179.41234 Q 123.766266 178.33495 123.30737 177.53688 Q 122.84849 176.73882 122.05042 176.73882 Q 121.172554 176.73882 120.61391 177.49698 Q 120.05526 178.25514 120.01536 179.25272 L 119.93555 184.32043 Z M 121.05284 175.50182 Q 122.728775 174.66385 123.80617 174.66385 Q 125.322495 174.66385 126.240265 175.86095 Q 127.15804 177.05804 127.15804 178.73398 Q 127.15804 179.89117 126.81886 180.8289 Q 126.47968 181.76663 125.76143 182.54474 Q 125.04317 183.32285 124.42467 183.8416 Q 123.80617 184.36034 122.808586 185.09854 Q 121.811005 185.83676 121.29226 186.2757 Q 121.09274 186.4353 120.77352 186.87424 Q 120.45429 187.31317 120.15502 187.55261 Q 119.85574 187.79202 119.49661 187.79202 Q 119.09758 187.79202 118.83821 187.5127 Q 118.57884 187.23337 118.57884 186.79443 L 118.1 162.65295 Q 118.618744 162.33374 119.17739 162.33374 Q 119.73603 162.33374 120.254776 162.65295 L 120.01536 174.86337 Q 120.01536 175.26239 120.33458 175.46191 Q 120.69371 175.70132 121.05284 175.50182 Z " fill="black"/>
    <path d="M 155.8 157.24547 Q 155.8 154.85127 158.43361 152.63664 Q 161.06723 150.42201 163.82056 150.42201 Q 164.93785 150.42201 165.95538 150.70132 Q 166.97292 150.98065 167.89069 151.97824 Q 168.80846 152.97581 168.80846 154.53204 Q 168.80846 156.72672 166.13495 159.0411 Q 163.46143 161.3555 160.7879 161.3555 Q 159.67061 161.3555 158.65308 161.07617 Q 157.63554 160.79686 156.71777 159.79927 Q 155.8 158.8017 155.8 157.24547 Z " fill="black"/>
    <rect x="168.8" y="150.87424" width="10" height="10" fill="green"/>
    <path d="M 178.8 157.24547 Q 178.8 154.85127 181.43361 152.63664 Q 184.06723 150.42201 186.82056 150.42201 Q 187.93785 150.42201 188.95538 150.70132 Q 189.97292 150.98065 190.89069 151.97824 Q 191.80846 152.97581 191.80846 154.53204 Q 191.80846 156.72672 189.13495 159.0411 Q 186.46143 161.3555 183.7879 161.3555 Q 182.67061 161.3555 181.65308 161.07617 Q 180.63554 160.79686 179.71777 159.79927 Q 178.8 158.8017 178.8 157.24547 Z " fill="black"/>
    <path d="M 194 157.24547 Q 194 154.85127 196.6336 152.63664 Q 199.26723 150.42201 202.02055 150.42201 Q 203.13785 150.42201 204.15538 150.70132 Q 205.17291 150.98065 206.09068 151.97824 Q 207.00845 152.97581 207.00845 154.53204 Q 207.00845 156.72672 204.33495 159.0411 Q 201.66142 161.3555 198.9879 161.3555 Q 197.8706 161.3555 196.85307 161.07617 Q 195.83554 160.79686 194.91777 159.79927 Q 194 158.8017 194 157.24547 Z " fill="black"/>
    <line x1="0" y1="35.874245" x2="0.1" y2="215.87424" stroke="rgba(0,0,0,0.2)" stroke-width="0.2"/>
    <line x1="35" y1="35.874245" x2="35.1" y2="215.87424" stroke="rgba(0,0,0,0.2)" stroke-width="0.2"/>
    <line x1="54" y1="35.874245" x2="54.1" y2="215.87424" stroke="rgba(0,0,0,0.2)" stroke-width="0.2"/>
    <line x1="73" y1="35.874245" x2="73.1" y2="215.87424" stroke="rgba(0,0,0,0.2)" stroke-width="0.2"/>
    <line x1="96" y1="35.874245" x2="96.1" y2="215.87424" stroke="rgba(0,0,0,0.2)" stroke-width="0.2"/>
    <line x1="115" y1="35.874245" x2="115.1" y2="215.87424" stroke="rgba(0,0,0,0.2)" stroke-width="0.2"/>
    <line x1="140.5" y1="35.874245" x2="140.6" y2="215.87424" stroke="rgba(0,0,0,0.2)" stroke-width="0.2"/>
    <line x1="155.7" y1="35.874245" x2="155.8" y2="215.87424" stroke="rgba(0,0,0,0.2)" stroke-width="0.2"/>
    <line x1="178.7" y1="35.874245" x2="178.8" y2="215.87424" stroke="rgba(0,0,0,0.2)" stroke-width="0.2"/>
    <line x1="193.9" y1="35.874245" x2="194" y2="215.87424" stroke="rgba(0,0,0,0.2)" stroke-width="0.2"/>
    <line x1="220.5" y1="35.874245" x2="220.6" y2="215.87424" stroke="rgba(0,0,0,0.2)" stroke-width="0.2"/>
</svg>
