<svg xmlns="http://www.w3.org/2000/svg" xmlns:xlink="http://www.w3.org/1999/xlink" width="126" height="153.66144" viewBox="0 0 126 153.66144">
    <rect x="0" y="0" width="126" height="153.66144" fill="white"/>
    <line x1="0" y1="15.874245" x2="38" y2="15.874245" stroke="black" stroke-width="1"/>
    <line x1="0" y1="25.874245" x2="38" y2="25.874245" stroke="black" stroke-width="1"/>
    <line x1="0" y1="35.874245" x2="38" y2="35.874245" stroke="black" stroke-width="1"/>
    <line x1="0" y1="45.874245" x2="38" y2="45.874245" stroke="black" stroke-width="1"/>
    <line x1="0" y1="55.874245" x2="38" y2="55.874245" stroke="black" stroke-width="1"/>
    <line x1="38" y1="15.874245" x2="60" y2="15.874245" stroke="black" stroke-width="1"/>
    <line x1="38" y1="25.874245" x2="60" y2="25.874245" stroke="black" stroke-width="1"/>
    <line x1="38" y1="35.874245" x2="60" y2="35.874245" stroke="black" stroke-width="1"/>
    <line x1="38" y1="45.874245" x2="60" y2="45.874245" stroke="black" stroke-width="1"/>
    <line x1="38" y1="55.874245" x2="60" y2="55.874245" stroke="black" stroke-width="1"/>
    <line x1="60" y1="15.874245" x2="82" y2="15.874245" stroke="black" stroke-width="1"/>
    <line x1="60" y1="25.874245" x2="82" y2="25.874245" stroke="black" stroke-width="1"/>
    <line x1="60" y1="35.874245" x2="82" y2="35.874245" stroke="black" stroke-width="1"/>
    <line x1="60" y1="45.874245" x2="82" y2="45.874245" stroke="black" stroke-width="1"/>
    <line x1="60" y1="55.874245" x2="82" y2="55.874245" stroke="black" stroke-width="1"/>
    <line x1="82" y1="15.874245" x2="104" y2="15.874245" stroke="black" stroke-width="1"/>
    <line x1="82" y1="25.874245" x2="104" y2="25.874245" stroke="black" stroke-width="1"/>
    <line x1="82" y1="35.874245" x2="104" y2="35.874245" stroke="black" stroke-width="1"/>
    <line x1="82" y1="45.874245" x2="104" y2="45.874245" stroke="black" stroke-width="1"/>
    <line x1="82" y1="55.874245" x2="104" y2="55.874245" stroke="black" stroke-width="1"/>
    <line x1="104" y1="15.874245" x2="126" y2="15.874245" stroke="black" stroke-width="1"/>
    <line x1="104" y1="25.874245" x2="126" y2="25.874245" stroke="black" stroke-width="1"/>
    <line x1="104" y1="35.874245" x2="126" y2="35.874245" stroke="black" stroke-width="1"/>
    <line x1="104" y1="45.874245" x2="126" y2="45.874245" stroke="black" stroke-width="1"/>
    <line x1="104" y1="55.874245" x2="126" y2="55.874245" stroke="black" stroke-width="1"/>
    <line x1="0" y1="95.874245" x2="38" y2="95.874245" stroke="black" stroke-width="1"/>
    <line x1="0" y1="105.874245" x2="38" y2="105.874245" stroke="black" stroke-width="1"/>
    <line x1="0" y1="115.874245" x2="38" y2="115.874245" stroke="black" stroke-width="1"/>
    <line x1="0" y1="125.874245" x2="38" y2="125.874245" stroke="black" stroke-width="1"/>
    <line x1="0" y1="135.87424" x2="38" y2="135.87424" stroke="black" stroke-width="1"/>
    <line x1="38" y1="95.874245" x2="60" y2="95.874245" stroke="black" stroke-width="1"/>
    <line x1="38" y1="105.874245" x2="60" y2="105.874245" stroke="black" stroke-width="1"/>
    <line x1="38" y1="115.874245" x2="60" y2="115.874245" stroke="black" stroke-width="1"/>
    <line x1="38" y1="125.874245" x2="60" y2="125.874245" stroke="black" stroke-width="1"/>
    <line x1="38" y1="135.87424" x2="60" y2="135.87424" stroke="black" stroke-width="1"/>
    <line x1="60" y1="95.874245" x2="82" y2="95.874245" stroke="black" stroke-width="1"/>
    <line x1="60" y1="105.874245" x2="82" y2="105.874245" stroke="black" stroke-width="1"/>
    <line x1="60" y1="115.874245" x2="82" y2="115.874245" stroke="black" stroke-width="1"/>
    <line x1="60" y1="125.874245" x2="82" y2="125.874245" stroke="black" stroke-width="1"/>
    <line x1="60" y1="135.87424" x2="82" y2="135.87424" stroke="black" stroke-width="1"/>
    <line x1="82" y1="95.874245" x2="104" y2="95.874245" stroke="black" stroke-width="1"/>
    <line x1="82" y1="105.874245" x2="104" y2="105.874245" stroke="black" stroke-width="1"/>
    <line x1="82" y1="115.874245" x2="104" y2="115.874245" stroke="black" stroke-width="1"/>
    <line x1="82" y1="125.874245" x2="104" y2="125.874245" stroke="black" stroke-width="1"/>
    <line x1="82" y1="135.87424" x2="104" y2="135.87424" stroke="black" stroke-width="1"/>
    <line x1="104" y1="95.874245" x2="126" y2="95.874245" stroke="black" stroke-width="1"/>
    <line x1="104" y1="105.874245" x2="126" y2="105.874245" stroke="black" stroke-width="1"/>
    <line x1="104" y1="115.874245" x2="126" y2="115.874245" stroke="black" stroke-width="1"/>
    <line x1="104" y1="125.874245" x2="126" y2="125.874245" stroke="black" stroke-width="1"/>
    <line x1="104" y1="135.87424" x2="126" y2="135.87424" stroke="black" stroke-width="1"/>
    <path d="M 9.896009 23.343414 Q 8.978234 20.430473 8.619105 18.15599 Q 8.299879 16.240631 8.299879 13.686821 Q 8.299879 12.8089485 8.339783 11.931076 Q 8.499395 8.140266 9.896009 4.9679565 Q 11.2926235 1.7956467 14.085853 0.11971283 Q 14.285369 0 14.604595 0 Q 14.883918 0 15.083434 0.1995163 Q 17.318016 2.434101 18.515114 5.9056854 Q 19.712214 9.37727 19.712214 12.928658 Q 19.712214 17.038696 17.956469 20.98912 Q 16.280533 24.939545 13.247884 27.97219 Q 13.008464 28.211609 13.088271 28.610641 L 14.6844015 34.995163 Q 14.8041115 35.63362 15.482467 35.55381 Q 16.120918 35.474 16.719467 35.474 Q 19.033857 35.474 20.909311 36.391777 Q 22.784763 37.309555 23.94196 38.785973 Q 25.099154 40.26239 25.717653 42.038086 Q 26.336155 43.81378 26.336155 45.68924 Q 26.336155 49.12092 24.420797 51.894196 Q 22.505442 54.667473 19.831923 55.54534 Q 19.273277 55.744865 19.392986 56.383316 Q 20.390568 61.091896 20.430471 64.324066 Q 20.430471 65.561066 20.270859 66.75816 Q 19.951632 69.51149 17.876663 71.58646 Q 15.801693 73.66143 12.928658 73.66143 Q 9.417171 73.66143 6.9830713 71.546555 Q 4.548972 69.43168 4.548972 66 Q 4.548972 64.244255 5.7859735 62.967354 Q 7.0229745 61.690453 8.698912 61.690453 Q 10.414752 61.690453 11.591898 62.907494 Q 12.769045 64.12455 12.769045 65.80048 Q 12.769045 67.237 11.811366 68.31439 Q 10.853688 69.43168 9.496977 69.55139 Q 9.018138 69.59129 8.858524 70.030235 Q 8.698912 70.46917 9.177751 70.8283 Q 10.614268 71.94559 12.689239 71.94559 Q 14.963724 71.94559 16.619709 70.309555 Q 18.275696 68.673515 18.555017 66.59855 Q 18.754534 65.16203 18.754534 63.725517 Q 18.754534 60.61306 17.796856 56.82225 Q 17.637243 56.143898 16.918983 56.2237 Q 15.322853 56.423218 13.966143 56.423218 Q 8.060459 56.423218 4.0302296 52.71221 Q 0 49.001205 0 42.616684 Q 0 40.661423 0.45888755 38.76602 Q 0.9177751 36.87062 1.4963725 35.493958 Q 2.0749698 34.117294 3.2920194 32.301697 Q 4.509069 30.4861 5.247279 29.52842 Q 5.98549 28.57074 7.58162 26.675331 Q 9.177751 24.77993 9.776299 24.021767 Q 10.015719 23.742447 9.896009 23.343414 Z M 16.120918 41.57921 L 18.71463 53.35067 Q 18.834341 53.869408 19.43289 53.869408 Q 19.592503 53.869408 19.712214 53.829506 Q 21.348246 53.151146 22.425634 51.195885 Q 23.503023 49.24063 23.503023 47.32527 Q 23.503023 44.532043 21.86699 42.616684 Q 20.191051 40.661423 16.839178 40.661423 Q 16.559855 40.661423 16.340387 40.880898 Q 16.120918 41.100365 16.120918 41.379684 Q 16.081017 41.499397 16.120918 41.57921 Z M 10.614268 30.4861 Q 9.975816 31.204353 8.7188635 32.541115 Q 7.4619102 33.87787 6.84341 34.57618 Q 6.2249093 35.27449 5.327086 36.55139 Q 4.429262 37.828293 3.9903264 38.905685 Q 3.5513906 39.983078 3.2122128 41.5393 Q 2.873035 43.095528 2.873035 44.851273 Q 2.873035 47.28537 4.3694077 49.55986 Q 5.86578 51.834343 8.479444 53.27086 Q 11.093107 54.707375 14.085853 54.707375 Q 15.16324 54.707375 16.48005 54.58767 Q 16.799274 54.547768 16.99879 54.28839 Q 17.198307 54.029022 17.1185 53.7098 L 14.524788 41.778717 Q 14.405079 41.220078 13.766626 41.220078 Q 13.646916 41.220078 13.487304 41.25998 Q 11.651753 41.93833 10.893591 43.17534 Q 10.135429 44.41234 10.135429 46.28779 Q 10.135429 48.482468 12.529625 50.078598 Q 12.808948 50.278114 12.808948 50.677147 Q 12.808948 50.996376 12.549577 51.275696 Q 12.290205 51.555016 11.931076 51.555016 Q 11.73156 51.555016 11.571947 51.475212 Q 9.297461 50.278114 8.200121 48.2231 Q 7.1027813 46.168076 7.1027813 43.893593 Q 7.1027813 41.698914 8.67896 39.36457 Q 10.255139 37.030228 12.609431 36.15236 Q 13.20798 35.91294 13.088271 35.314392 L 11.891172 30.80532 Q 11.811366 30.366386 11.332527 30.286575 Q 10.853688 30.206772 10.614268 30.4861 Z M 17.318016 7.262394 Q 16.99879 6.2249107 16.24063 6.2249107 Q 16.00121 6.2249107 15.801693 6.3446198 Q 13.247884 7.860943 11.751512 10.614269 Q 10.255139 13.367596 10.255139 16.440147 Q 10.255139 18.43531 11.093107 21.348251 Q 11.212817 21.787186 11.691656 21.86699 Q 12.090689 21.90689 12.370012 21.58767 Q 12.489722 21.428055 13.507255 20.171104 Q 14.524788 18.914146 14.844014 18.495163 Q 15.16324 18.07618 15.921403 16.899033 Q 16.679565 15.721886 16.97884 14.943771 Q 17.278114 14.165665 17.557436 13.008465 Q 17.83676 11.851273 17.83676 10.694077 Q 17.83676 9.018139 17.318016 7.262394 Z " fill="black"/>
    <path d="M 38 37.24547 Q 38 34.851273 40.633614 32.636642 Q 43.26723 30.422012 46.020557 30.422012 Q 47.137848 30.422012 48.15538 30.701332 Q 49.172913 30.980652 50.09069 31.978241 Q 51.008465 32.975815 51.008465 34.532043 Q 51.008465 36.726723 48.334946 39.041115 Q 45.661427 41.355507 42.987907 41.355507 Q 41.870617 41.355507 40.853085 41.07618 Q 39.83555 40.79686 38.917774 39.79927 Q 38 38.801697 38 37.24547 Z " fill="black"/>
    <rect x="49.571426" y="0.8742447" width="1.4285715" height="35" fill="black"/>
    <rect x="30" y="25.874245" width="8" height="20" fill="gray"/>
    <path d="M 60 42.24547 Q 60 39.851273 62.633614 37.636642 Q 65.26723 35.422012 68.02055 35.422012 Q 69.13785 35.422012 70.15538 35.701332 Q 71.17291 35.98065 72.09069 36.97824 Q 73.00846 37.975815 73.00846 39.532043 Q 73.00846 41.726723 70.334946 44.041115 Q 67.66142 46.355507 64.98791 46.355507 Q 63.870617 46.355507 62.853085 46.07618 Q 61.83555 45.79686 60.917774 44.79927 Q 60 43.801697 60 42.24547 Z " fill="black"/>
    <rect x="71.57143" y="5.8742447" width="1.4285715" height="35" fill="black"/>
    <rect x="71.57143" y="5.8742447" width="10" height="20" fill="orange"/>
    <path d="M 82 47.24547 Q 82 44.851273 84.63361 42.636642 Q 87.26723 40.422012 90.02055 40.422012 Q 91.13785 40.422012 92.15538 40.701332 Q 93.17291 40.98065 94.09069 41.97824 Q 95.00846 42.975815 95.00846 44.532043 Q 95.00846 46.726723 92.334946 49.041115 Q 89.66142 51.355507 86.98791 51.355507 Q 85.87061 51.355507 84.85308 51.07618 Q 83.83555 50.79686 82.91778 49.79927 Q 82 48.801697 82 47.24547 Z " fill="black"/>
    <rect x="93.57143" y="10.874245" width="1.4285715" height="35" fill="black"/>
    <path d="M 110.26482 33.295044 Q 108.588875 33.73398 107.47158 33.73398 Q 106.07497 33.73398 105.03748 32.83615 Q 104 31.938332 104 30.58162 Q 104 29.384521 104.85792 28.546555 Q 105.71584 27.708588 106.91294 27.708588 Q 107.6711 27.708588 108.289604 28.127571 Q 108.908104 28.546555 109.14752 29.264816 Q 109.227325 29.504234 109.38694 30.282349 Q 109.546555 31.060455 109.78597 31.339783 Q 110.02539 31.61911 110.544136 31.61911 Q 110.98307 31.61911 111.84099 30.64148 Q 112.69891 29.663849 112.97823 29.105202 Q 113.13785 28.74607 113.53688 28.74607 Q 113.93591 28.74607 114.09553 29.105202 L 109.18742 45.86457 Q 108.74849 46.263603 108.11004 46.263603 Q 107.43168 46.263603 106.992744 45.86457 L 111.142685 34.252724 Q 111.3023 33.81378 111.02297 33.534462 Q 110.70375 33.13543 110.26482 33.295044 Z " fill="black"/>
    <path d="M 9.896009 103.343414 Q 8.978234 100.43047 8.619105 98.15599 Q 8.299879 96.24063 8.299879 93.68682 Q 8.299879 92.808945 8.339783 91.931076 Q 8.499395 88.14027 9.896009 84.96796 Q 11.2926235 81.79565 14.085853 80.11971 Q 14.285369 80 14.604595 80 Q 14.883918 80 15.083434 80.19952 Q 17.318016 82.4341 18.515114 85.905685 Q 19.712214 89.37727 19.712214 92.92866 Q 19.712214 97.0387 17.956469 100.98912 Q 16.280533 104.939545 13.247884 107.97219 Q 13.008464 108.21161 13.088271 108.61064 L 14.6844015 114.99516 Q 14.8041115 115.63362 15.482467 115.55381 Q 16.120918 115.474 16.719467 115.474 Q 19.033857 115.474 20.909311 116.39178 Q 22.784763 117.309555 23.94196 118.78597 Q 25.099154 120.26239 25.717653 122.038086 Q 26.336155 123.81378 26.336155 125.68924 Q 26.336155 129.12091 24.420797 131.8942 Q 22.505442 134.66748 19.831923 135.54535 Q 19.273277 135.74487 19.392986 136.38332 Q 20.390568 141.09189 20.430471 144.32407 Q 20.430471 145.56107 20.270859 146.75816 Q 19.951632 149.51149 17.876663 151.58646 Q 15.801693 153.66144 12.928658 153.66144 Q 9.417171 153.66144 6.9830713 151.54655 Q 4.548972 149.43167 4.548972 146 Q 4.548972 144.24426 5.7859735 142.96735 Q 7.0229745 141.69046 8.698912 141.69046 Q 10.414752 141.69046 11.591898 142.9075 Q 12.769045 144.12454 12.769045 145.80048 Q 12.769045 147.237 11.811366 148.31439 Q 10.853688 149.43167 9.496977 149.55139 Q 9.018138 149.5913 8.858524 150.03024 Q 8.698912 150.46918 9.177751 150.82831 Q 10.614268 151.94559 12.689239 151.94559 Q 14.963724 151.94559 16.619709 150.30956 Q 18.275696 148.67352 18.555017 146.59854 Q 18.754534 145.16203 18.754534 143.72552 Q 18.754534 140.61307 17.796856 136.82225 Q 17.637243 136.14389 16.918983 136.2237 Q 15.322853 136.42322 13.966143 136.42322 Q 8.060459 136.42322 4.0302296 132.71222 Q 0 129.0012 0 122.616684 Q 0 120.66142 0.45888755 118.76602 Q 0.9177751 116.87062 1.4963725 115.49396 Q 2.0749698 114.117294 3.2920194 112.3017 Q 4.509069 110.4861 5.247279 109.52842 Q 5.98549 108.57074 7.58162 106.67533 Q 9.177751 104.77993 9.776299 104.02177 Q 10.015719 103.74245 9.896009 103.343414 Z M 16.120918 121.57921 L 18.71463 133.35068 Q 18.834341 133.86942 19.43289 133.86942 Q 19.592503 133.86942 19.712214 133.8295 Q 21.348246 133.15115 22.425634 131.19589 Q 23.503023 129.24063 23.503023 127.32527 Q 23.503023 124.53204 21.86699 122.616684 Q 20.191051 120.66142 16.839178 120.66142 Q 16.559855 120.66142 16.340387 120.8809 Q 16.120918 121.100365 16.120918 121.379684 Q 16.081017 121.4994 16.120918 121.57921 Z M 10.614268 110.4861 Q 9.975816 111.20435 8.7188635 112.541115 Q 7.4619102 113.87787 6.84341 114.57618 Q 6.2249093 115.27449 5.327086 116.55139 Q 4.429262 117.82829 3.9903264 118.905685 Q 3.5513906 119.98308 3.2122128 121.5393 Q 2.873035 123.09553 2.873035 124.85127 Q 2.873035 127.28537 4.3694077 129.55986 Q 5.86578 131.83435 8.479444 133.27086 Q 11.093107 134.70737 14.085853 134.70737 Q 15.16324 134.70737 16.48005 134.58768 Q 16.799274 134.54776 16.99879 134.28839 Q 17.198307 134.02902 17.1185 133.70981 L 14.524788 121.77872 Q 14.405079 121.22008 13.766626 121.22008 Q 13.646916 121.22008 13.487304 121.25998 Q 11.651753 121.93833 10.893591 123.17534 Q 10.135429 124.41234 10.135429 126.28779 Q 10.135429 128.48247 12.529625 130.0786 Q 12.808948 130.2781 12.808948 130.67715 Q 12.808948 130.99637 12.549577 131.2757 Q 12.290205 131.55502 11.931076 131.55502 Q 11.73156 131.55502 11.571947 131.47522 Q 9.297461 130.2781 8.200121 128.2231 Q 7.1027813 126.168076 7.1027813 123.89359 Q 7.1027813 121.69891 8.67896 119.36457 Q 10.255139 117.03023 12.609431 116.15236 Q 13.20798 115.91294 13.088271 115.31439 L 11.891172 110.80532 Q 11.811366 110.36639 11.332527 110.286575 Q 10.853688 110.20677 10.614268 110.4861 Z M 17.318016 87.26239 Q 16.99879 86.224915 16.24063 86.224915 Q 16.00121 86.224915 15.801693 86.34462 Q 13.247884 87.86095 11.751512 90.61427 Q 10.255139 93.3676 10.255139 96.44015 Q 10.255139 98.43531 11.093107 101.34825 Q 11.212817 101.787186 11.691656 101.86699 Q 12.090689 101.90689 12.370012 101.58767 Q 12.489722 101.428055 13.507255 100.171104 Q 14.524788 98.91415 14.844014 98.49516 Q 15.16324 98.07618 15.921403 96.89903 Q 16.679565 95.721886 16.97884 94.94377 Q 17.278114 94.165665 17.557436 93.00847 Q 17.83676 91.85127 17.83676 90.69408 Q 17.83676 89.01814 17.318016 87.26239 Z " fill="black"/>
    <path d="M 38 117.24547 Q 38 114.85127 40.633614 112.63664 Q 43.26723 110.42201 46.020557 110.42201 Q 47.137848 110.42201 48.15538 110.70133 Q 49.172913 110.98065 50.09069 111.97824 Q 51.008465 112.975815 51.008465 114.53204 Q 51.008465 116.72672 48.334946 119.041115 Q 45.661427 121.35551 42.987907 121.35551 Q 41.870617 121.35551 40.853085 121.07618 Q 39.83555 120.79686 38.917774 119.79927 Q 38 118.8017 38 117.24547 Z " fill="black"/>
    <rect x="38" y="115.874245" width="1.4285715" height="35" fill="black"/>
    <rect x="30" y="105.874245" width="8" height="20" fill="gray"/>
    <rect x="60" y="115.874245" width="1" height="1" fill="orange"/>
    <rect x="82" y="115.874245" width="1" height="1" fill="orange"/>
    <rect x="104" y="115.874245" width="1" height="1" fill="orange"/>
</svg>
