<svg xmlns="http://www.w3.org/2000/svg" xmlns:xlink="http://www.w3.org/1999/xlink" width="73.60846" height="155.87424" viewBox="0 0 73.60846 155.87424">
    <rect x="0" y="0" width="73.60846" height="155.87424" fill="white"/>
    <rect x="0.1" y="15.874245" width="30" height="40" fill="lightgray"/>
    <path d="M 0.1 56.3676 L 0.1 55.37001 L 40.00326 55.37001 L 40.00326 56.3676 L 0.1 56.3676 Z M 0.1 46.391777 L 0.1 45.394196 L 40.00326 45.394196 L 40.00326 46.391777 L 0.1 46.391777 Z M 0.1 36.415962 L 0.1 35.41838 L 40.00326 35.41838 L 40.00326 36.415962 L 0.1 36.415962 Z M 0.1 26.440147 L 0.1 25.442566 L 40.00326 25.442566 L 40.00326 26.440147 L 0.1 26.440147 Z M 0.1 16.464329 L 0.1 15.466747 L 40.00326 15.466747 L 40.00326 16.464329 L 0.1 16.464329 Z " fill="red"/>
    <path d="M 9.99601 23.343414 Q 9.078235 20.430473 8.719106 18.15599 Q 8.399879 16.240631 8.399879 13.686821 Q 8.399879 12.8089485 8.439783 11.931076 Q 8.599396 8.140266 9.99601 4.9679565 Q 11.392624 1.7956467 14.185853 0.11971283 Q 14.385369 0 14.704596 0 Q 14.983918 0 15.1834345 0.1995163 Q 17.418016 2.434101 18.615114 5.9056854 Q 19.812214 9.37727 19.812214 12.928658 Q 19.812214 17.038696 18.056469 20.98912 Q 16.380533 24.939545 13.347884 27.97219 Q 13.108464 28.211609 13.1882715 28.610641 L 14.784402 34.995163 Q 14.904112 35.63362 15.582467 35.55381 Q 16.220919 35.474 16.819468 35.474 Q 19.133858 35.474 21.009312 36.391777 Q 22.884764 37.309555 24.04196 38.785973 Q 25.199154 40.26239 25.817654 42.038086 Q 26.436155 43.81378 26.436155 45.68924 Q 26.436155 49.12092 24.520798 51.894196 Q 22.605442 54.667473 19.931923 55.54534 Q 19.373278 55.744865 19.492987 56.383316 Q 20.490568 61.091896 20.530472 64.324066 Q 20.530472 65.561066 20.37086 66.75816 Q 20.051632 69.51149 17.976664 71.58646 Q 15.901693 73.66143 13.028658 73.66143 Q 9.517171 73.66143 7.083071 71.546555 Q 4.648972 69.43168 4.648972 66 Q 4.648972 64.244255 5.8859735 62.967354 Q 7.1229744 61.690453 8.798912 61.690453 Q 10.514752 61.690453 11.691898 62.907494 Q 12.869045 64.12455 12.869045 65.80048 Q 12.869045 67.237 11.911366 68.31439 Q 10.953689 69.43168 9.596977 69.55139 Q 9.118138 69.59129 8.958525 70.030235 Q 8.798912 70.46917 9.277751 70.8283 Q 10.714269 71.94559 12.789239 71.94559 Q 15.0637245 71.94559 16.71971 70.309555 Q 18.375696 68.673515 18.655018 66.59855 Q 18.854534 65.16203 18.854534 63.725517 Q 18.854534 60.61306 17.896856 56.82225 Q 17.737244 56.143898 17.018984 56.2237 Q 15.422853 56.423218 14.066143 56.423218 Q 8.1604595 56.423218 4.1302295 52.71221 Q 0.1 49.001205 0.1 42.616684 Q 0.1 40.661423 0.55888754 38.76602 Q 1.017775 36.87062 1.5963725 35.493958 Q 2.1749697 34.117294 3.3920193 32.301697 Q 4.609069 30.4861 5.347279 29.52842 Q 6.0854897 28.57074 7.68162 26.675331 Q 9.277751 24.77993 9.8763 24.021767 Q 10.11572 23.742447 9.99601 23.343414 Z M 16.220919 41.57921 L 18.81463 53.35067 Q 18.934341 53.869408 19.53289 53.869408 Q 19.692503 53.869408 19.812214 53.829506 Q 21.448246 53.151146 22.525635 51.195885 Q 23.603024 49.24063 23.603024 47.32527 Q 23.603024 44.532043 21.96699 42.616684 Q 20.291052 40.661423 16.939178 40.661423 Q 16.659855 40.661423 16.440388 40.880898 Q 16.220919 41.100365 16.220919 41.379684 Q 16.181017 41.499397 16.220919 41.57921 Z M 10.714269 30.4861 Q 10.075816 31.204353 8.818864 32.541115 Q 7.56191 33.87787 6.94341 34.57618 Q 6.324909 35.27449 5.427086 36.55139 Q 4.529262 37.828293 4.0903263 38.905685 Q 3.6513906 39.983078 3.3122127 41.5393 Q 2.9730349 43.095528 2.9730349 44.851273 Q 2.9730349 47.28537 4.4694076 49.55986 Q 5.96578 51.834343 8.579444 53.27086 Q 11.193108 54.707375 14.185853 54.707375 Q 15.263241 54.707375 16.58005 54.58767 Q 16.899275 54.547768 17.098791 54.28839 Q 17.298307 54.029022 17.2185 53.7098 L 14.624788 41.778717 Q 14.505079 41.220078 13.866627 41.220078 Q 13.746917 41.220078 13.587304 41.25998 Q 11.751754 41.93833 10.993591 43.17534 Q 10.23543 44.41234 10.23543 46.28779 Q 10.23543 48.482468 12.629625 50.078598 Q 12.908948 50.278114 12.908948 50.677147 Q 12.908948 50.996376 12.649577 51.275696 Q 12.390205 51.555016 12.031076 51.555016 Q 11.83156 51.555016 11.6719475 51.475212 Q 9.397461 50.278114 8.300121 48.2231 Q 7.202781 46.168076 7.202781 43.893593 Q 7.202781 41.698914 8.77896 39.36457 Q 10.35514 37.030228 12.709432 36.15236 Q 13.307981 35.91294 13.1882715 35.314392 L 11.991173 30.80532 Q 11.911366 30.366386 11.432528 30.286575 Q 10.953689 30.206772 10.714269 30.4861 Z M 17.418016 7.262394 Q 17.098791 6.2249107 16.34063 6.2249107 Q 16.10121 6.2249107 15.901693 6.3446198 Q 13.347884 7.860943 11.851512 10.614269 Q 10.35514 13.367596 10.35514 16.440147 Q 10.35514 18.43531 11.193108 21.348251 Q 11.312818 21.787186 11.7916565 21.86699 Q 12.190689 21.90689 12.470013 21.58767 Q 12.589723 21.428055 13.607255 20.171104 Q 14.624788 18.914146 14.944015 18.495163 Q 15.263241 18.07618 16.021402 16.899033 Q 16.779566 15.721886 17.07884 14.943771 Q 17.378115 14.165665 17.657436 13.008465 Q 17.93676 11.851273 17.93676 10.694077 Q 17.93676 9.018139 17.418016 7.262394 Z " fill="black"/>
    <path d="M 60.6 22.245468 Q 60.6 19.851273 63.233616 17.636642 Q 65.86723 15.422012 68.62056 15.422012 Q 69.73785 15.422012 70.75538 15.701332 Q 71.77292 15.980652 72.69069 16.978241 Q 73.60847 17.975815 73.60847 19.532043 Q 73.60847 21.726723 70.934944 24.041115 Q 68.26143 26.355507 65.587906 26.355507 Q 64.47062 26.355507 63.453083 26.07618 Q 62.43555 25.79686 61.517776 24.79927 Q 60.6 23.801697 60.6 22.245468 Z " fill="black"/>
    <path d="M 47.6 27.245468 Q 47.6 24.851273 50.233616 22.636642 Q 52.86723 20.422012 55.620556 20.422012 Q 56.737846 20.422012 57.755383 20.701332 Q 58.772915 20.980652 59.69069 21.978241 Q 60.608463 22.975815 60.608463 24.532043 Q 60.608463 26.726723 57.934944 29.041115 Q 55.261425 31.355507 52.587906 31.355507 Q 51.470615 31.355507 50.453083 31.07618 Q 49.43555 30.79686 48.517776 29.79927 Q 47.6 28.801697 47.6 27.245468 Z " fill="black"/>
    <path d="M 47.6 62.24547 Q 47.6 59.851273 50.233616 57.636642 Q 52.86723 55.422012 55.620556 55.422012 Q 56.737846 55.422012 57.755383 55.701332 Q 58.772915 55.98065 59.69069 56.97824 Q 60.608463 57.975815 60.608463 59.532043 Q 60.608463 61.726723 57.934944 64.041115 Q 55.261425 66.35551 52.587906 66.35551 Q 51.470615 66.35551 50.453083 66.07618 Q 49.43555 65.79686 48.517776 64.79927 Q 47.6 63.801697 47.6 62.24547 Z " fill="black"/>
    <path d="M 43.719105 57.058044 L 43.719105 61.92624 Q 43.719105 62.24547 43.91862 62.444984 Q 44.118137 62.6445 44.437363 62.6445 Q 44.557076 62.6445 44.676785 62.6046 L 44.99601 62.484886 Q 45.11572 62.444984 45.275333 62.444984 Q 45.59456 62.444984 45.833977 62.684402 Q 46.0734 62.92382 46.0734 63.24305 L 46.0734 65.637245 Q 46.0734 66.15598 45.554657 66.35551 L 44.197945 66.874245 Q 43.719105 67.07376 43.719105 67.512695 L 43.719105 73.33857 Q 43.719105 73.6578 43.499638 73.877266 Q 43.28017 74.09673 43.000847 74.09673 Q 42.68162 74.09673 42.46215 73.877266 Q 42.242683 73.6578 42.242683 73.33857 L 42.242683 68.59009 Q 42.242683 68.27086 42.023216 68.07134 Q 41.80375 67.871826 41.524426 67.871826 Q 41.36481 67.871826 41.245102 67.91173 L 39.409554 68.62999 Q 38.930714 68.789604 38.930714 69.26844 L 38.930714 75.09432 Q 38.930714 75.41354 38.69129 75.63301 Q 38.451874 75.85248 38.17255 75.85248 Q 37.893227 75.85248 37.67376 75.63301 Q 37.454292 75.41354 37.454292 75.09432 L 37.454292 70.34583 Q 37.454292 70.0266 37.234825 69.82709 Q 37.015358 69.62757 36.736034 69.62757 Q 36.616325 69.62757 36.496613 69.66747 L 36.177387 69.787186 Q 36.09758 69.82709 35.898064 69.82709 Q 35.57884 69.82709 35.33942 69.58767 Q 35.1 69.34824 35.1 69.02902 L 35.1 66.63483 Q 35.1 66.07618 35.618744 65.87666 L 36.975452 65.39783 Q 37.454292 65.278114 37.454292 64.71947 L 37.454292 59.851273 Q 37.454292 59.532043 37.234825 59.332527 Q 37.015358 59.13301 36.736034 59.13301 Q 36.616325 59.13301 36.53652 59.172913 L 36.177387 59.292625 Q 36.09758 59.332527 35.898064 59.332527 Q 35.57884 59.332527 35.33942 59.09311 Q 35.1 58.85369 35.1 58.534462 L 35.1 56.140266 Q 35.1 55.62152 35.618744 55.422012 L 37.015358 54.903267 Q 37.454292 54.70375 37.454292 54.264816 L 37.454292 48.438934 Q 37.454292 48.119713 37.67376 47.900238 Q 37.893227 47.68077 38.17255 47.68077 Q 38.451874 47.68077 38.69129 47.900238 Q 38.930714 48.119713 38.930714 48.438934 L 38.930714 53.187424 Q 38.930714 53.506653 39.15018 53.70617 Q 39.369648 53.905685 39.688873 53.905685 Q 39.808586 53.905685 39.928295 53.865784 L 41.763844 53.147522 Q 42.242683 52.948006 42.242683 52.469162 L 42.242683 46.683197 Q 42.242683 46.363968 42.46215 46.1445 Q 42.68162 45.925034 43.000847 45.925034 Q 43.28017 45.925034 43.499638 46.1445 Q 43.719105 46.363968 43.719105 46.683197 L 43.719105 51.47159 Q 43.719105 51.750908 43.91862 51.950424 Q 44.118137 52.14994 44.39746 52.14994 Q 44.51717 52.14994 44.676785 52.11004 L 44.99601 51.990326 Q 45.075817 51.950424 45.275333 51.950424 Q 45.59456 51.950424 45.833977 52.189842 Q 46.0734 52.42926 46.0734 52.74849 L 46.0734 55.142685 Q 46.0734 55.701332 45.554657 55.90085 L 44.197945 56.379684 Q 43.719105 56.499397 43.719105 57.058044 Z M 42.242683 62.96373 L 42.242683 58.13543 Q 42.242683 57.85611 42.023216 57.636642 Q 41.80375 57.417175 41.524426 57.417175 Q 41.404716 57.417175 41.285007 57.457077 L 39.409554 58.13543 Q 38.930714 58.334946 38.930714 58.81378 L 38.930714 63.642082 Q 38.930714 63.961304 39.13023 64.16083 Q 39.329746 64.36034 39.64897 64.36034 Q 39.76868 64.36034 39.88839 64.320435 L 41.763844 63.642082 Q 42.242683 63.442566 42.242683 62.96373 Z " fill="black"/>
    <rect x="30.1" y="25.874245" width="5" height="20" fill="purple"/>
    <rect x="0.1" y="75.874245" width="30" height="40" fill="lightgray"/>
    <path d="M 0.1 116.3676 L 0.1 115.37001 L 40.00326 115.37001 L 40.00326 116.3676 L 0.1 116.3676 Z M 0.1 106.39178 L 0.1 105.394196 L 40.00326 105.394196 L 40.00326 106.39178 L 0.1 106.39178 Z M 0.1 96.41596 L 0.1 95.41838 L 40.00326 95.41838 L 40.00326 96.41596 L 0.1 96.41596 Z M 0.1 86.44015 L 0.1 85.442566 L 40.00326 85.442566 L 40.00326 86.44015 L 0.1 86.44015 Z M 0.1 76.464325 L 0.1 75.46675 L 40.00326 75.46675 L 40.00326 76.464325 L 0.1 76.464325 Z " fill="red"/>
    <path d="M 9.99601 83.343414 Q 9.078235 80.43047 8.719106 78.15599 Q 8.399879 76.24063 8.399879 73.68682 Q 8.399879 72.808945 8.439783 71.931076 Q 8.599396 68.14027 9.99601 64.96796 Q 11.392624 61.795647 14.185853 60.119713 Q 14.385369 60 14.704596 60 Q 14.983918 60 15.1834345 60.199516 Q 17.418016 62.4341 18.615114 65.905685 Q 19.812214 69.37727 19.812214 72.92866 Q 19.812214 77.0387 18.056469 80.98912 Q 16.380533 84.939545 13.347884 87.97219 Q 13.108464 88.21161 13.1882715 88.61064 L 14.784402 94.99516 Q 14.904112 95.63362 15.582467 95.55381 Q 16.220919 95.474 16.819468 95.474 Q 19.133858 95.474 21.009312 96.39178 Q 22.884764 97.309555 24.04196 98.78597 Q 25.199154 100.26239 25.817654 102.038086 Q 26.436155 103.81378 26.436155 105.68924 Q 26.436155 109.12092 24.520798 111.894196 Q 22.605442 114.66747 19.931923 115.54534 Q 19.373278 115.744865 19.492987 116.383316 Q 20.490568 121.091896 20.530472 124.324066 Q 20.530472 125.561066 20.37086 126.75816 Q 20.051632 129.51149 17.976664 131.58646 Q 15.901693 133.66144 13.028658 133.66144 Q 9.517171 133.66144 7.083071 131.54655 Q 4.648972 129.43167 4.648972 126 Q 4.648972 124.244255 5.8859735 122.967354 Q 7.1229744 121.69045 8.798912 121.69045 Q 10.514752 121.69045 11.691898 122.90749 Q 12.869045 124.12455 12.869045 125.80048 Q 12.869045 127.237 11.911366 128.31439 Q 10.953689 129.43167 9.596977 129.55139 Q 9.118138 129.5913 8.958525 130.03024 Q 8.798912 130.46918 9.277751 130.82831 Q 10.714269 131.94559 12.789239 131.94559 Q 15.0637245 131.94559 16.71971 130.30956 Q 18.375696 128.67352 18.655018 126.59855 Q 18.854534 125.16203 18.854534 123.72552 Q 18.854534 120.61306 17.896856 116.82225 Q 17.737244 116.1439 17.018984 116.2237 Q 15.422853 116.42322 14.066143 116.42322 Q 8.1604595 116.42322 4.1302295 112.71221 Q 0.1 109.001205 0.1 102.616684 Q 0.1 100.66142 0.55888754 98.76602 Q 1.017775 96.87062 1.5963725 95.49396 Q 2.1749697 94.117294 3.3920193 92.3017 Q 4.609069 90.4861 5.347279 89.52842 Q 6.0854897 88.57074 7.68162 86.67533 Q 9.277751 84.77993 9.8763 84.02177 Q 10.11572 83.74245 9.99601 83.343414 Z M 16.220919 101.57921 L 18.81463 113.35067 Q 18.934341 113.86941 19.53289 113.86941 Q 19.692503 113.86941 19.812214 113.829506 Q 21.448246 113.151146 22.525635 111.195885 Q 23.603024 109.24063 23.603024 107.32527 Q 23.603024 104.53204 21.96699 102.616684 Q 20.291052 100.66142 16.939178 100.66142 Q 16.659855 100.66142 16.440388 100.8809 Q 16.220919 101.100365 16.220919 101.379684 Q 16.181017 101.4994 16.220919 101.57921 Z M 10.714269 90.4861 Q 10.075816 91.20435 8.818864 92.541115 Q 7.56191 93.87787 6.94341 94.57618 Q 6.324909 95.27449 5.427086 96.55139 Q 4.529262 97.82829 4.0903263 98.905685 Q 3.6513906 99.98308 3.3122127 101.5393 Q 2.9730349 103.09553 2.9730349 104.85127 Q 2.9730349 107.28537 4.4694076 109.55986 Q 5.96578 111.83434 8.579444 113.27086 Q 11.193108 114.707375 14.185853 114.707375 Q 15.263241 114.707375 16.58005 114.58767 Q 16.899275 114.54777 17.098791 114.28839 Q 17.298307 114.02902 17.2185 113.7098 L 14.624788 101.77872 Q 14.505079 101.22008 13.866627 101.22008 Q 13.746917 101.22008 13.587304 101.25998 Q 11.751754 101.93833 10.993591 103.17534 Q 10.23543 104.41234 10.23543 106.28779 Q 10.23543 108.48247 12.629625 110.0786 Q 12.908948 110.278114 12.908948 110.67715 Q 12.908948 110.996376 12.649577 111.275696 Q 12.390205 111.555016 12.031076 111.555016 Q 11.83156 111.555016 11.6719475 111.47521 Q 9.397461 110.278114 8.300121 108.2231 Q 7.202781 106.168076 7.202781 103.89359 Q 7.202781 101.69891 8.77896 99.36457 Q 10.35514 97.03023 12.709432 96.15236 Q 13.307981 95.91294 13.1882715 95.31439 L 11.991173 90.80532 Q 11.911366 90.36639 11.432528 90.286575 Q 10.953689 90.20677 10.714269 90.4861 Z M 17.418016 67.26239 Q 17.098791 66.224915 16.34063 66.224915 Q 16.10121 66.224915 15.901693 66.34462 Q 13.347884 67.86095 11.851512 70.61427 Q 10.35514 73.3676 10.35514 76.44015 Q 10.35514 78.43531 11.193108 81.34825 Q 11.312818 81.787186 11.7916565 81.86699 Q 12.190689 81.90689 12.470013 81.58767 Q 12.589723 81.428055 13.607255 80.171104 Q 14.624788 78.91415 14.944015 78.49516 Q 15.263241 78.07618 16.021402 76.89903 Q 16.779566 75.721886 17.07884 74.94377 Q 17.378115 74.165665 17.657436 73.00847 Q 17.93676 71.85127 17.93676 70.69408 Q 17.93676 69.01814 17.418016 67.26239 Z " fill="black"/>
    <path d="M 47.6 97.24547 Q 47.6 94.85127 50.233616 92.63664 Q 52.86723 90.42201 55.620556 90.42201 Q 56.737846 90.42201 57.755383 90.70133 Q 58.772915 90.98065 59.69069 91.97824 Q 60.608463 92.975815 60.608463 94.53204 Q 60.608463 96.72672 57.934944 99.041115 Q 55.261425 101.35551 52.587906 101.35551 Q 51.470615 101.35551 50.453083 101.07618 Q 49.43555 100.79686 48.517776 99.79927 Q 47.6 98.8017 47.6 97.24547 Z " fill="black"/>
    <rect x="42.6" y="85.874245" width="5" height="20" fill="purple"/>
    <line x1="0" y1="35.874245" x2="0.1" y2="155.87424" stroke="rgba(0,0,0,0.2)" stroke-width="0.2"/>
    <line x1="47.5" y1="35.874245" x2="47.6" y2="155.87424" stroke="rgba(0,0,0,0.2)" stroke-width="0.2"/>
    <line x1="73.5" y1="35.874245" x2="73.6" y2="155.87424" stroke="rgba(0,0,0,0.2)" stroke-width="0.2"/>
</svg>
