<svg xmlns="http://www.w3.org/2000/svg" xmlns:xlink="http://www.w3.org/1999/xlink" width="177.70001" height="215.87424" viewBox="0 0 177.70001 215.87424">
    <rect x="0" y="0" width="177.70001" height="215.87424" fill="white"/>
    <rect x="0.1" y="15.874245" width="30" height="40" fill="lightgray"/>
    <path d="M 0.1 56.3676 L 0.1 55.37001 L 40.00326 55.37001 L 40.00326 56.3676 L 0.1 56.3676 Z M 0.1 46.391777 L 0.1 45.394196 L 40.00326 45.394196 L 40.00326 46.391777 L 0.1 46.391777 Z M 0.1 36.415962 L 0.1 35.41838 L 40.00326 35.41838 L 40.00326 36.415962 L 0.1 36.415962 Z M 0.1 26.440147 L 0.1 25.442566 L 40.00326 25.442566 L 40.00326 26.440147 L 0.1 26.440147 Z M 0.1 16.464329 L 0.1 15.466747 L 40.00326 15.466747 L 40.00326 16.464329 L 0.1 16.464329 Z " fill="red"/>
    <path d="M 9.99601 23.343414 Q 9.078235 20.430473 8.719106 18.15599 Q 8.399879 16.240631 8.399879 13.686821 Q 8.399879 12.8089485 8.439783 11.931076 Q 8.599396 8.140266 9.99601 4.9679565 Q 11.392624 1.7956467 14.185853 0.11971283 Q 14.385369 0 14.704596 0 Q 14.983918 0 15.1834345 0.1995163 Q 17.418016 2.434101 18.615114 5.9056854 Q 19.812214 9.37727 19.812214 12.928658 Q 19.812214 17.038696 18.056469 20.98912 Q 16.380533 24.939545 13.347884 27.97219 Q 13.108464 28.211609 13.1882715 28.610641 L 14.784402 34.995163 Q 14.904112 35.63362 15.582467 35.55381 Q 16.220919 35.474 16.819468 35.474 Q 19.133858 35.474 21.009312 36.391777 Q 22.884764 37.309555 24.04196 38.785973 Q 25.199154 40.26239 25.817654 42.038086 Q 26.436155 43.81378 26.436155 45.68924 Q 26.436155 49.12092 24.520798 51.894196 Q 22.605442 54.667473 19.931923 55.54534 Q 19.373278 55.744865 19.492987 56.383316 Q 20.490568 61.091896 20.530472 64.324066 Q 20.530472 65.561066 20.37086 66.75816 Q 20.051632 69.51149 17.976664 71.58646 Q 15.901693 73.66143 13.028658 73.66143 Q 9.517171 73.66143 7.083071 71.546555 Q 4.648972 69.43168 4.648972 66 Q 4.648972 64.244255 5.8859735 62.967354 Q 7.1229744 61.690453 8.798912 61.690453 Q 10.514752 61.690453 11.691898 62.907494 Q 12.869045 64.12455 12.869045 65.80048 Q 12.869045 67.237 11.911366 68.31439 Q 10.953689 69.43168 9.596977 69.55139 Q 9.118138 69.59129 8.958525 70.030235 Q 8.798912 70.46917 9.277751 70.8283 Q 10.714269 71.94559 12.789239 71.94559 Q 15.0637245 71.94559 16.71971 70.309555 Q 18.375696 68.673515 18.655018 66.59855 Q 18.854534 65.16203 18.854534 63.725517 Q 18.854534 60.61306 17.896856 56.82225 Q 17.737244 56.143898 17.018984 56.2237 Q 15.422853 56.423218 14.066143 56.423218 Q 8.1604595 56.423218 4.1302295 52.71221 Q 0.1 49.001205 0.1 42.616684 Q 0.1 40.661423 0.55888754 38.76602 Q 1.017775 36.87062 1.5963725 35.493958 Q 2.1749697 34.117294 3.3920193 32.301697 Q 4.609069 30.4861 5.347279 29.52842 Q 6.0854897 28.57074 7.68162 26.675331 Q 9.277751 24.77993 9.8763 24.021767 Q 10.11572 23.742447 9.99601 23.343414 Z M 16.220919 41.57921 L 18.81463 53.35067 Q 18.934341 53.869408 19.53289 53.869408 Q 19.692503 53.869408 19.812214 53.829506 Q 21.448246 53.151146 22.525635 51.195885 Q 23.603024 49.24063 23.603024 47.32527 Q 23.603024 44.532043 21.96699 42.616684 Q 20.291052 40.661423 16.939178 40.661423 Q 16.659855 40.661423 16.440388 40.880898 Q 16.220919 41.100365 16.220919 41.379684 Q 16.181017 41.499397 16.220919 41.57921 Z M 10.714269 30.4861 Q 10.075816 31.204353 8.818864 32.541115 Q 7.56191 33.87787 6.94341 34.57618 Q 6.324909 35.27449 5.427086 36.55139 Q 4.529262 37.828293 4.0903263 38.905685 Q 3.6513906 39.983078 3.3122127 41.5393 Q 2.9730349 43.095528 2.9730349 44.851273 Q 2.9730349 47.28537 4.4694076 49.55986 Q 5.96578 51.834343 8.579444 53.27086 Q 11.193108 54.707375 14.185853 54.707375 Q 15.263241 54.707375 16.58005 54.58767 Q 16.899275 54.547768 17.098791 54.28839 Q 17.298307 54.029022 17.2185 53.7098 L 14.624788 41.778717 Q 14.505079 41.220078 13.866627 41.220078 Q 13.746917 41.220078 13.587304 41.25998 Q 11.751754 41.93833 10.993591 43.17534 Q 10.23543 44.41234 10.23543 46.28779 Q 10.23543 48.482468 12.629625 50.078598 Q 12.908948 50.278114 12.908948 50.677147 Q 12.908948 50.996376 12.649577 51.275696 Q 12.390205 51.555016 12.031076 51.555016 Q 11.83156 51.555016 11.6719475 51.475212 Q 9.397461 50.278114 8.300121 48.2231 Q 7.202781 46.168076 7.202781 43.893593 Q 7.202781 41.698914 8.77896 39.36457 Q 10.35514 37.030228 12.709432 36.15236 Q 13.307981 35.91294 13.1882715 35.314392 L 11.991173 30.80532 Q 11.911366 30.366386 11.432528 30.286575 Q 10.953689 30.206772 10.714269 30.4861 Z M 17.418016 7.262394 Q 17.098791 6.2249107 16.34063 6.2249107 Q 16.10121 6.2249107 15.901693 6.3446198 Q 13.347884 7.860943 11.851512 10.614269 Q 10.35514 13.367596 10.35514 16.440147 Q 10.35514 18.43531 11.193108 21.348251 Q 11.312818 21.787186 11.7916565 21.86699 Q 12.190689 21.90689 12.470013 21.58767 Q 12.589723 21.428055 13.607255 20.171104 Q 14.624788 18.914146 14.944015 18.495163 Q 15.263241 18.07618 16.021402 16.899033 Q 16.779566 15.721886 17.07884 14.943771 Q 17.378115 14.165665 17.657436 13.008465 Q 17.93676 11.851273 17.93676 10.694077 Q 17.93676 9.018139 17.418016 7.262394 Z " fill="black"/>
    <path d="M 35.1 37.24547 Q 35.1 34.851273 37.733616 32.636642 Q 40.36723 30.422012 43.120556 30.422012 Q 44.237846 30.422012 45.255383 30.701332 Q 46.272915 30.980652 47.19069 31.978241 Q 48.108463 32.975815 48.108463 34.532043 Q 48.108463 36.726723 45.434944 39.041115 Q 42.761425 41.355507 40.087906 41.355507 Q 38.970615 41.355507 37.953083 41.07618 Q 36.93555 40.79686 36.017776 39.79927 Q 35.1 38.801697 35.1 37.24547 Z " fill="black"/>
    <path d="M 35.1 47.24547 Q 35.1 44.851273 37.733616 42.636642 Q 40.36723 40.422012 43.120556 40.422012 Q 44.237846 40.422012 45.255383 40.701332 Q 46.272915 40.98065 47.19069 41.97824 Q 48.108463 42.975815 48.108463 44.532043 Q 48.108463 46.726723 45.434944 49.041115 Q 42.761425 51.355507 40.087906 51.355507 Q 38.970615 51.355507 37.953083 51.07618 Q 36.93555 50.79686 36.017776 49.79927 Q 35.1 48.801697 35.1 47.24547 Z " fill="black"/>
    <rect x="30.1" y="25.874245" width="5" height="20" fill="gray"/>
    <path d="M 49.5 47.24547 Q 49.5 44.851273 52.133617 42.636642 Q 54.76723 40.422012 57.520557 40.422012 Q 58.637848 40.422012 59.655384 40.701332 Q 60.672916 40.98065 61.59069 41.97824 Q 62.508465 42.975815 62.508465 44.532043 Q 62.508465 46.726723 59.834946 49.041115 Q 57.161427 51.355507 54.487907 51.355507 Q 53.370617 51.355507 52.353085 51.07618 Q 51.335552 50.79686 50.417778 49.79927 Q 49.5 48.801697 49.5 47.24547 Z " fill="black"/>
    <path d="M 63.9 42.24547 Q 63.9 39.851273 66.533615 37.636642 Q 69.16724 35.422012 71.92056 35.422012 Q 73.03785 35.422012 74.05538 35.701332 Q 75.07292 35.98065 75.99069 36.97824 Q 76.90847 37.975815 76.90847 39.532043 Q 76.90847 41.726723 74.23495 44.041115 Q 71.56143 46.355507 68.88791 46.355507 Q 67.77062 46.355507 66.75309 46.07618 Q 65.73555 45.79686 64.81778 44.79927 Q 63.9 43.801697 63.9 42.24547 Z " fill="black"/>
    <rect x="76.9" y="35.874245" width="1" height="1" fill="orange"/>
    <rect x="89.9" y="35.874245" width="1" height="1" fill="orange"/>
    <rect x="112.9" y="35.874245" width="1" height="1" fill="orange"/>
    <rect x="120.1" y="35.874245" width="1" height="1" fill="orange"/>
    <rect x="0.1" y="75.874245" width="30" height="40" fill="lightgray"/>
    <path d="M 0.1 116.3676 L 0.1 115.37001 L 40.00326 115.37001 L 40.00326 116.3676 L 0.1 116.3676 Z M 0.1 106.39178 L 0.1 105.394196 L 40.00326 105.394196 L 40.00326 106.39178 L 0.1 106.39178 Z M 0.1 96.41596 L 0.1 95.41838 L 40.00326 95.41838 L 40.00326 96.41596 L 0.1 96.41596 Z M 0.1 86.44015 L 0.1 85.442566 L 40.00326 85.442566 L 40.00326 86.44015 L 0.1 86.44015 Z M 0.1 76.464325 L 0.1 75.46675 L 40.00326 75.46675 L 40.00326 76.464325 L 0.1 76.464325 Z " fill="red"/>
    <path d="M 9.99601 83.343414 Q 9.078235 80.43047 8.719106 78.15599 Q 8.399879 76.24063 8.399879 73.68682 Q 8.399879 72.808945 8.439783 71.931076 Q 8.599396 68.14027 9.99601 64.96796 Q 11.392624 61.795647 14.185853 60.119713 Q 14.385369 60 14.704596 60 Q 14.983918 60 15.1834345 60.199516 Q 17.418016 62.4341 18.615114 65.905685 Q 19.812214 69.37727 19.812214 72.92866 Q 19.812214 77.0387 18.056469 80.98912 Q 16.380533 84.939545 13.347884 87.97219 Q 13.108464 88.21161 13.1882715 88.61064 L 14.784402 94.99516 Q 14.904112 95.63362 15.582467 95.55381 Q 16.220919 95.474 16.819468 95.474 Q 19.133858 95.474 21.009312 96.39178 Q 22.884764 97.309555 24.04196 98.78597 Q 25.199154 100.26239 25.817654 102.038086 Q 26.436155 103.81378 26.436155 105.68924 Q 26.436155 109.12092 24.520798 111.894196 Q 22.605442 114.66747 19.931923 115.54534 Q 19.373278 115.744865 19.492987 116.383316 Q 20.490568 121.091896 20.530472 124.324066 Q 20.530472 125.561066 20.37086 126.75816 Q 20.051632 129.51149 17.976664 131.58646 Q 15.901693 133.66144 13.028658 133.66144 Q 9.517171 133.66144 7.083071 131.54655 Q 4.648972 129.43167 4.648972 126 Q 4.648972 124.244255 5.8859735 122.967354 Q 7.1229744 121.69045 8.798912 121.69045 Q 10.514752 121.69045 11.691898 122.90749 Q 12.869045 124.12455 12.869045 125.80048 Q 12.869045 127.237 11.911366 128.31439 Q 10.953689 129.43167 9.596977 129.55139 Q 9.118138 129.5913 8.958525 130.03024 Q 8.798912 130.46918 9.277751 130.82831 Q 10.714269 131.94559 12.789239 131.94559 Q 15.0637245 131.94559 16.71971 130.30956 Q 18.375696 128.67352 18.655018 126.59855 Q 18.854534 125.16203 18.854534 123.72552 Q 18.854534 120.61306 17.896856 116.82225 Q 17.737244 116.1439 17.018984 116.2237 Q 15.422853 116.42322 14.066143 116.42322 Q 8.1604595 116.42322 4.1302295 112.71221 Q 0.1 109.001205 0.1 102.616684 Q 0.1 100.66142 0.55888754 98.76602 Q 1.017775 96.87062 1.5963725 95.49396 Q 2.1749697 94.117294 3.3920193 92.3017 Q 4.609069 90.4861 5.347279 89.52842 Q 6.0854897 88.57074 7.68162 86.67533 Q 9.277751 84.77993 9.8763 84.02177 Q 10.11572 83.74245 9.99601 83.343414 Z M 16.220919 101.57921 L 18.81463 113.35067 Q 18.934341 113.86941 19.53289 113.86941 Q 19.692503 113.86941 19.812214 113.829506 Q 21.448246 113.151146 22.525635 111.195885 Q 23.603024 109.24063 23.603024 107.32527 Q 23.603024 104.53204 21.96699 102.616684 Q 20.291052 100.66142 16.939178 100.66142 Q 16.659855 100.66142 16.440388 100.8809 Q 16.220919 101.100365 16.220919 101.379684 Q 16.181017 101.4994 16.220919 101.57921 Z M 10.714269 90.4861 Q 10.075816 91.20435 8.818864 92.541115 Q 7.56191 93.87787 6.94341 94.57618 Q 6.324909 95.27449 5.427086 96.55139 Q 4.529262 97.82829 4.0903263 98.905685 Q 3.6513906 99.98308 3.3122127 101.5393 Q 2.9730349 103.09553 2.9730349 104.85127 Q 2.9730349 107.28537 4.4694076 109.55986 Q 5.96578 111.83434 8.579444 113.27086 Q 11.193108 114.707375 14.185853 114.707375 Q 15.263241 114.707375 16.58005 114.58767 Q 16.899275 114.54777 17.098791 114.28839 Q 17.298307 114.02902 17.2185 113.7098 L 14.624788 101.77872 Q 14.505079 101.22008 13.866627 101.22008 Q 13.746917 101.22008 13.587304 101.25998 Q 11.751754 101.93833 10.993591 103.17534 Q 10.23543 104.41234 10.23543 106.28779 Q 10.23543 108.48247 12.629625 110.0786 Q 12.908948 110.278114 12.908948 110.67715 Q 12.908948 110.996376 12.649577 111.275696 Q 12.390205 111.555016 12.031076 111.555016 Q 11.83156 111.555016 11.6719475 111.47521 Q 9.397461 110.278114 8.300121 108.2231 Q 7.202781 106.168076 7.202781 103.89359 Q 7.202781 101.69891 8.77896 99.36457 Q 10.35514 97.03023 12.709432 96.15236 Q 13.307981 95.91294 13.1882715 95.31439 L 11.991173 90.80532 Q 11.911366 90.36639 11.432528 90.286575 Q 10.953689 90.20677 10.714269 90.4861 Z M 17.418016 67.26239 Q 17.098791 66.224915 16.34063 66.224915 Q 16.10121 66.224915 15.901693 66.34462 Q 13.347884 67.86095 11.851512 70.61427 Q 10.35514 73.3676 10.35514 76.44015 Q 10.35514 78.43531 11.193108 81.34825 Q 11.312818 81.787186 11.7916565 81.86699 Q 12.190689 81.90689 12.470013 81.58767 Q 12.589723 81.428055 13.607255 80.171104 Q 14.624788 78.91415 14.944015 78.49516 Q 15.263241 78.07618 16.021402 76.89903 Q 16.779566 75.721886 17.07884 74.94377 Q 17.378115 74.165665 17.657436 73.00847 Q 17.93676 71.85127 17.93676 70.69408 Q 17.93676 69.01814 17.418016 67.26239 Z " fill="black"/>
    <path d="M 45.03591 91.85853 Q 43.87872 91.85853 40.147762 94.47219 Q 36.41681 97.08585 36.41681 98.28295 Q 36.41681 99.12092 37.135067 99.51995 Q 37.853325 99.91898 38.850906 99.91898 Q 40.008102 99.91898 43.73906 97.30532 Q 47.470013 94.69166 47.470013 93.49456 Q 47.470013 92.65659 46.751755 92.25756 Q 46.033493 91.85853 45.03591 91.85853 Z M 35.1 97.405075 Q 35.1 94.53204 37.574 92.47703 Q 40.048004 90.42201 43.559494 90.42201 Q 44.75659 90.42201 45.794075 90.66142 Q 46.83156 90.90085 47.789238 91.85853 Q 48.746918 92.81621 48.746918 94.37244 Q 48.746918 97.24547 46.272915 99.30048 Q 43.798912 101.35551 40.287422 101.35551 Q 39.090324 101.35551 38.05284 101.11608 Q 37.015358 100.87666 36.05768 99.91898 Q 35.1 98.9613 35.1 97.405075 Z " fill="black"/>
    <rect x="30.1" y="85.874245" width="5" height="20" fill="gray"/>
    <rect x="49.5" y="95.874245" width="1" height="1" fill="orange"/>
    <rect x="63.9" y="95.874245" width="1" height="1" fill="orange"/>
    <rect x="76.9" y="95.874245" width="1" height="1" fill="orange"/>
    <rect x="89.9" y="95.874245" width="1" height="1" fill="orange"/>
    <rect x="112.9" y="95.874245" width="1" height="1" fill="orange"/>
    <path d="M 130.03592 91.85853 Q 128.87872 91.85853 125.147766 94.47219 Q 121.41681 97.08585 121.41681 98.28295 Q 121.41681 99.12092 122.13506 99.51995 Q 122.853325 99.91898 123.85091 99.91898 Q 125.0081 99.91898 128.73906 97.30532 Q 132.47002 94.69166 132.47002 93.49456 Q 132.47002 92.65659 131.75175 92.25756 Q 131.0335 91.85853 130.03592 91.85853 Z M 120.1 97.405075 Q 120.1 94.53204 122.574005 92.47703 Q 125.048004 90.42201 128.5595 90.42201 Q 129.75659 90.42201 130.79407 90.66142 Q 131.83156 90.90085 132.78925 91.85853 Q 133.74692 92.81621 133.74692 94.37244 Q 133.74692 97.24547 131.27292 99.30048 Q 128.79892 101.35551 125.28742 101.35551 Q 124.090324 101.35551 123.05284 101.11608 Q 122.01536 100.87666 121.05768 99.91898 Q 120.1 98.9613 120.1 97.405075 Z " fill="black"/>
    <rect x="0.1" y="135.87424" width="30" height="40" fill="lightgray"/>
    <path d="M 0.1 176.3676 L 0.1 175.37001 L 40.00326 175.37001 L 40.00326 176.3676 L 0.1 176.3676 Z M 0.1 166.39178 L 0.1 165.3942 L 40.00326 165.3942 L 40.00326 166.39178 L 0.1 166.39178 Z M 0.1 156.41595 L 0.1 155.41838 L 40.00326 155.41838 L 40.00326 156.41595 L 0.1 156.41595 Z M 0.1 146.44016 L 0.1 145.44257 L 40.00326 145.44257 L 40.00326 146.44016 L 0.1 146.44016 Z M 0.1 136.46432 L 0.1 135.46675 L 40.00326 135.46675 L 40.00326 136.46432 L 0.1 136.46432 Z " fill="red"/>
    <path d="M 9.99601 143.34341 Q 9.078235 140.43048 8.719106 138.15599 Q 8.399879 136.24063 8.399879 133.68683 Q 8.399879 132.80894 8.439783 131.93108 Q 8.599396 128.14026 9.99601 124.96796 Q 11.392624 121.79565 14.185853 120.11971 Q 14.385369 120 14.704596 120 Q 14.983918 120 15.1834345 120.19952 Q 17.418016 122.4341 18.615114 125.905685 Q 19.812214 129.37727 19.812214 132.92865 Q 19.812214 137.0387 18.056469 140.98912 Q 16.380533 144.93954 13.347884 147.9722 Q 13.108464 148.21161 13.1882715 148.61064 L 14.784402 154.99516 Q 14.904112 155.63362 15.582467 155.5538 Q 16.220919 155.474 16.819468 155.474 Q 19.133858 155.474 21.009312 156.39178 Q 22.884764 157.30956 24.04196 158.78598 Q 25.199154 160.26239 25.817654 162.03809 Q 26.436155 163.81378 26.436155 165.68924 Q 26.436155 169.12091 24.520798 171.8942 Q 22.605442 174.66748 19.931923 175.54535 Q 19.373278 175.74487 19.492987 176.38332 Q 20.490568 181.09189 20.530472 184.32407 Q 20.530472 185.56107 20.37086 186.75816 Q 20.051632 189.51149 17.976664 191.58646 Q 15.901693 193.66144 13.028658 193.66144 Q 9.517171 193.66144 7.083071 191.54655 Q 4.648972 189.43167 4.648972 186 Q 4.648972 184.24426 5.8859735 182.96735 Q 7.1229744 181.69046 8.798912 181.69046 Q 10.514752 181.69046 11.691898 182.9075 Q 12.869045 184.12454 12.869045 185.80048 Q 12.869045 187.237 11.911366 188.31439 Q 10.953689 189.43167 9.596977 189.55139 Q 9.118138 189.5913 8.958525 190.03024 Q 8.798912 190.46918 9.277751 190.82831 Q 10.714269 191.94559 12.789239 191.94559 Q 15.0637245 191.94559 16.71971 190.30956 Q 18.375696 188.67352 18.655018 186.59854 Q 18.854534 185.16203 18.854534 183.72552 Q 18.854534 180.61307 17.896856 176.82225 Q 17.737244 176.14389 17.018984 176.2237 Q 15.422853 176.42322 14.066143 176.42322 Q 8.1604595 176.42322 4.1302295 172.71222 Q 0.1 169.0012 0.1 162.61668 Q 0.1 160.66142 0.55888754 158.76602 Q 1.017775 156.87062 1.5963725 155.49396 Q 2.1749697 154.1173 3.3920193 152.3017 Q 4.609069 150.4861 5.347279 149.52841 Q 6.0854897 148.57074 7.68162 146.67532 Q 9.277751 144.77994 9.8763 144.02176 Q 10.11572 143.74245 9.99601 143.34341 Z M 16.220919 161.57921 L 18.81463 173.35068 Q 18.934341 173.86942 19.53289 173.86942 Q 19.692503 173.86942 19.812214 173.8295 Q 21.448246 173.15115 22.525635 171.19589 Q 23.603024 169.24063 23.603024 167.32527 Q 23.603024 164.53204 21.96699 162.61668 Q 20.291052 160.66142 16.939178 160.66142 Q 16.659855 160.66142 16.440388 160.88089 Q 16.220919 161.10037 16.220919 161.37968 Q 16.181017 161.49939 16.220919 161.57921 Z M 10.714269 150.4861 Q 10.075816 151.20435 8.818864 152.5411 Q 7.56191 153.87787 6.94341 154.57617 Q 6.324909 155.27449 5.427086 156.55139 Q 4.529262 157.8283 4.0903263 158.90569 Q 3.6513906 159.98308 3.3122127 161.5393 Q 2.9730349 163.09552 2.9730349 164.85127 Q 2.9730349 167.28537 4.4694076 169.55986 Q 5.96578 171.83435 8.579444 173.27086 Q 11.193108 174.70737 14.185853 174.70737 Q 15.263241 174.70737 16.58005 174.58768 Q 16.899275 174.54776 17.098791 174.28839 Q 17.298307 174.02902 17.2185 173.70981 L 14.624788 161.77872 Q 14.505079 161.22008 13.866627 161.22008 Q 13.746917 161.22008 13.587304 161.25998 Q 11.751754 161.93832 10.993591 163.17534 Q 10.23543 164.41234 10.23543 166.28778 Q 10.23543 168.48247 12.629625 170.0786 Q 12.908948 170.2781 12.908948 170.67715 Q 12.908948 170.99637 12.649577 171.2757 Q 12.390205 171.55502 12.031076 171.55502 Q 11.83156 171.55502 11.6719475 171.47522 Q 9.397461 170.2781 8.300121 168.2231 Q 7.202781 166.16808 7.202781 163.89359 Q 7.202781 161.69891 8.77896 159.36456 Q 10.35514 157.03023 12.709432 156.15236 Q 13.307981 155.91293 13.1882715 155.31439 L 11.991173 150.80533 Q 11.911366 150.3664 11.432528 150.28658 Q 10.953689 150.20677 10.714269 150.4861 Z M 17.418016 127.26239 Q 17.098791 126.224915 16.34063 126.224915 Q 16.10121 126.224915 15.901693 126.34462 Q 13.347884 127.86095 11.851512 130.61427 Q 10.35514 133.3676 10.35514 136.44016 Q 10.35514 138.4353 11.193108 141.34825 Q 11.312818 141.78719 11.7916565 141.86699 Q 12.190689 141.90689 12.470013 141.58768 Q 12.589723 141.42805 13.607255 140.17111 Q 14.624788 138.91415 14.944015 138.49516 Q 15.263241 138.07617 16.021402 136.89903 Q 16.779566 135.7219 17.07884 134.94377 Q 17.378115 134.16566 17.657436 133.00847 Q 17.93676 131.85127 17.93676 130.69408 Q 17.93676 129.01814 17.418016 127.26239 Z " fill="black"/>
    <path d="M 35.1 157.24547 Q 35.1 154.85127 37.733616 152.63664 Q 40.36723 150.42201 43.120556 150.42201 Q 44.237846 150.42201 45.255383 150.70132 Q 46.272915 150.98065 47.19069 151.97824 Q 48.108463 152.97581 48.108463 154.53204 Q 48.108463 156.72672 45.434944 159.0411 Q 42.761425 161.3555 40.087906 161.3555 Q 38.970615 161.3555 37.953083 161.07617 Q 36.93555 160.79686 36.017776 159.79927 Q 35.1 158.8017 35.1 157.24547 Z " fill="black"/>
    <rect x="30.1" y="145.87424" width="5" height="20" fill="gray"/>
    <rect x="49.5" y="155.87424" width="1" height="1" fill="orange"/>
    <path d="M 63.9 157.24547 Q 63.9 154.85127 66.533615 152.63664 Q 69.16724 150.42201 71.92056 150.42201 Q 73.03785 150.42201 74.05538 150.70132 Q 75.07292 150.98065 75.99069 151.97824 Q 76.90847 152.97581 76.90847 154.53204 Q 76.90847 156.72672 74.23495 159.0411 Q 71.56143 161.3555 68.88791 161.3555 Q 67.77062 161.3555 66.75309 161.07617 Q 65.73555 160.79686 64.81778 159.79927 Q 63.9 158.8017 63.9 157.24547 Z " fill="black"/>
    <path d="M 76.9 157.24547 Q 76.9 154.85127 79.533615 152.63664 Q 82.16724 150.42201 84.92056 150.42201 Q 86.03785 150.42201 87.05538 150.70132 Q 88.07292 150.98065 88.99069 151.97824 Q 89.90847 152.97581 89.90847 154.53204 Q 89.90847 156.72672 87.23495 159.0411 Q 84.56143 161.3555 81.88791 161.3555 Q 80.77062 161.3555 79.75309 161.07617 Q 78.73555 160.79686 77.81778 159.79927 Q 76.9 158.8017 76.9 157.24547 Z " fill="black"/>
    <path d="M 89.9 157.24547 Q 89.9 154.85127 92.533615 152.63664 Q 95.16724 150.42201 97.92056 150.42201 Q 99.03785 150.42201 100.05538 150.70132 Q 101.07292 150.98065 101.99069 151.97824 Q 102.90847 152.97581 102.90847 154.53204 Q 102.90847 156.72672 100.23495 159.0411 Q 97.56143 161.3555 94.88791 161.3555 Q 93.77062 161.3555 92.75309 161.07617 Q 91.73555 160.79686 90.81778 159.79927 Q 89.9 158.8017 89.9 157.24547 Z " fill="black"/>
    <rect x="102.9" y="150.87424" width="10" height="10" fill="green"/>
    <path d="M 112.9 157.24547 Q 112.9 154.85127 115.533615 152.63664 Q 118.16724 150.42201 120.92056 150.42201 Q 122.03785 150.42201 123.05538 150.70132 Q 124.07292 150.98065 124.99069 151.97824 Q 125.90847 152.97581 125.90847 154.53204 Q 125.90847 156.72672 123.23495 159.0411 Q 120.56143 161.3555 117.88791 161.3555 Q 116.77062 161.3555 115.75309 161.07617 Q 114.73555 160.79686 113.81778 159.79927 Q 112.9 158.8017 112.9 157.24547 Z " fill="black"/>
    <rect x="120.1" y="155.87424" width="1" height="1" fill="orange"/>
    <line x1="0" y1="35.874245" x2="0.1" y2="215.87424" stroke="rgba(0,0,0,0.2)" stroke-width="0.2"/>
    <line x1="35" y1="35.874245" x2="35.1" y2="215.87424" stroke="rgba(0,0,0,0.2)" stroke-width="0.2"/>
    <line x1="49.4" y1="35.874245" x2="49.5" y2="215.87424" stroke="rgba(0,0,0,0.2)" stroke-width="0.2"/>
    <line x1="63.800003" y1="35.874245" x2="63.9" y2="215.87424" stroke="rgba(0,0,0,0.2)" stroke-width="0.2"/>
    <line x1="76.8" y1="35.874245" x2="76.9" y2="215.87424" stroke="rgba(0,0,0,0.2)" stroke-width="0.2"/>
    <line x1="89.8" y1="35.874245" x2="89.9" y2="215.87424" stroke="rgba(0,0,0,0.2)" stroke-width="0.2"/>
    <line x1="112.8" y1="35.874245" x2="112.9" y2="215.87424" stroke="rgba(0,0,0,0.2)" stroke-width="0.2"/>
    <line x1="120" y1="35.874245" x2="120.1" y2="215.87424" stroke="rgba(0,0,0,0.2)" stroke-width="0.2"/>
    <line x1="177.6" y1="35.874245" x2="177.70001" y2="215.87424" stroke="rgba(0,0,0,0.2)" stroke-width="0.2"/>
</svg>
