<svg xmlns="http://www.w3.org/2000/svg" xmlns:xlink="http://www.w3.org/1999/xlink" width="139.60847" height="159.94922" viewBox="0 0 139.60847 159.94922">
    <rect x="0" y="0" width="139.60847" height="159.94922" fill="white"/>
    <rect x="0.1" y="19.949211" width="30" height="40" fill="lightgray"/>
    <path d="M 0.1 60.442566 L 0.1 59.444977 L 40.00326 59.444977 L 40.00326 60.442566 L 0.1 60.442566 Z M 0.1 50.466743 L 0.1 49.469162 L 40.00326 49.469162 L 40.00326 50.466743 L 0.1 50.466743 Z M 0.1 40.49093 L 0.1 39.493347 L 40.00326 39.493347 L 40.00326 40.49093 L 0.1 40.49093 Z M 0.1 30.515114 L 0.1 29.517532 L 40.00326 29.517532 L 40.00326 30.515114 L 0.1 30.515114 Z M 0.1 20.539295 L 0.1 19.541714 L 40.00326 19.541714 L 40.00326 20.539295 L 0.1 20.539295 Z " fill="red"/>
    <path d="M 9.99601 27.41838 Q 9.078235 24.50544 8.719106 22.230957 Q 8.399879 20.315598 8.399879 17.761787 Q 8.399879 16.883911 8.439783 16.006042 Q 8.599396 12.215233 9.99601 9.042923 Q 11.392624 5.870613 14.185853 4.1946793 Q 14.385369 4.0749664 14.704596 4.0749664 Q 14.983918 4.0749664 15.1834345 4.2744827 Q 17.418016 6.5090675 18.615114 9.980652 Q 19.812214 13.452236 19.812214 17.003624 Q 19.812214 21.113663 18.056469 25.064087 Q 16.380533 29.014511 13.347884 32.047157 Q 13.108464 32.286575 13.1882715 32.685608 L 14.784402 39.07013 Q 14.904112 39.708588 15.582467 39.628777 Q 16.220919 39.548965 16.819468 39.548965 Q 19.133858 39.548965 21.009312 40.466743 Q 22.884764 41.38452 24.04196 42.86094 Q 25.199154 44.337357 25.817654 46.113052 Q 26.436155 47.88875 26.436155 49.764206 Q 26.436155 53.195885 24.520798 55.969162 Q 22.605442 58.74244 19.931923 59.620308 Q 19.373278 59.81983 19.492987 60.458282 Q 20.490568 65.16686 20.530472 68.39903 Q 20.530472 69.63603 20.37086 70.83313 Q 20.051632 73.58646 17.976664 75.66142 Q 15.901693 77.7364 13.028658 77.7364 Q 9.517171 77.7364 7.083071 75.62152 Q 4.648972 73.506645 4.648972 70.07497 Q 4.648972 68.31922 5.8859735 67.04232 Q 7.1229744 65.76542 8.798912 65.76542 Q 10.514752 65.76542 11.691898 66.98246 Q 12.869045 68.19952 12.869045 69.87545 Q 12.869045 71.311966 11.911366 72.38936 Q 10.953689 73.506645 9.596977 73.62636 Q 9.118138 73.66626 8.958525 74.1052 Q 8.798912 74.544136 9.277751 74.90327 Q 10.714269 76.02055 12.789239 76.02055 Q 15.0637245 76.02055 16.71971 74.38452 Q 18.375696 72.74848 18.655018 70.673515 Q 18.854534 69.237 18.854534 67.80048 Q 18.854534 64.68803 17.896856 60.897217 Q 17.737244 60.218864 17.018984 60.298668 Q 15.422853 60.498184 14.066143 60.498184 Q 8.1604595 60.498184 4.1302295 56.787178 Q 0.1 53.07617 0.1 46.69165 Q 0.1 44.73639 0.55888754 42.84099 Q 1.017775 40.945587 1.5963725 39.568924 Q 2.1749697 38.19226 3.3920193 36.376663 Q 4.609069 34.561066 5.347279 33.603386 Q 6.0854897 32.645706 7.68162 30.750298 Q 9.277751 28.854897 9.8763 28.096733 Q 10.11572 27.817413 9.99601 27.41838 Z M 16.220919 45.654175 L 18.81463 57.425636 Q 18.934341 57.944374 19.53289 57.944374 Q 19.692503 57.944374 19.812214 57.904472 Q 21.448246 57.226112 22.525635 55.27085 Q 23.603024 53.315598 23.603024 51.400238 Q 23.603024 48.60701 21.96699 46.69165 Q 20.291052 44.73639 16.939178 44.73639 Q 16.659855 44.73639 16.440388 44.955864 Q 16.220919 45.17533 16.220919 45.45465 Q 16.181017 45.574364 16.220919 45.654175 Z M 10.714269 34.561066 Q 10.075816 35.27932 8.818864 36.61608 Q 7.56191 37.952835 6.94341 38.651146 Q 6.324909 39.349457 5.427086 40.626358 Q 4.529262 41.90326 4.0903263 42.98065 Q 3.6513906 44.058044 3.3122127 45.614265 Q 2.9730349 47.170494 2.9730349 48.92624 Q 2.9730349 51.360336 4.4694076 53.634827 Q 5.96578 55.90931 8.579444 57.345825 Q 11.193108 58.78234 14.185853 58.78234 Q 15.263241 58.78234 16.58005 58.662636 Q 16.899275 58.622734 17.098791 58.363358 Q 17.298307 58.10399 17.2185 57.784767 L 14.624788 45.853683 Q 14.505079 45.295044 13.866627 45.295044 Q 13.746917 45.295044 13.587304 45.334946 Q 11.751754 46.013298 10.993591 47.250305 Q 10.23543 48.487305 10.23543 50.362755 Q 10.23543 52.557434 12.629625 54.153564 Q 12.908948 54.35308 12.908948 54.752113 Q 12.908948 55.071342 12.649577 55.350662 Q 12.390205 55.629982 12.031076 55.629982 Q 11.83156 55.629982 11.6719475 55.55018 Q 9.397461 54.35308 8.300121 52.298065 Q 7.202781 50.243042 7.202781 47.96856 Q 7.202781 45.77388 8.77896 43.439537 Q 10.35514 41.105194 12.709432 40.227325 Q 13.307981 39.987907 13.1882715 39.38936 L 11.991173 34.880287 Q 11.911366 34.441353 11.432528 34.36154 Q 10.953689 34.28174 10.714269 34.561066 Z M 17.418016 11.33736 Q 17.098791 10.299877 16.34063 10.299877 Q 16.10121 10.299877 15.901693 10.419586 Q 13.347884 11.935909 11.851512 14.6892395 Q 10.35514 17.442566 10.35514 20.515114 Q 10.35514 22.510277 11.193108 25.423218 Q 11.312818 25.862152 11.7916565 25.941956 Q 12.190689 25.981857 12.470013 25.662636 Q 12.589723 25.503021 13.607255 24.24607 Q 14.624788 22.989113 14.944015 22.57013 Q 15.263241 22.151146 16.021402 20.973999 Q 16.779566 19.796852 17.07884 19.018738 Q 17.378115 18.240631 17.657436 17.083435 Q 17.93676 15.926239 17.93676 14.769043 Q 17.93676 13.093105 17.418016 11.33736 Z " fill="black"/>
    <path d="M 65.1 16.320435 Q 65.1 13.926239 67.73361 11.711609 Q 70.36723 9.496979 73.12056 9.496979 Q 74.23785 9.496979 75.25538 9.7762985 Q 76.27292 10.055618 77.19069 11.053207 Q 78.10847 12.050781 78.10847 13.60701 Q 78.10847 15.801689 75.434944 18.116081 Q 72.76143 20.430473 70.087906 20.430473 Q 68.97062 20.430473 67.95309 20.151146 Q 66.93555 19.871826 66.01778 18.874237 Q 65.1 17.876663 65.1 16.320435 Z " fill="black"/>
    <path d="M 65.1 36.320435 Q 65.1 33.92624 67.73361 31.711609 Q 70.36723 29.496979 73.12056 29.496979 Q 74.23785 29.496979 75.25538 29.776299 Q 76.27292 30.055618 77.19069 31.053207 Q 78.10847 32.05078 78.10847 33.60701 Q 78.10847 35.80169 75.434944 38.11608 Q 72.76143 40.430473 70.087906 40.430473 Q 68.97062 40.430473 67.95309 40.151146 Q 66.93555 39.871826 66.01778 38.874237 Q 65.1 37.876663 65.1 36.320435 Z " fill="black"/>
    <path d="M 65.1 61.320435 Q 65.1 58.92624 67.73361 56.71161 Q 70.36723 54.49698 73.12056 54.49698 Q 74.23785 54.49698 75.25538 54.7763 Q 76.27292 55.05562 77.19069 56.053207 Q 78.10847 57.05078 78.10847 58.60701 Q 78.10847 60.80169 75.434944 63.11608 Q 72.76143 65.43047 70.087906 65.43047 Q 68.97062 65.43047 67.95309 65.151146 Q 66.93555 64.871826 66.01778 63.874237 Q 65.1 62.876663 65.1 61.320435 Z " fill="black"/>
    <path d="M 65.1 71.320435 Q 65.1 68.92624 67.73361 66.71161 Q 70.36723 64.49698 73.12056 64.49698 Q 74.23785 64.49698 75.25538 64.7763 Q 76.27292 65.05562 77.19069 66.05321 Q 78.10847 67.05078 78.10847 68.60701 Q 78.10847 70.80169 75.434944 73.11608 Q 72.76143 75.43047 70.087906 75.43047 Q 68.97062 75.43047 67.95309 75.151146 Q 66.93555 74.871826 66.01778 73.87424 Q 65.1 72.87666 65.1 71.320435 Z " fill="black"/>
    <path d="M 61.219105 11.133011 L 61.219105 16.001205 Q 61.219105 16.320435 61.41862 16.51995 Q 61.618137 16.719467 61.937363 16.719467 Q 62.057076 16.719467 62.176785 16.679565 L 62.49601 16.559853 Q 62.61572 16.51995 62.775333 16.51995 Q 63.09456 16.51995 63.333977 16.759369 Q 63.5734 16.998787 63.5734 17.318016 L 63.5734 19.712212 Q 63.5734 20.23095 63.054657 20.430473 L 61.697945 20.949211 Q 61.219105 21.148727 61.219105 21.587662 L 61.219105 27.413536 Q 61.219105 27.732765 60.999638 27.952232 Q 60.78017 28.1717 60.500847 28.1717 Q 60.18162 28.1717 59.96215 27.952232 Q 59.742683 27.732765 59.742683 27.413536 L 59.742683 22.665054 Q 59.742683 22.345825 59.523216 22.146309 Q 59.30375 21.946793 59.024426 21.946793 Q 58.86481 21.946793 58.745102 21.986694 L 56.909554 22.704956 Q 56.430714 22.86457 56.430714 23.343407 L 56.430714 29.169289 Q 56.430714 29.48851 56.19129 29.707977 Q 55.951874 29.927444 55.67255 29.927444 Q 55.393227 29.927444 55.17376 29.707977 Q 54.954292 29.48851 54.954292 29.169289 L 54.954292 24.4208 Q 54.954292 24.10157 54.734825 23.902054 Q 54.515358 23.702538 54.236034 23.702538 Q 54.116325 23.702538 53.996613 23.74244 L 53.677387 23.862152 Q 53.59758 23.902054 53.398064 23.902054 Q 53.07884 23.902054 52.83942 23.662636 Q 52.6 23.42321 52.6 23.103989 L 52.6 20.709793 Q 52.6 20.151146 53.118744 19.95163 L 54.475452 19.472794 Q 54.954292 19.35308 54.954292 18.794434 L 54.954292 13.926239 Q 54.954292 13.60701 54.734825 13.407494 Q 54.515358 13.207977 54.236034 13.207977 Q 54.116325 13.207977 54.03652 13.247879 L 53.677387 13.367592 Q 53.59758 13.407494 53.398064 13.407494 Q 53.07884 13.407494 52.83942 13.168076 Q 52.6 12.928658 52.6 12.609428 L 52.6 10.215233 Q 52.6 9.696487 53.118744 9.496979 L 54.515358 8.978233 Q 54.954292 8.778717 54.954292 8.339783 L 54.954292 2.5139008 Q 54.954292 2.1946793 55.17376 1.9752045 Q 55.393227 1.7557373 55.67255 1.7557373 Q 55.951874 1.7557373 56.19129 1.9752045 Q 56.430714 2.1946793 56.430714 2.5139008 L 56.430714 7.26239 Q 56.430714 7.5816193 56.65018 7.7811356 Q 56.869648 7.980652 57.188873 7.980652 Q 57.308586 7.980652 57.428295 7.94075 L 59.263844 7.2224884 Q 59.742683 7.022972 59.742683 6.5441284 L 59.742683 0.75816345 Q 59.742683 0.43893433 59.96215 0.21946716 Q 60.18162 0 60.500847 0 Q 60.78017 0 60.999638 0.21946716 Q 61.219105 0.43893433 61.219105 0.75816345 L 61.219105 5.5465546 Q 61.219105 5.8258743 61.41862 6.0253906 Q 61.618137 6.224907 61.89746 6.224907 Q 62.01717 6.224907 62.176785 6.185005 L 62.49601 6.0652924 Q 62.575817 6.0253906 62.775333 6.0253906 Q 63.09456 6.0253906 63.333977 6.2648087 Q 63.5734 6.5042267 63.5734 6.823456 L 63.5734 9.217651 Q 63.5734 9.7762985 63.054657 9.975815 L 61.697945 10.454651 Q 61.219105 10.574364 61.219105 11.133011 Z M 59.742683 17.038696 L 59.742683 12.210396 Q 59.742683 11.931076 59.523216 11.711609 Q 59.30375 11.492142 59.024426 11.492142 Q 58.904716 11.492142 58.785007 11.532043 L 56.909554 12.210396 Q 56.430714 12.409912 56.430714 12.888748 L 56.430714 17.717049 Q 56.430714 18.03627 56.63023 18.235794 Q 56.829746 18.435303 57.14897 18.435303 Q 57.26868 18.435303 57.38839 18.395401 L 59.263844 17.717049 Q 59.742683 17.517532 59.742683 17.038696 Z " fill="black"/>
    <path d="M 56.93555 73.3954 Q 56.93555 73.874245 57.334583 74.03385 Q 57.813423 74.233376 58.13265 73.91415 Q 60.766262 71.51995 60.766262 68.487305 Q 60.766262 67.40991 60.307377 66.61185 Q 59.848488 65.81378 59.050423 65.81378 Q 58.17255 65.81378 57.613907 66.571945 Q 57.05526 67.33011 57.015358 68.32769 L 56.93555 73.3954 Z M 58.05284 64.57678 Q 59.72878 63.738815 60.806168 63.738815 Q 62.32249 63.738815 63.240265 64.93591 Q 64.15804 66.13301 64.15804 67.808945 Q 64.15804 68.96614 63.818863 69.90387 Q 63.479687 70.8416 62.761425 71.619705 Q 62.043167 72.39782 61.424667 72.916565 Q 60.806168 73.4353 59.808586 74.173515 Q 58.811005 74.91173 58.29226 75.35066 Q 58.092743 75.51028 57.773518 75.94921 Q 57.454292 76.388145 57.155018 76.62757 Q 56.855743 76.86699 56.496613 76.86699 Q 56.09758 76.86699 55.83821 76.58766 Q 55.57884 76.30834 55.57884 75.86941 L 55.1 51.72793 Q 55.618744 51.408707 56.177387 51.408707 Q 56.736034 51.408707 57.254776 51.72793 L 57.015358 63.93833 Q 57.015358 64.337364 57.334583 64.53688 Q 57.69371 64.7763 58.05284 64.57678 Z " fill="black"/>
    <path d="M 48.719105 31.13301 L 48.719105 36.001205 Q 48.719105 36.320435 48.91862 36.51995 Q 49.118137 36.719467 49.437363 36.719467 Q 49.557076 36.719467 49.676785 36.679565 L 49.99601 36.559853 Q 50.11572 36.51995 50.275333 36.51995 Q 50.59456 36.51995 50.833977 36.75937 Q 51.0734 36.998787 51.0734 37.318016 L 51.0734 39.71221 Q 51.0734 40.23095 50.554657 40.430473 L 49.197945 40.94921 Q 48.719105 41.148727 48.719105 41.58766 L 48.719105 47.413536 Q 48.719105 47.732765 48.499638 47.952232 Q 48.28017 48.1717 48.000847 48.1717 Q 47.68162 48.1717 47.46215 47.952232 Q 47.242683 47.732765 47.242683 47.413536 L 47.242683 42.665054 Q 47.242683 42.345825 47.023216 42.14631 Q 46.80375 41.946793 46.524426 41.946793 Q 46.36481 41.946793 46.245102 41.986694 L 44.409554 42.704956 Q 43.930714 42.86457 43.930714 43.343407 L 43.930714 49.16929 Q 43.930714 49.48851 43.69129 49.707977 Q 43.451874 49.927444 43.17255 49.927444 Q 42.893227 49.927444 42.67376 49.707977 Q 42.454292 49.48851 42.454292 49.16929 L 42.454292 44.4208 Q 42.454292 44.10157 42.234825 43.902054 Q 42.015358 43.702538 41.736034 43.702538 Q 41.616325 43.702538 41.496613 43.74244 L 41.177387 43.862152 Q 41.09758 43.902054 40.898064 43.902054 Q 40.57884 43.902054 40.33942 43.662636 Q 40.1 43.42321 40.1 43.10399 L 40.1 40.709793 Q 40.1 40.151146 40.618744 39.95163 L 41.975452 39.472794 Q 42.454292 39.35308 42.454292 38.794434 L 42.454292 33.92624 Q 42.454292 33.60701 42.234825 33.407494 Q 42.015358 33.207977 41.736034 33.207977 Q 41.616325 33.207977 41.53652 33.24788 L 41.177387 33.36759 Q 41.09758 33.407494 40.898064 33.407494 Q 40.57884 33.407494 40.33942 33.168076 Q 40.1 32.928658 40.1 32.60943 L 40.1 30.215233 Q 40.1 29.696487 40.618744 29.496979 L 42.015358 28.978233 Q 42.454292 28.778717 42.454292 28.339783 L 42.454292 22.5139 Q 42.454292 22.19468 42.67376 21.975204 Q 42.893227 21.755737 43.17255 21.755737 Q 43.451874 21.755737 43.69129 21.975204 Q 43.930714 22.19468 43.930714 22.5139 L 43.930714 27.26239 Q 43.930714 27.58162 44.15018 27.781136 Q 44.369648 27.980652 44.688873 27.980652 Q 44.808586 27.980652 44.928295 27.94075 L 46.763844 27.222488 Q 47.242683 27.022972 47.242683 26.544128 L 47.242683 20.758163 Q 47.242683 20.438934 47.46215 20.219467 Q 47.68162 20 48.000847 20 Q 48.28017 20 48.499638 20.219467 Q 48.719105 20.438934 48.719105 20.758163 L 48.719105 25.546555 Q 48.719105 25.825874 48.91862 26.02539 Q 49.118137 26.224907 49.39746 26.224907 Q 49.51717 26.224907 49.676785 26.185005 L 49.99601 26.065292 Q 50.075817 26.02539 50.275333 26.02539 Q 50.59456 26.02539 50.833977 26.264809 Q 51.0734 26.504227 51.0734 26.823456 L 51.0734 29.217651 Q 51.0734 29.776299 50.554657 29.975815 L 49.197945 30.45465 Q 48.719105 30.574364 48.719105 31.13301 Z M 47.242683 37.038696 L 47.242683 32.210396 Q 47.242683 31.931076 47.023216 31.711609 Q 46.80375 31.492142 46.524426 31.492142 Q 46.404716 31.492142 46.285007 31.532043 L 44.409554 32.210396 Q 43.930714 32.409912 43.930714 32.88875 L 43.930714 37.71705 Q 43.930714 38.03627 44.13023 38.235794 Q 44.329746 38.435303 44.64897 38.435303 Q 44.76868 38.435303 44.88839 38.3954 L 46.763844 37.71705 Q 47.242683 37.517532 47.242683 37.038696 Z " fill="black"/>
    <path d="M 32.853325 52.781136 L 37.162876 51.90326 L 37.28259 51.90326 Q 38.000847 51.90326 38.000847 52.58162 L 38.28017 74.927444 Q 37.721523 75.206764 37.28259 75.206764 Q 36.84365 75.206764 36.285007 74.927444 L 36.404716 67.86457 Q 36.404716 67.58524 36.2052 67.365776 Q 36.005684 67.14631 35.68646 67.14631 Q 35.60665 67.14631 35.566746 67.14631 L 31.257195 68.06409 L 31.137486 68.06409 Q 30.419226 68.06409 30.419226 67.38573 L 30.1 45 Q 30.658646 44.720673 31.137486 44.720673 Q 31.57642 44.720673 32.135067 45 L 32.015358 52.022972 Q 32.015358 52.3422 32.214874 52.56167 Q 32.41439 52.781136 32.733616 52.781136 Q 32.773518 52.781136 32.853325 52.781136 Z M 32.69371 63.95405 L 35.84607 63.235794 Q 36.44462 63.11608 36.44462 62.517532 L 36.564327 56.73156 Q 36.564327 56.41233 36.32491 56.172913 Q 36.08549 55.933495 35.766262 56.013298 L 32.574 56.69165 Q 31.975454 56.811363 31.975454 57.37001 L 31.855743 63.275696 Q 31.855743 63.594917 32.115116 63.814392 Q 32.374485 64.03385 32.69371 63.95405 Z " fill="black"/>
    <path d="M 100.6 36.320435 Q 100.6 33.92624 103.23361 31.711609 Q 105.86723 29.496979 108.62056 29.496979 Q 109.73785 29.496979 110.75538 29.776299 Q 111.77292 30.055618 112.69069 31.053207 Q 113.60847 32.05078 113.60847 33.60701 Q 113.60847 35.80169 110.934944 38.11608 Q 108.26143 40.430473 105.587906 40.430473 Q 104.47062 40.430473 103.45309 40.151146 Q 102.43555 39.871826 101.51778 38.874237 Q 100.6 37.876663 100.6 36.320435 Z " fill="black"/>
    <path d="M 113.6 41.320435 Q 113.6 38.92624 116.23361 36.71161 Q 118.86723 34.49698 121.62056 34.49698 Q 122.73785 34.49698 123.75538 34.7763 Q 124.77292 35.05562 125.69069 36.053207 Q 126.60847 37.05078 126.60847 38.60701 Q 126.60847 40.80169 123.934944 43.11608 Q 121.26143 45.430473 118.587906 45.430473 Q 117.47062 45.430473 116.45309 45.151146 Q 115.43555 44.871826 114.51778 43.874237 Q 113.6 42.876663 113.6 41.320435 Z " fill="black"/>
    <path d="M 92.43555 38.3954 Q 92.43555 38.874245 92.83458 39.03385 Q 93.31342 39.233376 93.632645 38.914146 Q 96.266266 36.51995 96.266266 33.487305 Q 96.266266 32.409912 95.80737 31.611847 Q 95.34849 30.813782 94.55042 30.813782 Q 93.672554 30.813782 93.11391 31.571945 Q 92.55526 32.33011 92.51536 33.32769 L 92.43555 38.3954 Z M 93.55284 29.576782 Q 95.228775 28.738815 96.30617 28.738815 Q 97.822495 28.738815 98.740265 29.935913 Q 99.65804 31.13301 99.65804 32.808945 Q 99.65804 33.96614 99.31886 34.90387 Q 98.97968 35.8416 98.26143 36.619705 Q 97.54317 37.39782 96.92467 37.916565 Q 96.30617 38.435303 95.308586 39.173515 Q 94.311005 39.911728 93.79226 40.350662 Q 93.59274 40.510277 93.27352 40.94921 Q 92.95429 41.388145 92.65502 41.62757 Q 92.35574 41.86699 91.99661 41.86699 Q 91.59758 41.86699 91.33821 41.58766 Q 91.07884 41.308342 91.07884 40.869408 L 90.6 16.727928 Q 91.118744 16.408707 91.67739 16.408707 Q 92.23603 16.408707 92.754776 16.727928 L 92.51536 28.938332 Q 92.51536 29.337364 92.83458 29.53688 Q 93.19371 29.776299 93.55284 29.576782 Z " fill="black"/>
    <path d="M 86.71911 36.13301 L 86.71911 41.001205 Q 86.71911 41.320435 86.918625 41.51995 Q 87.11814 41.719467 87.43736 41.719467 Q 87.557076 41.719467 87.67678 41.679565 L 87.99601 41.559853 Q 88.11572 41.51995 88.27533 41.51995 Q 88.59456 41.51995 88.83398 41.75937 Q 89.073395 41.998787 89.073395 42.318016 L 89.073395 44.71221 Q 89.073395 45.23095 88.55466 45.430473 L 87.197945 45.94921 Q 86.71911 46.148727 86.71911 46.58766 L 86.71911 52.413536 Q 86.71911 52.732765 86.49963 52.952232 Q 86.28017 53.1717 86.00085 53.1717 Q 85.68162 53.1717 85.46215 52.952232 Q 85.24268 52.732765 85.24268 52.413536 L 85.24268 47.665054 Q 85.24268 47.345825 85.02322 47.14631 Q 84.80375 46.946793 84.52443 46.946793 Q 84.364815 46.946793 84.2451 46.986694 L 82.40955 47.704956 Q 81.93071 47.86457 81.93071 48.343407 L 81.93071 54.16929 Q 81.93071 54.48851 81.69129 54.707977 Q 81.45187 54.927444 81.172554 54.927444 Q 80.89323 54.927444 80.67376 54.707977 Q 80.45429 54.48851 80.45429 54.16929 L 80.45429 49.4208 Q 80.45429 49.10157 80.234825 48.902054 Q 80.01536 48.702538 79.73603 48.702538 Q 79.616325 48.702538 79.49661 48.74244 L 79.17739 48.862152 Q 79.09758 48.902054 78.89806 48.902054 Q 78.57884 48.902054 78.33942 48.662636 Q 78.1 48.42321 78.1 48.10399 L 78.1 45.709793 Q 78.1 45.151146 78.618744 44.95163 L 79.97546 44.472794 Q 80.45429 44.35308 80.45429 43.794434 L 80.45429 38.92624 Q 80.45429 38.60701 80.234825 38.407494 Q 80.01536 38.207977 79.73603 38.207977 Q 79.616325 38.207977 79.536514 38.24788 L 79.17739 38.36759 Q 79.09758 38.407494 78.89806 38.407494 Q 78.57884 38.407494 78.33942 38.168076 Q 78.1 37.928658 78.1 37.60943 L 78.1 35.215233 Q 78.1 34.696487 78.618744 34.49698 L 80.01536 33.978233 Q 80.45429 33.778717 80.45429 33.339783 L 80.45429 27.5139 Q 80.45429 27.19468 80.67376 26.975204 Q 80.89323 26.755737 81.172554 26.755737 Q 81.45187 26.755737 81.69129 26.975204 Q 81.93071 27.19468 81.93071 27.5139 L 81.93071 32.26239 Q 81.93071 32.58162 82.150185 32.781136 Q 82.36965 32.98065 82.68887 32.98065 Q 82.808586 32.98065 82.9283 32.94075 L 84.76385 32.22249 Q 85.24268 32.022972 85.24268 31.544128 L 85.24268 25.758163 Q 85.24268 25.438934 85.46215 25.219467 Q 85.68162 25 86.00085 25 Q 86.28017 25 86.49963 25.219467 Q 86.71911 25.438934 86.71911 25.758163 L 86.71911 30.546555 Q 86.71911 30.825874 86.918625 31.02539 Q 87.11814 31.224907 87.39746 31.224907 Q 87.51717 31.224907 87.67678 31.185005 L 87.99601 31.065292 Q 88.07581 31.02539 88.27533 31.02539 Q 88.59456 31.02539 88.83398 31.264809 Q 89.073395 31.504227 89.073395 31.823456 L 89.073395 34.21765 Q 89.073395 34.7763 88.55466 34.975815 L 87.197945 35.45465 Q 86.71911 35.574364 86.71911 36.13301 Z M 85.24268 42.038696 L 85.24268 37.210396 Q 85.24268 36.931076 85.02322 36.71161 Q 84.80375 36.49214 84.52443 36.49214 Q 84.40472 36.49214 84.285 36.532043 L 82.40955 37.210396 Q 81.93071 37.409912 81.93071 37.88875 L 81.93071 42.71705 Q 81.93071 43.03627 82.130226 43.235794 Q 82.32974 43.435303 82.64897 43.435303 Q 82.768684 43.435303 82.88839 43.3954 L 84.76385 42.71705 Q 85.24268 42.517532 85.24268 42.038696 Z " fill="black"/>
    <path d="M 126.6 46.320435 Q 126.6 43.92624 129.23361 41.71161 Q 131.86723 39.49698 134.62056 39.49698 Q 135.73785 39.49698 136.75539 39.7763 Q 137.77292 40.05562 138.69069 41.053207 Q 139.60846 42.05078 139.60846 43.60701 Q 139.60846 45.80169 136.93495 48.11608 Q 134.26143 50.430473 131.5879 50.430473 Q 130.47061 50.430473 129.45308 50.151146 Q 128.43555 49.871826 127.51778 48.874237 Q 126.6 47.876663 126.6 46.320435 Z " fill="black"/>
    <rect x="0.1" y="79.94921" width="30" height="40" fill="lightgray"/>
    <path d="M 0.1 120.442566 L 0.1 119.44498 L 40.00326 119.44498 L 40.00326 120.442566 L 0.1 120.442566 Z M 0.1 110.46674 L 0.1 109.46916 L 40.00326 109.46916 L 40.00326 110.46674 L 0.1 110.46674 Z M 0.1 100.49093 L 0.1 99.49335 L 40.00326 99.49335 L 40.00326 100.49093 L 0.1 100.49093 Z M 0.1 90.515114 L 0.1 89.51753 L 40.00326 89.51753 L 40.00326 90.515114 L 0.1 90.515114 Z M 0.1 80.53929 L 0.1 79.54172 L 40.00326 79.54172 L 40.00326 80.53929 L 0.1 80.53929 Z " fill="red"/>
    <path d="M 22.844862 94.95163 Q 22.844862 94.11366 23.44341 93.515114 Q 24.04196 92.916565 24.879927 92.916565 Q 25.717896 92.916565 26.316444 93.515114 Q 26.914993 94.11366 26.914993 94.95163 Q 26.914993 95.7896 26.316444 96.388145 Q 25.717896 96.986694 24.879927 96.986694 Q 24.04196 96.986694 23.44341 96.388145 Q 22.844862 95.7896 22.844862 94.95163 Z M 22.844862 84.975815 Q 22.844862 84.13785 23.44341 83.53929 Q 24.04196 82.94075 24.879927 82.94075 Q 25.717896 82.94075 26.316444 83.53929 Q 26.914993 84.13785 26.914993 84.975815 Q 26.914993 85.81378 26.316444 86.41233 Q 25.717896 87.01088 24.879927 87.01088 Q 24.04196 87.01088 23.44341 86.41233 Q 22.844862 85.81378 22.844862 84.975815 Z M 4.9681983 85.21523 Q 6.763845 85.21523 7.9210396 86.37243 Q 9.078235 87.529625 9.078235 89.20556 Q 9.078235 90.9613 7.9210396 92.1983 Q 6.763845 93.4353 5.087908 93.4353 Q 3.2922611 93.4353 1.9555018 92.1983 Q 0.61874247 90.9613 0.61874247 89.20556 Q 0.61874247 84.89601 3.4917774 82.18259 Q 6.3648124 79.46916 10.634462 79.46916 Q 15.462757 79.46916 18.515356 82.24244 Q 21.567957 85.01572 21.567957 89.48488 Q 21.567957 103.610634 1.0576783 112.66868 Q 0.77835554 112.78839 0.61874247 112.78839 Q 0.1 112.78839 0.1 112.269646 Q 0.1 111.990326 0.61874247 111.6711 Q 3.8110034 109.79565 5.905925 108.35912 Q 8.000847 106.92261 10.23543 104.88754 Q 12.470013 102.85248 13.746917 100.79746 Q 15.023821 98.74244 15.86179 95.94921 Q 16.699759 93.15598 16.699759 89.88391 Q 16.699759 85.73398 14.88416 83.22007 Q 13.068562 80.70616 9.9162035 80.70616 Q 8.000847 80.70616 6.444619 81.60399 Q 4.8883915 82.501816 4.2898426 84.058044 Q 4.1302295 84.57678 4.329746 84.85611 Q 4.609069 85.21523 4.9681983 85.21523 Z " fill="black"/>
    <path d="M 65.1 101.320435 Q 65.1 98.92624 67.73361 96.71161 Q 70.36723 94.49698 73.12056 94.49698 Q 74.23785 94.49698 75.25538 94.7763 Q 76.27292 95.05562 77.19069 96.05321 Q 78.10847 97.05078 78.10847 98.60701 Q 78.10847 100.80169 75.434944 103.11608 Q 72.76143 105.43047 70.087906 105.43047 Q 68.97062 105.43047 67.95309 105.151146 Q 66.93555 104.871826 66.01778 103.87424 Q 65.1 102.87666 65.1 101.320435 Z " fill="black"/>
    <path d="M 113.6 101.320435 Q 113.6 98.92624 116.23361 96.71161 Q 118.86723 94.49698 121.62056 94.49698 Q 122.73785 94.49698 123.75538 94.7763 Q 124.77292 95.05562 125.69069 96.05321 Q 126.60847 97.05078 126.60847 98.60701 Q 126.60847 100.80169 123.934944 103.11608 Q 121.26143 105.43047 118.587906 105.43047 Q 117.47062 105.43047 116.45309 105.151146 Q 115.43555 104.871826 114.51778 103.87424 Q 113.6 102.87666 113.6 101.320435 Z " fill="black"/>
    <rect x="126.6" y="99.94921" width="1" height="1" fill="orange"/>
    <line x1="0" y1="39.94921" x2="0.1" y2="159.94922" stroke="rgba(0,0,0,0.2)" stroke-width="0.2"/>
    <line x1="65" y1="39.94921" x2="65.1" y2="159.94922" stroke="rgba(0,0,0,0.2)" stroke-width="0.2"/>
    <line x1="113.5" y1="39.94921" x2="113.6" y2="159.94922" stroke="rgba(0,0,0,0.2)" stroke-width="0.2"/>
    <line x1="126.5" y1="39.94921" x2="126.6" y2="159.94922" stroke="rgba(0,0,0,0.2)" stroke-width="0.2"/>
    <line x1="139.5" y1="39.94921" x2="139.6" y2="159.94922" stroke="rgba(0,0,0,0.2)" stroke-width="0.2"/>
</svg>
