<svg xmlns="http://www.w3.org/2000/svg" xmlns:xlink="http://www.w3.org/1999/xlink" width="145.57143" height="79.66143" viewBox="0 0 145.57143 79.66143">
    <rect x="0" y="0" width="145.57143" height="79.66143" fill="white"/>
    <line x1="3" y1="18.874245" x2="45" y2="18.874245" stroke="black" stroke-width="1"/>
    <line x1="3" y1="28.874245" x2="45" y2="28.874245" stroke="black" stroke-width="1"/>
    <line x1="3" y1="38.874245" x2="45" y2="38.874245" stroke="black" stroke-width="1"/>
    <line x1="3" y1="48.874245" x2="45" y2="48.874245" stroke="black" stroke-width="1"/>
    <line x1="3" y1="58.874245" x2="45" y2="58.874245" stroke="black" stroke-width="1"/>
    <line x1="45" y1="18.874245" x2="73.57143" y2="18.874245" stroke="black" stroke-width="1"/>
    <line x1="45" y1="28.874245" x2="73.57143" y2="28.874245" stroke="black" stroke-width="1"/>
    <line x1="45" y1="38.874245" x2="73.57143" y2="38.874245" stroke="black" stroke-width="1"/>
    <line x1="45" y1="48.874245" x2="73.57143" y2="48.874245" stroke="black" stroke-width="1"/>
    <line x1="45" y1="58.874245" x2="73.57143" y2="58.874245" stroke="black" stroke-width="1"/>
    <line x1="73.57143" y1="18.874245" x2="96.57143" y2="18.874245" stroke="black" stroke-width="1"/>
    <line x1="73.57143" y1="28.874245" x2="96.57143" y2="28.874245" stroke="black" stroke-width="1"/>
    <line x1="73.57143" y1="38.874245" x2="96.57143" y2="38.874245" stroke="black" stroke-width="1"/>
    <line x1="73.57143" y1="48.874245" x2="96.57143" y2="48.874245" stroke="black" stroke-width="1"/>
    <line x1="73.57143" y1="58.874245" x2="96.57143" y2="58.874245" stroke="black" stroke-width="1"/>
    <line x1="96.57143" y1="18.874245" x2="119.57143" y2="18.874245" stroke="black" stroke-width="1"/>
    <line x1="96.57143" y1="28.874245" x2="119.57143" y2="28.874245" stroke="black" stroke-width="1"/>
    <line x1="96.57143" y1="38.874245" x2="119.57143" y2="38.874245" stroke="black" stroke-width="1"/>
    <line x1="96.57143" y1="48.874245" x2="119.57143" y2="48.874245" stroke="black" stroke-width="1"/>
    <line x1="96.57143" y1="58.874245" x2="119.57143" y2="58.874245" stroke="black" stroke-width="1"/>
    <line x1="119.57143" y1="18.874245" x2="142.57143" y2="18.874245" stroke="black" stroke-width="1"/>
    <line x1="119.57143" y1="28.874245" x2="142.57143" y2="28.874245" stroke="black" stroke-width="1"/>
    <line x1="119.57143" y1="38.874245" x2="142.57143" y2="38.874245" stroke="black" stroke-width="1"/>
    <line x1="119.57143" y1="48.874245" x2="142.57143" y2="48.874245" stroke="black" stroke-width="1"/>
    <line x1="119.57143" y1="58.874245" x2="142.57143" y2="58.874245" stroke="black" stroke-width="1"/>
    <g transform="translate(0, -50)" visibility="hidden">
        <path id="e82085518de02647a4435b6981516df1" d="M 12.896009 76.343414 Q 11.978234 73.43047 11.619105 71.15599 Q 11.299879 69.24063 11.299879 66.68682 Q 11.299879 65.808945 11.339783 64.931076 Q 11.499395 61.140266 12.896009 57.967957 Q 14.2926235 54.795647 17.085854 53.119713 Q 17.28537 53 17.604595 53 Q 17.883919 53 18.083435 53.199516 Q 20.318016 55.4341 21.515114 58.905685 Q 22.712214 62.37727 22.712214 65.92866 Q 22.712214 70.0387 20.956469 73.98912 Q 19.280533 77.939545 16.247883 80.97219 Q 16.008465 81.21161 16.088272 81.61064 L 17.684402 87.99516 Q 17.804111 88.63362 18.482468 88.55381 Q 19.120918 88.474 19.719467 88.474 Q 22.033857 88.474 23.909311 89.39178 Q 25.784763 90.309555 26.94196 91.78597 Q 28.099154 93.26239 28.717653 95.038086 Q 29.336155 96.81378 29.336155 98.68924 Q 29.336155 102.12092 27.420797 104.894196 Q 25.505442 107.66747 22.831923 108.54534 Q 22.273277 108.744865 22.392986 109.383316 Q 23.390568 114.091896 23.430471 117.324066 Q 23.430471 118.561066 23.270859 119.75816 Q 22.951632 122.51149 20.876663 124.58646 Q 18.801693 126.66143 15.928658 126.66143 Q 12.417171 126.66143 9.983071 124.546555 Q 7.548972 122.43168 7.548972 119 Q 7.548972 117.244255 8.785974 115.967354 Q 10.022974 114.69045 11.698912 114.69045 Q 13.414752 114.69045 14.591898 115.90749 Q 15.769045 117.12455 15.769045 118.80048 Q 15.769045 120.237 14.811366 121.31439 Q 13.853688 122.43168 12.496977 122.55139 Q 12.018138 122.59129 11.858524 123.030235 Q 11.698912 123.46917 12.177751 123.8283 Q 13.614268 124.94559 15.689239 124.94559 Q 17.963724 124.94559 19.619709 123.309555 Q 21.275696 121.673515 21.555017 119.59855 Q 21.754534 118.16203 21.754534 116.72552 Q 21.754534 113.61306 20.796856 109.82225 Q 20.637243 109.1439 19.918983 109.2237 Q 18.322853 109.42322 16.966143 109.42322 Q 11.060459 109.42322 7.0302296 105.71221 Q 3 102.001205 3 95.616684 Q 3 93.66142 3.4588876 91.76602 Q 3.9177752 89.87062 4.496372 88.49396 Q 5.07497 87.117294 6.2920194 85.3017 Q 7.509069 83.4861 8.247279 82.52842 Q 8.98549 81.57074 10.58162 79.67533 Q 12.177751 77.77993 12.776299 77.02177 Q 13.015719 76.74245 12.896009 76.343414 Z M 19.120918 94.57921 L 21.71463 106.35067 Q 21.834341 106.86941 22.43289 106.86941 Q 22.592503 106.86941 22.712214 106.829506 Q 24.348246 106.151146 25.425634 104.195885 Q 26.503023 102.24063 26.503023 100.32527 Q 26.503023 97.53204 24.86699 95.616684 Q 23.191051 93.66142 19.839178 93.66142 Q 19.559855 93.66142 19.340387 93.8809 Q 19.120918 94.100365 19.120918 94.379684 Q 19.081017 94.4994 19.120918 94.57921 Z M 13.614268 83.4861 Q 12.975816 84.20435 11.7188635 85.541115 Q 10.46191 86.87787 9.8434105 87.57618 Q 9.224909 88.27449 8.3270855 89.55139 Q 7.429262 90.82829 6.9903264 91.905685 Q 6.5513906 92.98308 6.2122126 94.5393 Q 5.873035 96.09553 5.873035 97.85127 Q 5.873035 100.28537 7.3694077 102.55986 Q 8.86578 104.83434 11.479444 106.27086 Q 14.093107 107.707375 17.085854 107.707375 Q 18.16324 107.707375 19.48005 107.58767 Q 19.799274 107.54777 19.99879 107.28839 Q 20.198307 107.02902 20.1185 106.7098 L 17.524788 94.77872 Q 17.405079 94.22008 16.766626 94.22008 Q 16.646915 94.22008 16.487305 94.25998 Q 14.651753 94.93833 13.893591 96.17534 Q 13.135429 97.41234 13.135429 99.28779 Q 13.135429 101.48247 15.529625 103.0786 Q 15.808948 103.278114 15.808948 103.67715 Q 15.808948 103.996376 15.549577 104.275696 Q 15.290205 104.555016 14.931076 104.555016 Q 14.73156 104.555016 14.571947 104.47521 Q 12.297461 103.278114 11.200121 101.2231 Q 10.102781 99.168076 10.102781 96.89359 Q 10.102781 94.69891 11.67896 92.36457 Q 13.255139 90.03023 15.609431 89.15236 Q 16.207981 88.91294 16.088272 88.31439 L 14.891172 83.80532 Q 14.811366 83.36639 14.332527 83.286575 Q 13.853688 83.20677 13.614268 83.4861 Z M 20.318016 60.262394 Q 19.99879 59.22491 19.24063 59.22491 Q 19.00121 59.22491 18.801693 59.34462 Q 16.247883 60.860943 14.751512 63.61427 Q 13.255139 66.3676 13.255139 69.44015 Q 13.255139 71.43531 14.093107 74.34825 Q 14.212817 74.787186 14.691656 74.86699 Q 15.090689 74.90689 15.370012 74.58767 Q 15.489722 74.428055 16.507256 73.171104 Q 17.524788 71.91415 17.844013 71.49516 Q 18.16324 71.07618 18.921402 69.89903 Q 19.679565 68.721886 19.97884 67.94377 Q 20.278114 67.165665 20.557436 66.00847 Q 20.83676 64.85127 20.83676 63.694077 Q 20.83676 62.01814 20.318016 60.262394 Z "/>
    </g>
    <use href="#e82085518de02647a4435b6981516df1" x="0" y="-50"/>
    <g transform="translate(42, -55)" visibility="hidden">
        <path id="44c00b032493ed7ceb3921b2d2a9b3cd" d="M 3 100.24547 Q 3 97.85127 5.6336155 95.63664 Q 8.267231 93.42201 11.020556 93.42201 Q 12.137848 93.42201 13.155381 93.70133 Q 14.1729145 93.98065 15.090689 94.97824 Q 16.008465 95.975815 16.008465 97.53204 Q 16.008465 99.72672 13.334946 102.041115 Q 10.661427 104.35551 7.987908 104.35551 Q 6.870617 104.35551 5.8530836 104.07618 Q 4.8355503 103.79686 3.9177752 102.79927 Q 3 101.8017 3 100.24547 Z "/>
    </g>
    <use href="#44c00b032493ed7ceb3921b2d2a9b3cd" x="42" y="-55"/>
    <rect x="56.571426" y="8.874245" width="1.4285715" height="35" fill="black"/>
    <path d="M 57.209877 8.888756 L 57.84833 8.888756 Q 57.84833 11.043533 58.706253 13.318016 Q 59.56417 15.592506 60.78122 17.547768 Q 61.99827 19.503021 63.23527 21.478233 Q 64.472275 23.453445 65.33019 25.727936 Q 66.18811 28.002419 66.18811 30.157196 Q 66.18811 34.666267 64.51218 38.417175 Q 64.23285 38.89601 63.754013 38.89601 Q 63.35498 38.89601 63.055706 38.576782 Q 62.75643 38.25757 62.83624 37.818626 Q 64.51218 34.46675 64.51218 30.31681 Q 64.51218 25.767838 59.08533 20.181381 Q 58.845913 19.941963 58.56659 19.941963 Q 58.287266 19.941963 58.0678 20.16143 Q 57.84833 20.380898 57.84833 20.700119 L 57.84833 22.01693 L 57.209877 22.01693 L 57.209877 8.888756 Z " fill="black"/>
    <rect x="33" y="28.874245" width="12" height="20" fill="rgba(0,0,0,0.1)"/>
    <path d="M 79.83624 36.295044 Q 78.1603 36.73398 77.043015 36.73398 Q 75.64639 36.73398 74.60891 35.83615 Q 73.57143 34.93833 73.57143 33.58162 Q 73.57143 32.38452 74.429344 31.546555 Q 75.28727 30.708588 76.48437 30.708588 Q 77.24252 30.708588 77.86103 31.127571 Q 78.47953 31.546555 78.71895 32.264816 Q 78.79875 32.504234 78.95837 33.28235 Q 79.11798 34.060455 79.3574 34.339783 Q 79.59682 34.61911 80.11556 34.61911 Q 80.5545 34.61911 81.412415 33.64148 Q 82.27034 32.66385 82.54966 32.1052 Q 82.709274 31.74607 83.10831 31.74607 Q 83.50734 31.74607 83.666954 32.1052 L 78.75885 48.86457 Q 78.319916 49.263603 77.681465 49.263603 Q 77.003105 49.263603 76.56417 48.86457 L 80.71411 37.252724 Q 80.873726 36.81378 80.5944 36.534462 Q 80.27518 36.13543 79.83624 36.295044 Z " fill="black"/>
    <use href="#44c00b032493ed7ceb3921b2d2a9b3cd" x="93.57143" y="-65" fill="black"/>
    <rect x="96.57143" y="33.874245" width="1.4285715" height="35" fill="black"/>
    <path d="M 98.92572 58.23459 Q 106.90637 53.246674 106.90637 48.577995 Q 106.90637 45.425636 105.27034 42.07376 Q 105.19053 41.634827 105.48981 41.315598 Q 105.78908 40.996376 106.18811 40.996376 Q 106.706856 40.996376 106.986176 41.43531 Q 108.582306 45.026604 108.582306 48.577995 Q 108.582306 50.214027 107.98376 51.810158 Q 107.38521 53.40629 106.44749 54.74305 Q 105.50976 56.079803 104.37251 57.396614 Q 103.235275 58.713425 102.07808 60.050186 Q 100.92088 61.38694 99.983154 62.7237 Q 99.045425 64.06046 98.44688 65.65659 Q 97.84833 67.25272 97.84833 68.888756 L 97.20988 68.888756 L 97.20988 56.119713 L 97.84833 56.119713 L 97.84833 57.59613 Q 97.84833 57.91536 98.067795 58.114876 Q 98.28727 58.314392 98.56659 58.314392 Q 98.766106 58.314392 98.92572 58.23459 Z " fill="black"/>
    <path d="M 125.83624 36.295044 Q 124.1603 36.73398 123.043015 36.73398 Q 121.64639 36.73398 120.60891 35.83615 Q 119.57143 34.93833 119.57143 33.58162 Q 119.57143 32.38452 120.429344 31.546555 Q 121.28727 30.708588 122.48437 30.708588 Q 123.24252 30.708588 123.86103 31.127571 Q 124.47953 31.546555 124.71895 32.264816 Q 124.79875 32.504234 124.95837 33.28235 Q 125.11798 34.060455 125.3574 34.339783 Q 125.59682 34.61911 126.11556 34.61911 Q 126.5545 34.61911 127.412415 33.64148 Q 128.27034 32.66385 128.54967 32.1052 Q 128.70927 31.74607 129.1083 31.74607 Q 129.50734 31.74607 129.66695 32.1052 L 124.75885 48.86457 Q 124.319916 49.263603 123.681465 49.263603 Q 123.003105 49.263603 122.56417 48.86457 L 126.71411 37.252724 Q 126.873726 36.81378 126.5944 36.534462 Q 126.27518 36.13543 125.83624 36.295044 Z " fill="black"/>
</svg>
