<svg xmlns="http://www.w3.org/2000/svg" xmlns:xlink="http://www.w3.org/1999/xlink" width="56.1" height="112" viewBox="0 0 56.1 112">
    <rect x="0" y="0" width="56.1" height="112" fill="white"/>
    <rect x="0.1" y="0" width="16" height="32" fill="lightgray"/>
    <rect x="20.9" y="12" width="8" height="8" fill="dodgerblue"/>
    <rect x="16.099998" y="11.2" width="4.8" height="9.6" fill="purple"/>
    <rect x="33.699997" y="8" width="8" height="8" fill="dodgerblue"/>
    <rect x="33.699997" y="24" width="8" height="8" fill="dodgerblue"/>
    <rect x="28.9" y="7.2" width="4.8" height="9.6" fill="purple"/>
    <rect x="24.099998" y="23.2" width="4.8" height="9.6" fill="purple"/>
    <rect x="46.499996" y="12" width="8" height="8" fill="dodgerblue"/>
    <rect x="41.699997" y="11.2" width="4.8" height="9.6" fill="purple"/>
    <rect x="0.1" y="48" width="16" height="32" fill="lightgray"/>
    <rect x="20.9" y="60" width="9.6" height="8" fill="dodgerblue"/>
    <rect x="33.699997" y="64" width="1" height="1" fill="orange"/>
    <rect x="46.499996" y="56" width="9.6" height="8" fill="dodgerblue"/>
    <rect x="46.499996" y="68" width="9.6" height="8" fill="dodgerblue"/>
    <rect x="41.699997" y="55.2" width="4.8" height="9.6" fill="purple"/>
    <rect x="36.899994" y="67.2" width="4.8" height="9.6" fill="purple"/>
    <line x1="0" y1="16" x2="0.1" y2="112" stroke="rgba(0,0,0,0.2)" stroke-width="0.2"/>
    <line x1="20.8" y1="16" x2="20.9" y2="112" stroke="rgba(0,0,0,0.2)" stroke-width="0.2"/>
    <line x1="33.6" y1="16" x2="33.699997" y2="112" stroke="rgba(0,0,0,0.2)" stroke-width="0.2"/>
    <line x1="46.399998" y1="16" x2="46.499996" y2="112" stroke="rgba(0,0,0,0.2)" stroke-width="0.2"/>
    <line x1="56" y1="16" x2="56.1" y2="112" stroke="rgba(0,0,0,0.2)" stroke-width="0.2"/>
</svg>
