<svg xmlns="http://www.w3.org/2000/svg" xmlns:xlink="http://www.w3.org/1999/xlink" width="72.4" height="120" viewBox="0 0 72.4 120">
    <rect x="0" y="0" width="72.4" height="120" fill="white"/>
    <line x1="8" y1="0" x2="40.2" y2="0" stroke="black" stroke-width="1"/>
    <line x1="8" y1="10" x2="40.2" y2="10" stroke="black" stroke-width="1"/>
    <line x1="8" y1="20" x2="40.2" y2="20" stroke="black" stroke-width="1"/>
    <line x1="8" y1="30" x2="40.2" y2="30" stroke="black" stroke-width="1"/>
    <line x1="8" y1="40" x2="40.2" y2="40" stroke="black" stroke-width="1"/>
    <line x1="40.2" y1="0" x2="72.4" y2="0" stroke="black" stroke-width="1"/>
    <line x1="40.2" y1="10" x2="72.4" y2="10" stroke="black" stroke-width="1"/>
    <line x1="40.2" y1="20" x2="72.4" y2="20" stroke="black" stroke-width="1"/>
    <line x1="40.2" y1="30" x2="72.4" y2="30" stroke="black" stroke-width="1"/>
    <line x1="40.2" y1="40" x2="72.4" y2="40" stroke="black" stroke-width="1"/>
    <line x1="8" y1="80" x2="40.2" y2="80" stroke="black" stroke-width="1"/>
    <line x1="8" y1="90" x2="40.2" y2="90" stroke="black" stroke-width="1"/>
    <line x1="8" y1="100" x2="40.2" y2="100" stroke="black" stroke-width="1"/>
    <line x1="8" y1="110" x2="40.2" y2="110" stroke="black" stroke-width="1"/>
    <line x1="8" y1="120" x2="40.2" y2="120" stroke="black" stroke-width="1"/>
    <line x1="40.2" y1="80" x2="72.4" y2="80" stroke="black" stroke-width="1"/>
    <line x1="40.2" y1="90" x2="72.4" y2="90" stroke="black" stroke-width="1"/>
    <line x1="40.2" y1="100" x2="72.4" y2="100" stroke="black" stroke-width="1"/>
    <line x1="40.2" y1="110" x2="72.4" y2="110" stroke="black" stroke-width="1"/>
    <line x1="40.2" y1="120" x2="72.4" y2="120" stroke="black" stroke-width="1"/>
    <path d="M 8 21.371223 Q 8 18.977028 10.6336155 16.76239 Q 13.267231 14.54776 16.020557 14.54776 Q 17.137848 14.54776 18.15538 14.827087 Q 19.172915 15.106415 20.090689 16.103989 Q 21.008465 17.101578 21.008465 18.657799 Q 21.008465 20.852478 18.334946 23.16687 Q 15.661427 25.481262 12.987907 25.481262 Q 11.870617 25.481262 10.853084 25.201935 Q 9.83555 24.922615 8.917775 23.925034 Q 8 22.927444 8 21.371223 Z " fill="black"/>
    <rect x="8" y="20" width="1.4285715" height="35" fill="black"/>
    <rect x="0" y="10" width="8" height="20" fill="gray"/>
    <path d="M 40.2 21.371223 Q 40.2 18.977028 42.83362 16.76239 Q 45.46723 14.54776 48.22056 14.54776 Q 49.33785 14.54776 50.35538 14.827087 Q 51.372917 15.106415 52.290688 16.103989 Q 53.208466 17.101578 53.208466 18.657799 Q 53.208466 20.852478 50.534946 23.16687 Q 47.861427 25.481262 45.18791 25.481262 Q 44.070618 25.481262 43.053085 25.201935 Q 42.035553 24.922615 41.117775 23.925034 Q 40.2 22.927444 40.2 21.371223 Z " fill="black"/>
    <rect x="40.2" y="20" width="1.4285715" height="35" fill="black"/>
    <rect x="8" y="100" width="1" height="1" fill="orange"/>
    <rect x="40.2" y="100" width="1" height="1" fill="orange"/>
</svg>
