<svg xmlns="http://www.w3.org/2000/svg" xmlns:xlink="http://www.w3.org/1999/xlink" width="215" height="130.87424" viewBox="0 0 215 130.87424">
    <rect x="0" y="0" width="215" height="130.87424" fill="white"/>
    <line x1="0" y1="15.874245" x2="38" y2="15.874245" stroke="black" stroke-width="1"/>
    <line x1="0" y1="25.874245" x2="38" y2="25.874245" stroke="black" stroke-width="1"/>
    <line x1="0" y1="35.874245" x2="38" y2="35.874245" stroke="black" stroke-width="1"/>
    <line x1="0" y1="45.874245" x2="38" y2="45.874245" stroke="black" stroke-width="1"/>
    <line x1="0" y1="55.874245" x2="38" y2="55.874245" stroke="black" stroke-width="1"/>
    <line x1="38" y1="15.874245" x2="61" y2="15.874245" stroke="black" stroke-width="1"/>
    <line x1="38" y1="25.874245" x2="61" y2="25.874245" stroke="black" stroke-width="1"/>
    <line x1="38" y1="35.874245" x2="61" y2="35.874245" stroke="black" stroke-width="1"/>
    <line x1="38" y1="45.874245" x2="61" y2="45.874245" stroke="black" stroke-width="1"/>
    <line x1="38" y1="55.874245" x2="61" y2="55.874245" stroke="black" stroke-width="1"/>
    <line x1="61" y1="15.874245" x2="83" y2="15.874245" stroke="black" stroke-width="1"/>
    <line x1="61" y1="25.874245" x2="83" y2="25.874245" stroke="black" stroke-width="1"/>
    <line x1="61" y1="35.874245" x2="83" y2="35.874245" stroke="black" stroke-width="1"/>
    <line x1="61" y1="45.874245" x2="83" y2="45.874245" stroke="black" stroke-width="1"/>
    <line x1="61" y1="55.874245" x2="83" y2="55.874245" stroke="black" stroke-width="1"/>
    <line x1="83" y1="15.874245" x2="105" y2="15.874245" stroke="black" stroke-width="1"/>
    <line x1="83" y1="25.874245" x2="105" y2="25.874245" stroke="black" stroke-width="1"/>
    <line x1="83" y1="35.874245" x2="105" y2="35.874245" stroke="black" stroke-width="1"/>
    <line x1="83" y1="45.874245" x2="105" y2="45.874245" stroke="black" stroke-width="1"/>
    <line x1="83" y1="55.874245" x2="105" y2="55.874245" stroke="black" stroke-width="1"/>
    <line x1="105" y1="15.874245" x2="127" y2="15.874245" stroke="black" stroke-width="1"/>
    <line x1="105" y1="25.874245" x2="127" y2="25.874245" stroke="black" stroke-width="1"/>
    <line x1="105" y1="35.874245" x2="127" y2="35.874245" stroke="black" stroke-width="1"/>
    <line x1="105" y1="45.874245" x2="127" y2="45.874245" stroke="black" stroke-width="1"/>
    <line x1="105" y1="55.874245" x2="127" y2="55.874245" stroke="black" stroke-width="1"/>
    <line x1="127" y1="15.874245" x2="149" y2="15.874245" stroke="black" stroke-width="1"/>
    <line x1="127" y1="25.874245" x2="149" y2="25.874245" stroke="black" stroke-width="1"/>
    <line x1="127" y1="35.874245" x2="149" y2="35.874245" stroke="black" stroke-width="1"/>
    <line x1="127" y1="45.874245" x2="149" y2="45.874245" stroke="black" stroke-width="1"/>
    <line x1="127" y1="55.874245" x2="149" y2="55.874245" stroke="black" stroke-width="1"/>
    <line x1="149" y1="15.874245" x2="171" y2="15.874245" stroke="black" stroke-width="1"/>
    <line x1="149" y1="25.874245" x2="171" y2="25.874245" stroke="black" stroke-width="1"/>
    <line x1="149" y1="35.874245" x2="171" y2="35.874245" stroke="black" stroke-width="1"/>
    <line x1="149" y1="45.874245" x2="171" y2="45.874245" stroke="black" stroke-width="1"/>
    <line x1="149" y1="55.874245" x2="171" y2="55.874245" stroke="black" stroke-width="1"/>
    <line x1="171" y1="15.874245" x2="193" y2="15.874245" stroke="black" stroke-width="1"/>
    <line x1="171" y1="25.874245" x2="193" y2="25.874245" stroke="black" stroke-width="1"/>
    <line x1="171" y1="35.874245" x2="193" y2="35.874245" stroke="black" stroke-width="1"/>
    <line x1="171" y1="45.874245" x2="193" y2="45.874245" stroke="black" stroke-width="1"/>
    <line x1="171" y1="55.874245" x2="193" y2="55.874245" stroke="black" stroke-width="1"/>
    <line x1="193" y1="15.874245" x2="215" y2="15.874245" stroke="black" stroke-width="1"/>
    <line x1="193" y1="25.874245" x2="215" y2="25.874245" stroke="black" stroke-width="1"/>
    <line x1="193" y1="35.874245" x2="215" y2="35.874245" stroke="black" stroke-width="1"/>
    <line x1="193" y1="45.874245" x2="215" y2="45.874245" stroke="black" stroke-width="1"/>
    <line x1="193" y1="55.874245" x2="215" y2="55.874245" stroke="black" stroke-width="1"/>
    <line x1="0" y1="75.874245" x2="38" y2="75.874245" stroke="black" stroke-width="1"/>
    <line x1="0" y1="85.874245" x2="38" y2="85.874245" stroke="black" stroke-width="1"/>
    <line x1="0" y1="95.874245" x2="38" y2="95.874245" stroke="black" stroke-width="1"/>
    <line x1="0" y1="105.874245" x2="38" y2="105.874245" stroke="black" stroke-width="1"/>
    <line x1="0" y1="115.874245" x2="38" y2="115.874245" stroke="black" stroke-width="1"/>
    <line x1="38" y1="75.874245" x2="61" y2="75.874245" stroke="black" stroke-width="1"/>
    <line x1="38" y1="85.874245" x2="61" y2="85.874245" stroke="black" stroke-width="1"/>
    <line x1="38" y1="95.874245" x2="61" y2="95.874245" stroke="black" stroke-width="1"/>
    <line x1="38" y1="105.874245" x2="61" y2="105.874245" stroke="black" stroke-width="1"/>
    <line x1="38" y1="115.874245" x2="61" y2="115.874245" stroke="black" stroke-width="1"/>
    <line x1="61" y1="75.874245" x2="83" y2="75.874245" stroke="black" stroke-width="1"/>
    <line x1="61" y1="85.874245" x2="83" y2="85.874245" stroke="black" stroke-width="1"/>
    <line x1="61" y1="95.874245" x2="83" y2="95.874245" stroke="black" stroke-width="1"/>
    <line x1="61" y1="105.874245" x2="83" y2="105.874245" stroke="black" stroke-width="1"/>
    <line x1="61" y1="115.874245" x2="83" y2="115.874245" stroke="black" stroke-width="1"/>
    <line x1="83" y1="75.874245" x2="105" y2="75.874245" stroke="black" stroke-width="1"/>
    <line x1="83" y1="85.874245" x2="105" y2="85.874245" stroke="black" stroke-width="1"/>
    <line x1="83" y1="95.874245" x2="105" y2="95.874245" stroke="black" stroke-width="1"/>
    <line x1="83" y1="105.874245" x2="105" y2="105.874245" stroke="black" stroke-width="1"/>
    <line x1="83" y1="115.874245" x2="105" y2="115.874245" stroke="black" stroke-width="1"/>
    <line x1="105" y1="75.874245" x2="127" y2="75.874245" stroke="black" stroke-width="1"/>
    <line x1="105" y1="85.874245" x2="127" y2="85.874245" stroke="black" stroke-width="1"/>
    <line x1="105" y1="95.874245" x2="127" y2="95.874245" stroke="black" stroke-width="1"/>
    <line x1="105" y1="105.874245" x2="127" y2="105.874245" stroke="black" stroke-width="1"/>
    <line x1="105" y1="115.874245" x2="127" y2="115.874245" stroke="black" stroke-width="1"/>
    <line x1="127" y1="75.874245" x2="149" y2="75.874245" stroke="black" stroke-width="1"/>
    <line x1="127" y1="85.874245" x2="149" y2="85.874245" stroke="black" stroke-width="1"/>
    <line x1="127" y1="95.874245" x2="149" y2="95.874245" stroke="black" stroke-width="1"/>
    <line x1="127" y1="105.874245" x2="149" y2="105.874245" stroke="black" stroke-width="1"/>
    <line x1="127" y1="115.874245" x2="149" y2="115.874245" stroke="black" stroke-width="1"/>
    <line x1="149" y1="75.874245" x2="171" y2="75.874245" stroke="black" stroke-width="1"/>
    <line x1="149" y1="85.874245" x2="171" y2="85.874245" stroke="black" stroke-width="1"/>
    <line x1="149" y1="95.874245" x2="171" y2="95.874245" stroke="black" stroke-width="1"/>
    <line x1="149" y1="105.874245" x2="171" y2="105.874245" stroke="black" stroke-width="1"/>
    <line x1="149" y1="115.874245" x2="171" y2="115.874245" stroke="black" stroke-width="1"/>
    <line x1="171" y1="75.874245" x2="193" y2="75.874245" stroke="black" stroke-width="1"/>
    <line x1="171" y1="85.874245" x2="193" y2="85.874245" stroke="black" stroke-width="1"/>
    <line x1="171" y1="95.874245" x2="193" y2="95.874245" stroke="black" stroke-width="1"/>
    <line x1="171" y1="105.874245" x2="193" y2="105.874245" stroke="black" stroke-width="1"/>
    <line x1="171" y1="115.874245" x2="193" y2="115.874245" stroke="black" stroke-width="1"/>
    <line x1="193" y1="75.874245" x2="215" y2="75.874245" stroke="black" stroke-width="1"/>
    <line x1="193" y1="85.874245" x2="215" y2="85.874245" stroke="black" stroke-width="1"/>
    <line x1="193" y1="95.874245" x2="215" y2="95.874245" stroke="black" stroke-width="1"/>
    <line x1="193" y1="105.874245" x2="215" y2="105.874245" stroke="black" stroke-width="1"/>
    <line x1="193" y1="115.874245" x2="215" y2="115.874245" stroke="black" stroke-width="1"/>
    <path d="M 9.896009 23.343414 Q 8.978234 20.430473 8.619105 18.15599 Q 8.299879 16.240631 8.299879 13.686821 Q 8.299879 12.8089485 8.339783 11.931076 Q 8.499395 8.140266 9.896009 4.9679565 Q 11.2926235 1.7956467 14.085853 0.11971283 Q 14.285369 0 14.604595 0 Q 14.883918 0 15.083434 0.1995163 Q 17.318016 2.434101 18.515114 5.9056854 Q 19.712214 9.37727 19.712214 12.928658 Q 19.712214 17.038696 17.956469 20.98912 Q 16.280533 24.939545 13.247884 27.97219 Q 13.008464 28.211609 13.088271 28.610641 L 14.6844015 34.995163 Q 14.8041115 35.63362 15.482467 35.55381 Q 16.120918 35.474 16.719467 35.474 Q 19.033857 35.474 20.909311 36.391777 Q 22.784763 37.309555 23.94196 38.785973 Q 25.099154 40.26239 25.717653 42.038086 Q 26.336155 43.81378 26.336155 45.68924 Q 26.336155 49.12092 24.420797 51.894196 Q 22.505442 54.667473 19.831923 55.54534 Q 19.273277 55.744865 19.392986 56.383316 Q 20.390568 61.091896 20.430471 64.324066 Q 20.430471 65.561066 20.270859 66.75816 Q 19.951632 69.51149 17.876663 71.58646 Q 15.801693 73.66143 12.928658 73.66143 Q 9.417171 73.66143 6.9830713 71.546555 Q 4.548972 69.43168 4.548972 66 Q 4.548972 64.244255 5.7859735 62.967354 Q 7.0229745 61.690453 8.698912 61.690453 Q 10.414752 61.690453 11.591898 62.907494 Q 12.769045 64.12455 12.769045 65.80048 Q 12.769045 67.237 11.811366 68.31439 Q 10.853688 69.43168 9.496977 69.55139 Q 9.018138 69.59129 8.858524 70.030235 Q 8.698912 70.46917 9.177751 70.8283 Q 10.614268 71.94559 12.689239 71.94559 Q 14.963724 71.94559 16.619709 70.309555 Q 18.275696 68.673515 18.555017 66.59855 Q 18.754534 65.16203 18.754534 63.725517 Q 18.754534 60.61306 17.796856 56.82225 Q 17.637243 56.143898 16.918983 56.2237 Q 15.322853 56.423218 13.966143 56.423218 Q 8.060459 56.423218 4.0302296 52.71221 Q 0 49.001205 0 42.616684 Q 0 40.661423 0.45888755 38.76602 Q 0.9177751 36.87062 1.4963725 35.493958 Q 2.0749698 34.117294 3.2920194 32.301697 Q 4.509069 30.4861 5.247279 29.52842 Q 5.98549 28.57074 7.58162 26.675331 Q 9.177751 24.77993 9.776299 24.021767 Q 10.015719 23.742447 9.896009 23.343414 Z M 16.120918 41.57921 L 18.71463 53.35067 Q 18.834341 53.869408 19.43289 53.869408 Q 19.592503 53.869408 19.712214 53.829506 Q 21.348246 53.151146 22.425634 51.195885 Q 23.503023 49.24063 23.503023 47.32527 Q 23.503023 44.532043 21.86699 42.616684 Q 20.191051 40.661423 16.839178 40.661423 Q 16.559855 40.661423 16.340387 40.880898 Q 16.120918 41.100365 16.120918 41.379684 Q 16.081017 41.499397 16.120918 41.57921 Z M 10.614268 30.4861 Q 9.975816 31.204353 8.7188635 32.541115 Q 7.4619102 33.87787 6.84341 34.57618 Q 6.2249093 35.27449 5.327086 36.55139 Q 4.429262 37.828293 3.9903264 38.905685 Q 3.5513906 39.983078 3.2122128 41.5393 Q 2.873035 43.095528 2.873035 44.851273 Q 2.873035 47.28537 4.3694077 49.55986 Q 5.86578 51.834343 8.479444 53.27086 Q 11.093107 54.707375 14.085853 54.707375 Q 15.16324 54.707375 16.48005 54.58767 Q 16.799274 54.547768 16.99879 54.28839 Q 17.198307 54.029022 17.1185 53.7098 L 14.524788 41.778717 Q 14.405079 41.220078 13.766626 41.220078 Q 13.646916 41.220078 13.487304 41.25998 Q 11.651753 41.93833 10.893591 43.17534 Q 10.135429 44.41234 10.135429 46.28779 Q 10.135429 48.482468 12.529625 50.078598 Q 12.808948 50.278114 12.808948 50.677147 Q 12.808948 50.996376 12.549577 51.275696 Q 12.290205 51.555016 11.931076 51.555016 Q 11.73156 51.555016 11.571947 51.475212 Q 9.297461 50.278114 8.200121 48.2231 Q 7.1027813 46.168076 7.1027813 43.893593 Q 7.1027813 41.698914 8.67896 39.36457 Q 10.255139 37.030228 12.609431 36.15236 Q 13.20798 35.91294 13.088271 35.314392 L 11.891172 30.80532 Q 11.811366 30.366386 11.332527 30.286575 Q 10.853688 30.206772 10.614268 30.4861 Z M 17.318016 7.262394 Q 16.99879 6.2249107 16.24063 6.2249107 Q 16.00121 6.2249107 15.801693 6.3446198 Q 13.247884 7.860943 11.751512 10.614269 Q 10.255139 13.367596 10.255139 16.440147 Q 10.255139 18.43531 11.093107 21.348251 Q 11.212817 21.787186 11.691656 21.86699 Q 12.090689 21.90689 12.370012 21.58767 Q 12.489722 21.428055 13.507255 20.171104 Q 14.524788 18.914146 14.844014 18.495163 Q 15.16324 18.07618 15.921403 16.899033 Q 16.679565 15.721886 16.97884 14.943771 Q 17.278114 14.165665 17.557436 13.008465 Q 17.83676 11.851273 17.83676 10.694077 Q 17.83676 9.018139 17.318016 7.262394 Z " fill="black"/>
    <path d="M 38 22.245468 Q 38 19.851273 40.633614 17.636642 Q 43.26723 15.422012 46.020557 15.422012 Q 47.137848 15.422012 48.15538 15.701332 Q 49.172913 15.980652 50.09069 16.978241 Q 51.008465 17.975815 51.008465 19.532043 Q 51.008465 21.726723 48.334946 24.041115 Q 45.661427 26.355507 42.987907 26.355507 Q 41.870617 26.355507 40.853085 26.07618 Q 39.83555 25.79686 38.917774 24.79927 Q 38 23.801697 38 22.245468 Z " fill="black"/>
    <rect x="38" y="20.874245" width="1.4285715" height="40" fill="black"/>
    <rect x="30" y="25.874245" width="8" height="20" fill="gray"/>
    <path d="M 61 32.24547 Q 61 29.851273 63.633614 27.636642 Q 66.26723 25.422012 69.02055 25.422012 Q 70.13785 25.422012 71.15538 25.701332 Q 72.17291 25.980652 73.09069 26.978241 Q 74.00846 27.975815 74.00846 29.532043 Q 74.00846 31.726723 71.334946 34.041115 Q 68.66142 36.355507 65.98791 36.355507 Q 64.87061 36.355507 63.853085 36.07618 Q 62.83555 35.79686 61.917774 34.79927 Q 61 33.801697 61 32.24547 Z " fill="black"/>
    <rect x="61" y="30.874245" width="1.4285715" height="35" fill="black"/>
    <path d="M 53.753326 23.70617 L 58.062878 22.828293 L 58.182587 22.828293 Q 58.90085 22.828293 58.90085 23.506653 L 59.18017 45.852478 Q 58.621525 46.131798 58.182587 46.131798 Q 57.743652 46.131798 57.185005 45.852478 L 57.304714 38.789604 Q 57.304714 38.510277 57.105198 38.29081 Q 56.90568 38.071342 56.586456 38.071342 Q 56.50665 38.071342 56.466747 38.071342 L 52.157196 38.98912 L 52.037483 38.98912 Q 51.319225 38.98912 51.319225 38.31076 L 51 15.925034 Q 51.558647 15.645706 52.037483 15.645706 Q 52.47642 15.645706 53.035065 15.925034 L 52.915356 22.948006 Q 52.915356 23.267235 53.114872 23.486702 Q 53.31439 23.70617 53.633614 23.70617 Q 53.67352 23.70617 53.753326 23.70617 Z M 53.59371 34.87908 L 56.74607 34.160828 Q 57.34462 34.041115 57.34462 33.442566 L 57.46433 27.656593 Q 57.46433 27.337364 57.22491 27.097946 Q 56.98549 26.858528 56.666264 26.938332 L 53.474003 27.616684 Q 52.875454 27.736397 52.875454 28.295044 L 52.755745 34.20073 Q 52.755745 34.51995 53.015114 34.739426 Q 53.274487 34.958885 53.59371 34.87908 Z " fill="black"/>
    <path d="M 83 57.24547 Q 83 54.851273 85.63361 52.636642 Q 88.26723 50.422012 91.02055 50.422012 Q 92.13785 50.422012 93.15538 50.701332 Q 94.17291 50.98065 95.09069 51.97824 Q 96.00846 52.975815 96.00846 54.532043 Q 96.00846 56.726723 93.334946 59.041115 Q 90.66142 61.355507 87.98791 61.355507 Q 86.87061 61.355507 85.85308 61.07618 Q 84.83555 60.79686 83.91778 59.79927 Q 83 58.801697 83 57.24547 Z " fill="black"/>
    <rect x="94.57143" y="20.874245" width="1.4285715" height="35" fill="black"/>
    <path d="M 79.1191 52.058044 L 79.1191 56.92624 Q 79.1191 57.24547 79.31862 57.444984 Q 79.518135 57.6445 79.837364 57.6445 Q 79.95708 57.6445 80.07678 57.6046 L 80.39601 57.484886 Q 80.51572 57.444984 80.67533 57.444984 Q 80.99456 57.444984 81.23398 57.684402 Q 81.4734 57.92382 81.4734 58.24305 L 81.4734 60.637245 Q 81.4734 61.155983 80.95466 61.355507 L 79.597946 61.874245 Q 79.1191 62.07376 79.1191 62.512695 L 79.1191 68.33857 Q 79.1191 68.6578 78.899635 68.877266 Q 78.68017 69.09673 78.40085 69.09673 Q 78.08162 69.09673 77.86215 68.877266 Q 77.642685 68.6578 77.642685 68.33857 L 77.642685 63.590088 Q 77.642685 63.27086 77.42322 63.071342 Q 77.20375 62.871826 76.92442 62.871826 Q 76.76482 62.871826 76.6451 62.911728 L 74.809555 63.62999 Q 74.33071 63.789604 74.33071 64.26844 L 74.33071 70.09432 Q 74.33071 70.41354 74.09129 70.63301 Q 73.851875 70.85248 73.57255 70.85248 Q 73.29323 70.85248 73.07376 70.63301 Q 72.854294 70.41354 72.854294 70.09432 L 72.854294 65.34583 Q 72.854294 65.0266 72.63483 64.82709 Q 72.41536 64.62757 72.13603 64.62757 Q 72.01633 64.62757 71.896614 64.66747 L 71.577385 64.787186 Q 71.49758 64.82709 71.298065 64.82709 Q 70.978836 64.82709 70.73942 64.58767 Q 70.5 64.34824 70.5 64.02902 L 70.5 61.634827 Q 70.5 61.07618 71.018745 60.876663 L 72.37545 60.397827 Q 72.854294 60.278114 72.854294 59.719467 L 72.854294 54.851273 Q 72.854294 54.532043 72.63483 54.332527 Q 72.41536 54.13301 72.13603 54.13301 Q 72.01633 54.13301 71.936516 54.172913 L 71.577385 54.292625 Q 71.49758 54.332527 71.298065 54.332527 Q 70.978836 54.332527 70.73942 54.09311 Q 70.5 53.85369 70.5 53.534462 L 70.5 51.140266 Q 70.5 50.62152 71.018745 50.422012 L 72.41536 49.903267 Q 72.854294 49.70375 72.854294 49.264816 L 72.854294 43.438934 Q 72.854294 43.119713 73.07376 42.900238 Q 73.29323 42.68077 73.57255 42.68077 Q 73.851875 42.68077 74.09129 42.900238 Q 74.33071 43.119713 74.33071 43.438934 L 74.33071 48.187424 Q 74.33071 48.506653 74.55018 48.70617 Q 74.76965 48.905685 75.088875 48.905685 Q 75.20859 48.905685 75.32829 48.865784 L 77.16385 48.147522 Q 77.642685 47.948006 77.642685 47.469162 L 77.642685 41.683197 Q 77.642685 41.363968 77.86215 41.1445 Q 78.08162 40.925034 78.40085 40.925034 Q 78.68017 40.925034 78.899635 41.1445 Q 79.1191 41.363968 79.1191 41.683197 L 79.1191 46.47159 Q 79.1191 46.750908 79.31862 46.950424 Q 79.518135 47.14994 79.79746 47.14994 Q 79.91717 47.14994 80.07678 47.11004 L 80.39601 46.990326 Q 80.475815 46.950424 80.67533 46.950424 Q 80.99456 46.950424 81.23398 47.189842 Q 81.4734 47.42926 81.4734 47.74849 L 81.4734 50.142685 Q 81.4734 50.701332 80.95466 50.90085 L 79.597946 51.379684 Q 79.1191 51.499397 79.1191 52.058044 Z M 77.642685 57.96373 L 77.642685 53.13543 Q 77.642685 52.85611 77.42322 52.636642 Q 77.20375 52.417175 76.92442 52.417175 Q 76.80472 52.417175 76.685005 52.457077 L 74.809555 53.13543 Q 74.33071 53.334946 74.33071 53.81378 L 74.33071 58.642082 Q 74.33071 58.961304 74.53023 59.160828 Q 74.729744 59.360336 75.04897 59.360336 Q 75.168686 59.360336 75.28839 59.320435 L 77.16385 58.642082 Q 77.642685 58.442566 77.642685 57.96373 Z " fill="black"/>
    <path d="M 105 52.24547 Q 105 49.851273 107.63361 47.636642 Q 110.26723 45.422012 113.02055 45.422012 Q 114.13785 45.422012 115.15538 45.701332 Q 116.17291 45.98065 117.09069 46.97824 Q 118.00846 47.975815 118.00846 49.532043 Q 118.00846 51.726723 115.334946 54.041115 Q 112.66142 56.355507 109.98791 56.355507 Q 108.87061 56.355507 107.85308 56.07618 Q 106.83555 55.79686 105.91778 54.79927 Q 105 53.801697 105 52.24547 Z " fill="black"/>
    <rect x="116.57143" y="15.874245" width="1.4285715" height="35" fill="black"/>
    <rect x="116.57143" y="15.874245" width="10" height="20" fill="orange"/>
    <path d="M 133.26482 33.295044 Q 131.58888 33.73398 130.47159 33.73398 Q 129.07497 33.73398 128.03749 32.83615 Q 127 31.938332 127 30.58162 Q 127 29.384521 127.85792 28.546555 Q 128.71584 27.708588 129.91293 27.708588 Q 130.6711 27.708588 131.2896 28.127571 Q 131.9081 28.546555 132.14752 29.264816 Q 132.22733 29.504234 132.38695 30.282349 Q 132.54655 31.060455 132.78598 31.339783 Q 133.02539 31.61911 133.54413 31.61911 Q 133.98308 31.61911 134.84099 30.64148 Q 135.69891 29.663849 135.97824 29.105202 Q 136.13785 28.74607 136.53688 28.74607 Q 136.93591 28.74607 137.09552 29.105202 L 132.18742 45.86457 Q 131.74849 46.263603 131.11003 46.263603 Q 130.43169 46.263603 129.99275 45.86457 L 134.14268 34.252724 Q 134.30229 33.81378 134.02298 33.534462 Q 133.70375 33.13543 133.26482 33.295044 Z " fill="black"/>
    <path d="M 149 27.245468 Q 149 24.851273 151.63362 22.636642 Q 154.26723 20.422012 157.02055 20.422012 Q 158.13785 20.422012 159.15538 20.701332 Q 160.17291 20.980652 161.09068 21.978241 Q 162.00847 22.975815 162.00847 24.532043 Q 162.00847 26.726723 159.33495 29.041115 Q 156.66142 31.355507 153.98792 31.355507 Q 152.87062 31.355507 151.85309 31.07618 Q 150.83556 30.79686 149.91777 29.79927 Q 149 28.801697 149 27.245468 Z " fill="black"/>
    <rect x="149" y="25.874245" width="1.4285715" height="35" fill="black"/>
    <rect x="149" y="40.874245" width="10" height="20" fill="lime"/>
    <path d="M 171 27.245468 Q 171 24.851273 173.63362 22.636642 Q 176.26723 20.422012 179.02055 20.422012 Q 180.13785 20.422012 181.15538 20.701332 Q 182.17291 20.980652 183.09068 21.978241 Q 184.00847 22.975815 184.00847 24.532043 Q 184.00847 26.726723 181.33495 29.041115 Q 178.66142 31.355507 175.98792 31.355507 Q 174.87062 31.355507 173.85309 31.07618 Q 172.83556 30.79686 171.91777 29.79927 Q 171 28.801697 171 27.245468 Z " fill="black"/>
    <rect x="171" y="25.874245" width="1.4285715" height="35" fill="black"/>
    <path d="M 193 22.245468 Q 193 19.851273 195.63362 17.636642 Q 198.26723 15.422012 201.02055 15.422012 Q 202.13785 15.422012 203.15538 15.701332 Q 204.17291 15.980652 205.09068 16.978241 Q 206.00847 17.975815 206.00847 19.532043 Q 206.00847 21.726723 203.33495 24.041115 Q 200.66142 26.355507 197.98792 26.355507 Q 196.87062 26.355507 195.85309 26.07618 Q 194.83556 25.79686 193.91777 24.79927 Q 193 23.801697 193 22.245468 Z " fill="black"/>
    <rect x="193" y="20.874245" width="1.4285715" height="35" fill="black"/>
    <path d="M 22.744862 90.87666 Q 22.744862 90.0387 23.34341 89.44015 Q 23.94196 88.8416 24.779926 88.8416 Q 25.617895 88.8416 26.216444 89.44015 Q 26.814993 90.0387 26.814993 90.87666 Q 26.814993 91.71463 26.216444 92.31318 Q 25.617895 92.91173 24.779926 92.91173 Q 23.94196 92.91173 23.34341 92.31318 Q 22.744862 91.71463 22.744862 90.87666 Z M 22.744862 80.90085 Q 22.744862 80.06288 23.34341 79.464325 Q 23.94196 78.86578 24.779926 78.86578 Q 25.617895 78.86578 26.216444 79.464325 Q 26.814993 80.06288 26.814993 80.90085 Q 26.814993 81.738815 26.216444 82.337364 Q 25.617895 82.93591 24.779926 82.93591 Q 23.94196 82.93591 23.34341 82.337364 Q 22.744862 81.738815 22.744862 80.90085 Z M 4.8681984 81.14027 Q 6.663845 81.14027 7.8210397 82.29746 Q 8.978234 83.45466 8.978234 85.13059 Q 8.978234 86.88634 7.8210397 88.12334 Q 6.663845 89.36034 4.987908 89.36034 Q 3.1922612 89.36034 1.8555018 88.12334 Q 0.51874244 86.88634 0.51874244 85.13059 Q 0.51874244 80.821045 3.3917775 78.10762 Q 6.2648125 75.394196 10.534462 75.394196 Q 15.362757 75.394196 18.415356 78.16747 Q 21.467957 80.94075 21.467957 85.40991 Q 21.467957 99.53567 0.9576783 108.59371 Q 0.6783555 108.713425 0.51874244 108.713425 Q 0 108.713425 0 108.19468 Q 0 107.91536 0.51874244 107.59613 Q 3.7110035 105.72068 5.805925 104.28416 Q 7.9008465 102.84764 10.135429 100.81258 Q 12.370012 98.77751 13.646916 96.722496 Q 14.9238205 94.66747 15.761789 91.874245 Q 16.599758 89.08102 16.599758 85.808945 Q 16.599758 81.65901 14.78416 79.1451 Q 12.968561 76.631195 9.816203 76.631195 Q 7.9008465 76.631195 6.3446193 77.52902 Q 4.7883916 78.42685 4.1898427 79.98308 Q 4.0302296 80.501816 4.229746 80.78114 Q 4.509069 81.14027 4.8681984 81.14027 Z " fill="black"/>
    <path d="M 38 97.24547 Q 38 94.85127 40.633614 92.63664 Q 43.26723 90.42201 46.020557 90.42201 Q 47.137848 90.42201 48.15538 90.70133 Q 49.172913 90.98065 50.09069 91.97824 Q 51.008465 92.975815 51.008465 94.53204 Q 51.008465 96.72672 48.334946 99.041115 Q 45.661427 101.35551 42.987907 101.35551 Q 41.870617 101.35551 40.853085 101.07618 Q 39.83555 100.79686 38.917774 99.79927 Q 38 98.8017 38 97.24547 Z " fill="black"/>
    <rect x="38" y="95.874245" width="1.4285715" height="35" fill="black"/>
    <rect x="30" y="85.874245" width="8" height="20" fill="gray"/>
    <rect x="61" y="95.874245" width="1" height="1" fill="orange"/>
    <rect x="83" y="95.874245" width="1" height="1" fill="orange"/>
    <rect x="105" y="95.874245" width="1" height="1" fill="orange"/>
    <rect x="127" y="95.874245" width="1" height="1" fill="orange"/>
    <rect x="149" y="95.874245" width="1" height="1" fill="orange"/>
    <rect x="171" y="95.874245" width="1" height="1" fill="orange"/>
    <rect x="193" y="95.874245" width="1" height="1" fill="orange"/>
</svg>
