<svg xmlns="http://www.w3.org/2000/svg" xmlns:xlink="http://www.w3.org/1999/xlink" width="166.9" height="70" viewBox="0 0 166.9 70">
    <rect x="0" y="0" width="166.9" height="70" fill="white"/>
    <line x1="8" y1="15" x2="26.4" y2="15" stroke="black" stroke-width="1"/>
    <line x1="8" y1="25" x2="26.4" y2="25" stroke="black" stroke-width="1"/>
    <line x1="8" y1="35" x2="26.4" y2="35" stroke="black" stroke-width="1"/>
    <line x1="8" y1="45" x2="26.4" y2="45" stroke="black" stroke-width="1"/>
    <line x1="8" y1="55" x2="26.4" y2="55" stroke="black" stroke-width="1"/>
    <line x1="26.4" y1="15" x2="44.8" y2="15" stroke="black" stroke-width="1"/>
    <line x1="26.4" y1="25" x2="44.8" y2="25" stroke="black" stroke-width="1"/>
    <line x1="26.4" y1="35" x2="44.8" y2="35" stroke="black" stroke-width="1"/>
    <line x1="26.4" y1="45" x2="44.8" y2="45" stroke="black" stroke-width="1"/>
    <line x1="26.4" y1="55" x2="44.8" y2="55" stroke="black" stroke-width="1"/>
    <line x1="44.8" y1="15" x2="63.199997" y2="15" stroke="black" stroke-width="1"/>
    <line x1="44.8" y1="25" x2="63.199997" y2="25" stroke="black" stroke-width="1"/>
    <line x1="44.8" y1="35" x2="63.199997" y2="35" stroke="black" stroke-width="1"/>
    <line x1="44.8" y1="45" x2="63.199997" y2="45" stroke="black" stroke-width="1"/>
    <line x1="44.8" y1="55" x2="63.199997" y2="55" stroke="black" stroke-width="1"/>
    <line x1="63.199997" y1="15" x2="81.6" y2="15" stroke="black" stroke-width="1"/>
    <line x1="63.199997" y1="25" x2="81.6" y2="25" stroke="black" stroke-width="1"/>
    <line x1="63.199997" y1="35" x2="81.6" y2="35" stroke="black" stroke-width="1"/>
    <line x1="63.199997" y1="45" x2="81.6" y2="45" stroke="black" stroke-width="1"/>
    <line x1="63.199997" y1="55" x2="81.6" y2="55" stroke="black" stroke-width="1"/>
    <line x1="81.6" y1="15" x2="100" y2="15" stroke="black" stroke-width="1"/>
    <line x1="81.6" y1="25" x2="100" y2="25" stroke="black" stroke-width="1"/>
    <line x1="81.6" y1="35" x2="100" y2="35" stroke="black" stroke-width="1"/>
    <line x1="81.6" y1="45" x2="100" y2="45" stroke="black" stroke-width="1"/>
    <line x1="81.6" y1="55" x2="100" y2="55" stroke="black" stroke-width="1"/>
    <line x1="100" y1="15" x2="123" y2="15" stroke="black" stroke-width="1"/>
    <line x1="100" y1="25" x2="123" y2="25" stroke="black" stroke-width="1"/>
    <line x1="100" y1="35" x2="123" y2="35" stroke="black" stroke-width="1"/>
    <line x1="100" y1="45" x2="123" y2="45" stroke="black" stroke-width="1"/>
    <line x1="100" y1="55" x2="123" y2="55" stroke="black" stroke-width="1"/>
    <line x1="123" y1="15" x2="148.5" y2="15" stroke="black" stroke-width="1"/>
    <line x1="123" y1="25" x2="148.5" y2="25" stroke="black" stroke-width="1"/>
    <line x1="123" y1="35" x2="148.5" y2="35" stroke="black" stroke-width="1"/>
    <line x1="123" y1="45" x2="148.5" y2="45" stroke="black" stroke-width="1"/>
    <line x1="123" y1="55" x2="148.5" y2="55" stroke="black" stroke-width="1"/>
    <line x1="148.5" y1="15" x2="166.9" y2="15" stroke="black" stroke-width="1"/>
    <line x1="148.5" y1="25" x2="166.9" y2="25" stroke="black" stroke-width="1"/>
    <line x1="148.5" y1="35" x2="166.9" y2="35" stroke="black" stroke-width="1"/>
    <line x1="148.5" y1="45" x2="166.9" y2="45" stroke="black" stroke-width="1"/>
    <line x1="148.5" y1="55" x2="166.9" y2="55" stroke="black" stroke-width="1"/>
    <path d="M 8 36.371223 Q 8 33.977028 10.6336155 31.76239 Q 13.267231 29.54776 16.020557 29.54776 Q 17.137848 29.54776 18.15538 29.827087 Q 19.172915 30.106415 20.090689 31.103989 Q 21.008465 32.101578 21.008465 33.6578 Q 21.008465 35.852478 18.334946 38.16687 Q 15.661427 40.481262 12.987907 40.481262 Q 11.870617 40.481262 10.853084 40.201935 Q 9.83555 39.922615 8.917775 38.925034 Q 8 37.927444 8 36.371223 Z " fill="black"/>
    <rect x="19.571428" y="0" width="1.4285715" height="35" fill="black"/>
    <rect x="0" y="25" width="8" height="20" fill="gray"/>
    <path d="M 26.4 36.371223 Q 26.4 33.977028 29.033615 31.76239 Q 31.66723 29.54776 34.420555 29.54776 Q 35.53785 29.54776 36.55538 29.827087 Q 37.572914 30.106415 38.49069 31.103989 Q 39.408463 32.101578 39.408463 33.6578 Q 39.408463 35.852478 36.734947 38.16687 Q 34.061424 40.481262 31.387907 40.481262 Q 30.270617 40.481262 29.253082 40.201935 Q 28.23555 39.922615 27.317776 38.925034 Q 26.4 37.927444 26.4 36.371223 Z " fill="black"/>
    <rect x="37.971428" y="35" width="1.4285715" height="0" fill="black"/>
    <path d="M 44.8 36.371223 Q 44.8 33.977028 47.433617 31.76239 Q 50.06723 29.54776 52.820557 29.54776 Q 53.937847 29.54776 54.95538 29.827087 Q 55.972916 30.106415 56.890686 31.103989 Q 57.808464 32.101578 57.808464 33.6578 Q 57.808464 35.852478 55.134945 38.16687 Q 52.461426 40.481262 49.787907 40.481262 Q 48.670616 40.481262 47.653084 40.201935 Q 46.63555 39.922615 45.717773 38.925034 Q 44.8 37.927444 44.8 36.371223 Z " fill="black"/>
    <rect x="56.37143" y="35" width="1.4285715" height="0" fill="black"/>
    <path d="M 63.199997 56.371223 Q 63.199997 53.977028 65.83361 51.76239 Q 68.467224 49.54776 71.22055 49.54776 Q 72.337845 49.54776 73.35538 49.827087 Q 74.37291 50.106415 75.29069 51.10399 Q 76.208466 52.101578 76.208466 53.6578 Q 76.208466 55.852478 73.53494 58.16687 Q 70.86142 60.481262 68.187904 60.481262 Q 67.07062 60.481262 66.05308 60.201935 Q 65.035545 59.922615 64.117775 58.925034 Q 63.199997 57.927444 63.199997 56.371223 Z " fill="black"/>
    <rect x="74.77142" y="5" width="1.4285715" height="50" fill="black"/>
    <path d="M 81.6 36.371223 Q 81.6 33.977028 84.23361 31.76239 Q 86.86723 29.54776 89.62056 29.54776 Q 90.73785 29.54776 91.75538 29.827087 Q 92.77291 30.106415 93.69069 31.103989 Q 94.60846 32.101578 94.60846 33.6578 Q 94.60846 35.852478 91.934944 38.16687 Q 89.26143 40.481262 86.587906 40.481262 Q 85.47061 40.481262 84.45308 40.201935 Q 83.43555 39.922615 82.51778 38.925034 Q 81.6 37.927444 81.6 36.371223 Z " fill="black"/>
    <rect x="81.6" y="35" width="1.4285715" height="35" fill="black"/>
    <path d="M 100 36.371223 Q 100 33.977028 102.63361 31.76239 Q 105.26723 29.54776 108.02055 29.54776 Q 109.13785 29.54776 110.15538 29.827087 Q 111.17291 30.106415 112.09069 31.103989 Q 113.00847 32.101578 113.00847 33.6578 Q 113.00847 35.852478 110.334946 38.16687 Q 107.66142 40.481262 104.98791 40.481262 Q 103.87062 40.481262 102.85308 40.201935 Q 101.83555 39.922615 100.91778 38.925034 Q 100 37.927444 100 36.371223 Z " fill="black"/>
    <rect x="100" y="35" width="1.4285715" height="0" fill="black"/>
    <path d="M 123 36.371223 Q 123 33.977028 125.63361 31.76239 Q 128.26723 29.54776 131.02055 29.54776 Q 132.13785 29.54776 133.15538 29.827087 Q 134.17291 30.106415 135.09068 31.103989 Q 136.00847 32.101578 136.00847 33.6578 Q 136.00847 35.852478 133.33495 38.16687 Q 130.66142 40.481262 127.98791 40.481262 Q 126.87062 40.481262 125.85308 40.201935 Q 124.83555 39.922615 123.91778 38.925034 Q 123 37.927444 123 36.371223 Z " fill="black"/>
    <rect x="123" y="35" width="1.4285715" height="0" fill="black"/>
    <path d="M 114.83555 38.44619 Q 114.83555 38.925034 115.23458 39.08464 Q 115.713425 39.284164 116.032646 38.964935 Q 118.66626 36.57074 118.66626 33.538086 Q 118.66626 32.4607 118.207375 31.662636 Q 117.74849 30.86457 116.950424 30.86457 Q 116.072556 30.86457 115.51391 31.622734 Q 114.95526 32.380898 114.91536 33.37848 L 114.83555 38.44619 Z M 115.95284 29.627571 Q 117.62878 28.789604 118.70617 28.789604 Q 120.22249 28.789604 121.14027 29.986702 Q 122.058044 31.1838 122.058044 32.859734 Q 122.058044 34.01693 121.718864 34.95466 Q 121.379684 35.89238 120.66142 36.670494 Q 119.94317 37.44861 119.32467 37.967354 Q 118.70617 38.4861 117.70859 39.224304 Q 116.711006 39.962517 116.19226 40.40145 Q 115.992744 40.561066 115.67352 41 Q 115.354294 41.438934 115.055016 41.67836 Q 114.755745 41.917778 114.396614 41.917778 Q 113.99758 41.917778 113.73821 41.63845 Q 113.478836 41.35913 113.478836 40.920197 L 113 16.778717 Q 113.518745 16.459496 114.077385 16.459496 Q 114.63603 16.459496 115.15478 16.778717 L 114.91536 28.98912 Q 114.91536 29.388153 115.23458 29.58767 Q 115.59371 29.827087 115.95284 29.627571 Z " fill="black"/>
    <path d="M 148.5 21.371223 Q 148.5 18.977028 151.13362 16.76239 Q 153.76723 14.54776 156.52055 14.54776 Q 157.63785 14.54776 158.65538 14.827087 Q 159.67291 15.106415 160.59068 16.103989 Q 161.50847 17.101578 161.50847 18.657799 Q 161.50847 20.852478 158.83495 23.16687 Q 156.16142 25.481262 153.48792 25.481262 Q 152.37062 25.481262 151.35309 25.201935 Q 150.33556 24.922615 149.41777 23.925034 Q 148.5 22.927444 148.5 21.371223 Z " fill="black"/>
    <rect x="148.5" y="20" width="1.4285715" height="45" fill="black"/>
    <path d="M 144.61911 16.1838 L 144.61911 21.051994 Q 144.61911 21.371223 144.81862 21.57074 Q 145.01814 21.770256 145.33737 21.770256 Q 145.45708 21.770256 145.57678 21.730347 L 145.89601 21.610641 Q 146.01572 21.57074 146.17532 21.57074 Q 146.49455 21.57074 146.73398 21.810158 Q 146.9734 22.049576 146.9734 22.368805 L 146.9734 24.763 Q 146.9734 25.281738 146.45465 25.481262 L 145.09795 26 Q 144.61911 26.199516 144.61911 26.63845 L 144.61911 32.464325 Q 144.61911 32.783554 144.39964 33.00302 Q 144.18018 33.22249 143.90085 33.22249 Q 143.58162 33.22249 143.36215 33.00302 Q 143.14268 32.783554 143.14268 32.464325 L 143.14268 27.715843 Q 143.14268 27.396614 142.92322 27.197098 Q 142.70375 26.997581 142.42442 26.997581 Q 142.26482 26.997581 142.1451 27.037483 L 140.30956 27.755745 Q 139.83072 27.91536 139.83072 28.394196 L 139.83072 34.220078 Q 139.83072 34.5393 139.5913 34.758766 Q 139.35187 34.978233 139.07256 34.978233 Q 138.79323 34.978233 138.57376 34.758766 Q 138.3543 34.5393 138.3543 34.220078 L 138.3543 29.471588 Q 138.3543 29.152359 138.13483 28.952843 Q 137.91536 28.753326 137.63603 28.753326 Q 137.51633 28.753326 137.3966 28.793228 L 137.0774 28.912941 Q 136.99759 28.952843 136.79807 28.952843 Q 136.47884 28.952843 136.23943 28.713425 Q 136 28.473999 136 28.154778 L 136 25.760582 Q 136 25.201935 136.51874 25.002419 L 137.87546 24.523582 Q 138.3543 24.40387 138.3543 23.845222 L 138.3543 18.977028 Q 138.3543 18.657799 138.13483 18.458282 Q 137.91536 18.258766 137.63603 18.258766 Q 137.51633 18.258766 137.43652 18.298676 L 137.0774 18.41838 Q 136.99759 18.458282 136.79807 18.458282 Q 136.47884 18.458282 136.23943 18.218864 Q 136 17.979446 136 17.660217 L 136 15.266022 Q 136 14.747284 136.51874 14.54776 L 137.91536 14.029022 Q 138.3543 13.829506 138.3543 13.390572 L 138.3543 7.5646973 Q 138.3543 7.245468 138.57376 7.026001 Q 138.79323 6.806534 139.07256 6.806534 Q 139.35187 6.806534 139.5913 7.026001 Q 139.83072 7.245468 139.83072 7.5646973 L 139.83072 12.313179 Q 139.83072 12.632408 140.05019 12.831924 Q 140.26965 13.031441 140.58887 13.031441 Q 140.70859 13.031441 140.8283 12.991531 L 142.66385 12.273277 Q 143.14268 12.073761 143.14268 11.594925 L 143.14268 5.8089447 Q 143.14268 5.489723 143.36215 5.270256 Q 143.58162 5.050789 143.90085 5.050789 Q 144.18018 5.050789 144.39964 5.270256 Q 144.61911 5.489723 144.61911 5.8089447 L 144.61911 10.597336 Q 144.61911 10.876663 144.81862 11.0761795 Q 145.01814 11.275696 145.29745 11.275696 Q 145.41718 11.275696 145.57678 11.235794 L 145.89601 11.116081 Q 145.97581 11.0761795 146.17532 11.0761795 Q 146.49455 11.0761795 146.73398 11.315598 Q 146.9734 11.555023 146.9734 11.874245 L 146.9734 14.26844 Q 146.9734 14.827087 146.45465 15.026604 L 145.09795 15.50544 Q 144.61911 15.625153 144.61911 16.1838 Z M 143.14268 22.089478 L 143.14268 17.261185 Q 143.14268 16.981865 142.92322 16.76239 Q 142.70375 16.542923 142.42442 16.542923 Q 142.30472 16.542923 142.18501 16.582832 L 140.30956 17.261185 Q 139.83072 17.460701 139.83072 17.939545 L 139.83072 22.767838 Q 139.83072 23.087067 140.03023 23.286575 Q 140.22975 23.4861 140.54897 23.4861 Q 140.66869 23.4861 140.78839 23.44619 L 142.66385 22.767838 Q 143.14268 22.568321 143.14268 22.089478 Z " fill="black"/>
</svg>
