<svg xmlns="http://www.w3.org/2000/svg" xmlns:xlink="http://www.w3.org/1999/xlink" width="82.7" height="73.66143" viewBox="0 0 82.7 73.66143">
    <rect x="0" y="0" width="82.7" height="73.66143" fill="white"/>
    <line x1="0" y1="15.874245" x2="50.5" y2="15.874245" stroke="black" stroke-width="1"/>
    <line x1="0" y1="25.874245" x2="50.5" y2="25.874245" stroke="black" stroke-width="1"/>
    <line x1="0" y1="35.874245" x2="50.5" y2="35.874245" stroke="black" stroke-width="1"/>
    <line x1="0" y1="45.874245" x2="50.5" y2="45.874245" stroke="black" stroke-width="1"/>
    <line x1="0" y1="55.874245" x2="50.5" y2="55.874245" stroke="black" stroke-width="1"/>
    <line x1="50.5" y1="15.874245" x2="82.7" y2="15.874245" stroke="black" stroke-width="1"/>
    <line x1="50.5" y1="25.874245" x2="82.7" y2="25.874245" stroke="black" stroke-width="1"/>
    <line x1="50.5" y1="35.874245" x2="82.7" y2="35.874245" stroke="black" stroke-width="1"/>
    <line x1="50.5" y1="45.874245" x2="82.7" y2="45.874245" stroke="black" stroke-width="1"/>
    <line x1="50.5" y1="55.874245" x2="82.7" y2="55.874245" stroke="black" stroke-width="1"/>
    <g transform="translate(0, -50)" visibility="hidden">
        <path id="f0591e08b1eda647b1f7958c2266e2d1" d="M 9.896009 73.343414 Q 8.978234 70.43047 8.619105 68.15599 Q 8.299879 66.24063 8.299879 63.68682 Q 8.299879 62.80895 8.339783 61.931076 Q 8.499395 58.140266 9.896009 54.967957 Q 11.2926235 51.795647 14.085853 50.119713 Q 14.285369 50 14.604595 50 Q 14.883918 50 15.083434 50.199516 Q 17.318016 52.4341 18.515114 55.905685 Q 19.712214 59.37727 19.712214 62.928658 Q 19.712214 67.0387 17.956469 70.98912 Q 16.280533 74.939545 13.247884 77.97219 Q 13.008464 78.21161 13.088271 78.61064 L 14.6844015 84.99516 Q 14.8041115 85.63362 15.482467 85.55381 Q 16.120918 85.474 16.719467 85.474 Q 19.033857 85.474 20.909311 86.39178 Q 22.784763 87.309555 23.94196 88.78597 Q 25.099154 90.26239 25.717653 92.038086 Q 26.336155 93.81378 26.336155 95.68924 Q 26.336155 99.12092 24.420797 101.894196 Q 22.505442 104.66747 19.831923 105.54534 Q 19.273277 105.744865 19.392986 106.383316 Q 20.390568 111.091896 20.430471 114.324066 Q 20.430471 115.561066 20.270859 116.75816 Q 19.951632 119.51149 17.876663 121.58646 Q 15.801693 123.66143 12.928658 123.66143 Q 9.417171 123.66143 6.9830713 121.546555 Q 4.548972 119.43168 4.548972 116 Q 4.548972 114.244255 5.7859735 112.967354 Q 7.0229745 111.69045 8.698912 111.69045 Q 10.414752 111.69045 11.591898 112.90749 Q 12.769045 114.12455 12.769045 115.80048 Q 12.769045 117.237 11.811366 118.31439 Q 10.853688 119.43168 9.496977 119.55139 Q 9.018138 119.59129 8.858524 120.030235 Q 8.698912 120.46917 9.177751 120.8283 Q 10.614268 121.94559 12.689239 121.94559 Q 14.963724 121.94559 16.619709 120.309555 Q 18.275696 118.673515 18.555017 116.59855 Q 18.754534 115.16203 18.754534 113.72552 Q 18.754534 110.61306 17.796856 106.82225 Q 17.637243 106.1439 16.918983 106.2237 Q 15.322853 106.42322 13.966143 106.42322 Q 8.060459 106.42322 4.0302296 102.71221 Q 0 99.001205 0 92.616684 Q 0 90.66142 0.45888755 88.76602 Q 0.9177751 86.87062 1.4963725 85.49396 Q 2.0749698 84.117294 3.2920194 82.3017 Q 4.509069 80.4861 5.247279 79.52842 Q 5.98549 78.57074 7.58162 76.67533 Q 9.177751 74.77993 9.776299 74.02177 Q 10.015719 73.74245 9.896009 73.343414 Z M 16.120918 91.57921 L 18.71463 103.35067 Q 18.834341 103.86941 19.43289 103.86941 Q 19.592503 103.86941 19.712214 103.829506 Q 21.348246 103.151146 22.425634 101.195885 Q 23.503023 99.24063 23.503023 97.32527 Q 23.503023 94.53204 21.86699 92.616684 Q 20.191051 90.66142 16.839178 90.66142 Q 16.559855 90.66142 16.340387 90.8809 Q 16.120918 91.100365 16.120918 91.379684 Q 16.081017 91.4994 16.120918 91.57921 Z M 10.614268 80.4861 Q 9.975816 81.20435 8.7188635 82.541115 Q 7.4619102 83.87787 6.84341 84.57618 Q 6.2249093 85.27449 5.327086 86.55139 Q 4.429262 87.82829 3.9903264 88.905685 Q 3.5513906 89.98308 3.2122128 91.5393 Q 2.873035 93.09553 2.873035 94.85127 Q 2.873035 97.28537 4.3694077 99.55986 Q 5.86578 101.83434 8.479444 103.27086 Q 11.093107 104.707375 14.085853 104.707375 Q 15.16324 104.707375 16.48005 104.58767 Q 16.799274 104.54777 16.99879 104.28839 Q 17.198307 104.02902 17.1185 103.7098 L 14.524788 91.77872 Q 14.405079 91.22008 13.766626 91.22008 Q 13.646916 91.22008 13.487304 91.25998 Q 11.651753 91.93833 10.893591 93.17534 Q 10.135429 94.41234 10.135429 96.28779 Q 10.135429 98.48247 12.529625 100.0786 Q 12.808948 100.278114 12.808948 100.67715 Q 12.808948 100.996376 12.549577 101.275696 Q 12.290205 101.555016 11.931076 101.555016 Q 11.73156 101.555016 11.571947 101.47521 Q 9.297461 100.278114 8.200121 98.2231 Q 7.1027813 96.168076 7.1027813 93.89359 Q 7.1027813 91.69891 8.67896 89.36457 Q 10.255139 87.03023 12.609431 86.15236 Q 13.20798 85.91294 13.088271 85.31439 L 11.891172 80.80532 Q 11.811366 80.36639 11.332527 80.286575 Q 10.853688 80.20677 10.614268 80.4861 Z M 17.318016 57.262394 Q 16.99879 56.22491 16.24063 56.22491 Q 16.00121 56.22491 15.801693 56.34462 Q 13.247884 57.860943 11.751512 60.61427 Q 10.255139 63.367596 10.255139 66.44015 Q 10.255139 68.43531 11.093107 71.34825 Q 11.212817 71.787186 11.691656 71.86699 Q 12.090689 71.90689 12.370012 71.58767 Q 12.489722 71.428055 13.507255 70.171104 Q 14.524788 68.91415 14.844014 68.49516 Q 15.16324 68.07618 15.921403 66.89903 Q 16.679565 65.721886 16.97884 64.94377 Q 17.278114 64.165665 17.557436 63.008465 Q 17.83676 61.851273 17.83676 60.694077 Q 17.83676 59.01814 17.318016 57.262394 Z "/>
    </g>
    <use href="#f0591e08b1eda647b1f7958c2266e2d1" x="0" y="-50"/>
    <g transform="translate(63.5, -60)" visibility="hidden">
        <path id="5adf674bb3e8c646d96e9b295fbfcc8a" d="M 0 97.24547 Q 0 94.85127 2.6336155 92.63664 Q 5.267231 90.42201 8.020556 90.42201 Q 9.137848 90.42201 10.155381 90.70133 Q 11.1729145 90.98065 12.090689 91.97824 Q 13.008464 92.975815 13.008464 94.53204 Q 13.008464 96.72672 10.334946 99.041115 Q 7.6614265 101.35551 4.987908 101.35551 Q 3.8706167 101.35551 2.8530834 101.07618 Q 1.8355502 100.79686 0.9177751 99.79927 Q 0 98.8017 0 97.24547 Z "/>
    </g>
    <use href="#5adf674bb3e8c646d96e9b295fbfcc8a" x="63.5" y="-60"/>
    <use href="#5adf674bb3e8c646d96e9b295fbfcc8a" x="50.5" y="-55" fill="black"/>
    <rect x="62.071426" y="0.8742447" width="1.4285715" height="40" fill="black"/>
    <g transform="translate(38, -55)" visibility="hidden">
        <path id="55d9dcb133675c7a63d0b061258e5361" d="M 8.619105 92.058044 L 8.619105 96.92624 Q 8.619105 97.24547 8.818622 97.444984 Q 9.018138 97.6445 9.337364 97.6445 Q 9.457073 97.6445 9.576783 97.6046 L 9.896009 97.484886 Q 10.015719 97.444984 10.175332 97.444984 Q 10.494558 97.444984 10.733978 97.6844 Q 10.973398 97.92382 10.973398 98.24305 L 10.973398 100.637245 Q 10.973398 101.15598 10.454656 101.35551 L 9.097944 101.874245 Q 8.619105 102.07376 8.619105 102.512695 L 8.619105 108.33857 Q 8.619105 108.6578 8.399637 108.877266 Q 8.180169 109.09673 7.9008465 109.09673 Q 7.58162 109.09673 7.362152 108.877266 Q 7.1426845 108.6578 7.1426845 108.33857 L 7.1426845 103.59009 Q 7.1426845 103.27086 6.9232163 103.07134 Q 6.703748 102.871826 6.4244256 102.871826 Q 6.2648125 102.871826 6.1451025 102.91173 L 4.3095527 103.62999 Q 3.8307133 103.789604 3.8307133 104.26844 L 3.8307133 110.09432 Q 3.8307133 110.41354 3.5912938 110.63301 Q 3.351874 110.85248 3.0725513 110.85248 Q 2.7932286 110.85248 2.5737605 110.63301 Q 2.3542926 110.41354 2.3542926 110.09432 L 2.3542926 105.34583 Q 2.3542926 105.0266 2.1348248 104.82709 Q 1.9153566 104.62757 1.6360339 104.62757 Q 1.516324 104.62757 1.3966143 104.66747 L 1.0773882 104.787186 Q 0.9975816 104.82709 0.7980653 104.82709 Q 0.47883916 104.82709 0.23941958 104.58767 Q 0 104.34824 0 104.02902 L 0 101.63483 Q 0 101.07618 0.51874244 100.87666 L 1.8754535 100.39783 Q 2.3542926 100.278114 2.3542926 99.71947 L 2.3542926 94.85127 Q 2.3542926 94.53204 2.1348248 94.33253 Q 1.9153566 94.13301 1.6360339 94.13301 Q 1.516324 94.13301 1.4365175 94.17291 L 1.0773882 94.292625 Q 0.9975816 94.33253 0.7980653 94.33253 Q 0.47883916 94.33253 0.23941958 94.09311 Q 0 93.85369 0 93.53446 L 0 91.14027 Q 0 90.62152 0.51874244 90.42201 L 1.9153566 89.90327 Q 2.3542926 89.70375 2.3542926 89.26482 L 2.3542926 83.438934 Q 2.3542926 83.11971 2.5737605 82.90024 Q 2.7932286 82.68077 3.0725513 82.68077 Q 3.351874 82.68077 3.5912938 82.90024 Q 3.8307133 83.11971 3.8307133 83.438934 L 3.8307133 88.18742 Q 3.8307133 88.50665 4.0501814 88.70617 Q 4.2696495 88.905685 4.5888753 88.905685 Q 4.7085853 88.905685 4.828295 88.86578 L 6.663845 88.14752 Q 7.1426845 87.948006 7.1426845 87.46916 L 7.1426845 81.6832 Q 7.1426845 81.36397 7.362152 81.1445 Q 7.58162 80.92503 7.9008465 80.92503 Q 8.180169 80.92503 8.399637 81.1445 Q 8.619105 81.36397 8.619105 81.6832 L 8.619105 86.47159 Q 8.619105 86.75091 8.818622 86.950424 Q 9.018138 87.14994 9.297461 87.14994 Q 9.417171 87.14994 9.576783 87.11004 L 9.896009 86.990326 Q 9.975816 86.950424 10.175332 86.950424 Q 10.494558 86.950424 10.733978 87.18984 Q 10.973398 87.42926 10.973398 87.74849 L 10.973398 90.142685 Q 10.973398 90.70133 10.454656 90.90085 L 9.097944 91.379684 Q 8.619105 91.4994 8.619105 92.058044 Z M 7.1426845 97.96373 L 7.1426845 93.13543 Q 7.1426845 92.85611 6.9232163 92.63664 Q 6.703748 92.417175 6.4244256 92.417175 Q 6.3047156 92.417175 6.185006 92.45708 L 4.3095527 93.13543 Q 3.8307133 93.334946 3.8307133 93.81378 L 3.8307133 98.64208 Q 3.8307133 98.9613 4.0302296 99.16083 Q 4.229746 99.36034 4.548972 99.36034 Q 4.668682 99.36034 4.7883916 99.320435 L 6.663845 98.64208 Q 7.1426845 98.442566 7.1426845 97.96373 Z "/>
    </g>
    <use href="#55d9dcb133675c7a63d0b061258e5361" x="38" y="-55"/>
    <rect x="30" y="25.874245" width="8" height="20" fill="gray"/>
</svg>
