<svg xmlns="http://www.w3.org/2000/svg" xmlns:xlink="http://www.w3.org/1999/xlink" width="119" height="100" viewBox="0 0 119 100">
    <rect x="0" y="0" width="119" height="100" fill="white"/>
    <path d="M 5 51.371223 Q 5 48.977028 7.6336155 46.76239 Q 10.267231 44.54776 13.020556 44.54776 Q 14.137848 44.54776 15.155381 44.827087 Q 16.172915 45.106415 17.090689 46.10399 Q 18.008465 47.101578 18.008465 48.6578 Q 18.008465 50.852478 15.334946 53.16687 Q 12.661427 55.481262 9.987907 55.481262 Q 8.870617 55.481262 7.8530836 55.201935 Q 6.8355503 54.922615 5.917775 53.925034 Q 5 52.927444 5 51.371223 Z " fill="black"/>
    <rect x="15.5" y="10" width="2.5" height="40" fill="dodgerblue"/>
    <rect x="0" y="30" width="5" height="20" fill="gray"/>
    <path d="M 24 41.371223 Q 24 38.977028 26.633615 36.76239 Q 29.267231 34.54776 32.020557 34.54776 Q 33.137848 34.54776 34.15538 34.827087 Q 35.172913 35.106415 36.09069 36.10399 Q 37.008465 37.101578 37.008465 38.6578 Q 37.008465 40.852478 34.334946 43.16687 Q 31.661427 45.481262 28.987907 45.481262 Q 27.870617 45.481262 26.853085 45.201935 Q 25.83555 44.922615 24.917774 43.925034 Q 24 42.927444 24 41.371223 Z " fill="black"/>
    <rect x="34.5" y="0" width="2.5" height="40" fill="dodgerblue"/>
    <path d="M 49.264812 37.4208 Q 47.588875 37.859734 46.471584 37.859734 Q 45.07497 37.859734 44.037483 36.961914 Q 43 36.064087 43 34.707382 Q 43 33.510284 43.85792 32.67231 Q 44.71584 31.834343 45.912937 31.834343 Q 46.6711 31.834343 47.2896 32.253326 Q 47.908104 32.67231 48.147522 33.390564 Q 48.227325 33.62999 48.38694 34.408104 Q 48.546555 35.18622 48.785973 35.465538 Q 49.02539 35.744858 49.544136 35.744858 Q 49.98307 35.744858 50.840992 34.767227 Q 51.698914 33.789597 51.978233 33.230957 Q 52.137848 32.871826 52.53688 32.871826 Q 52.935913 32.871826 53.095528 33.230957 L 48.187424 49.990326 Q 47.74849 50.38936 47.11004 50.38936 Q 46.43168 50.38936 45.992744 49.990326 L 50.142685 38.37848 Q 50.3023 37.939545 50.022972 37.660217 Q 49.70375 37.261185 49.264812 37.4208 Z " fill="black"/>
    <path d="M 62 46.371223 Q 62 43.977028 64.63361 41.76239 Q 67.26723 39.54776 70.02055 39.54776 Q 71.13785 39.54776 72.15538 39.827087 Q 73.17291 40.106415 74.09069 41.10399 Q 75.00847 42.101578 75.00847 43.6578 Q 75.00847 45.852478 72.334946 48.16687 Q 69.66142 50.481262 66.98791 50.481262 Q 65.87062 50.481262 64.85308 50.201935 Q 63.83555 49.922615 62.917774 48.925034 Q 62 47.927444 62 46.371223 Z " fill="black"/>
    <rect x="72.5" y="5" width="2.5" height="40" fill="dodgerblue"/>
    <rect x="72.5" y="5" width="10" height="20" fill="lime"/>
    <path d="M 87.26482 37.4208 Q 85.588875 37.859734 84.47159 37.859734 Q 83.07497 37.859734 82.03748 36.961914 Q 81 36.064087 81 34.707382 Q 81 33.510284 81.85792 32.67231 Q 82.71584 31.834343 83.91294 31.834343 Q 84.6711 31.834343 85.2896 32.253326 Q 85.908104 32.67231 86.14752 33.390564 Q 86.227325 33.62999 86.38694 34.408104 Q 86.546555 35.18622 86.78597 35.465538 Q 87.02539 35.744858 87.544136 35.744858 Q 87.98307 35.744858 88.84099 34.767227 Q 89.69891 33.789597 89.97823 33.230957 Q 90.13785 32.871826 90.53688 32.871826 Q 90.93591 32.871826 91.09553 33.230957 L 86.18742 49.990326 Q 85.74849 50.38936 85.11004 50.38936 Q 84.43168 50.38936 83.992744 49.990326 L 88.142685 38.37848 Q 88.3023 37.939545 88.02297 37.660217 Q 87.70375 37.261185 87.26482 37.4208 Z " fill="black"/>
    <path d="M 100 36.371223 Q 100 33.977028 102.63361 31.76239 Q 105.26723 29.54776 108.02055 29.54776 Q 109.13785 29.54776 110.15538 29.827087 Q 111.17291 30.106415 112.09069 31.103989 Q 113.00847 32.101578 113.00847 33.6578 Q 113.00847 35.852478 110.334946 38.16687 Q 107.66142 40.481262 104.98791 40.481262 Q 103.87062 40.481262 102.85308 40.201935 Q 101.83555 39.922615 100.91778 38.925034 Q 100 37.927444 100 36.371223 Z " fill="black"/>
    <rect x="100" y="35" width="2.5" height="40" fill="tomato"/>
    <rect x="100" y="55" width="10" height="20" fill="purple"/>
    <line x1="4.9" y1="40" x2="5" y2="100" stroke="rgba(0,0,0,0.2)" stroke-width="0.2"/>
    <line x1="23.9" y1="40" x2="24" y2="100" stroke="rgba(0,0,0,0.2)" stroke-width="0.2"/>
    <line x1="42.9" y1="40" x2="43" y2="100" stroke="rgba(0,0,0,0.2)" stroke-width="0.2"/>
    <line x1="61.9" y1="40" x2="62" y2="100" stroke="rgba(0,0,0,0.2)" stroke-width="0.2"/>
    <line x1="80.9" y1="40" x2="81" y2="100" stroke="rgba(0,0,0,0.2)" stroke-width="0.2"/>
    <line x1="99.9" y1="40" x2="100" y2="100" stroke="rgba(0,0,0,0.2)" stroke-width="0.2"/>
    <line x1="118.9" y1="40" x2="119" y2="100" stroke="rgba(0,0,0,0.2)" stroke-width="0.2"/>
</svg>
