<svg xmlns="http://www.w3.org/2000/svg" xmlns:xlink="http://www.w3.org/1999/xlink" width="93.2" height="84.239426" viewBox="0 0 93.2 84.239426">
    <rect x="0" y="0" width="93.2" height="84.239426" fill="white"/>
    <line x1="3" y1="23.452236" x2="58" y2="23.452236" stroke="black" stroke-width="1"/>
    <line x1="3" y1="33.452236" x2="58" y2="33.452236" stroke="black" stroke-width="1"/>
    <line x1="3" y1="43.452236" x2="58" y2="43.452236" stroke="black" stroke-width="1"/>
    <line x1="3" y1="53.452236" x2="58" y2="53.452236" stroke="black" stroke-width="1"/>
    <line x1="3" y1="63.452236" x2="58" y2="63.452236" stroke="black" stroke-width="1"/>
    <line x1="58" y1="23.452236" x2="90.2" y2="23.452236" stroke="black" stroke-width="1"/>
    <line x1="58" y1="33.452236" x2="90.2" y2="33.452236" stroke="black" stroke-width="1"/>
    <line x1="58" y1="43.452236" x2="90.2" y2="43.452236" stroke="black" stroke-width="1"/>
    <line x1="58" y1="53.452236" x2="90.2" y2="53.452236" stroke="black" stroke-width="1"/>
    <line x1="58" y1="63.452236" x2="90.2" y2="63.452236" stroke="black" stroke-width="1"/>
    <g transform="translate(0, -50)" visibility="hidden">
        <path id="721c17d824852181ea82594825b6ee24" d="M 12.896009 80.9214 Q 11.978234 78.00847 11.619105 75.73398 Q 11.299879 73.81862 11.299879 71.26482 Q 11.299879 70.38694 11.339783 69.50906 Q 11.499395 65.71826 12.896009 62.545948 Q 14.2926235 59.37364 17.085854 57.697704 Q 17.28537 57.57799 17.604595 57.57799 Q 17.883919 57.57799 18.083435 57.777508 Q 20.318016 60.012093 21.515114 63.483677 Q 22.712214 66.95526 22.712214 70.50665 Q 22.712214 74.616684 20.956469 78.56711 Q 19.280533 82.51753 16.247883 85.550186 Q 16.008465 85.7896 16.088272 86.18863 L 17.684402 92.57315 Q 17.804111 93.21161 18.482468 93.131805 Q 19.120918 93.051994 19.719467 93.051994 Q 22.033857 93.051994 23.909311 93.96977 Q 25.784763 94.88754 26.94196 96.36397 Q 28.099154 97.840385 28.717653 99.61608 Q 29.336155 101.39178 29.336155 103.26723 Q 29.336155 106.69891 27.420797 109.47218 Q 25.505442 112.24547 22.831923 113.12334 Q 22.273277 113.32286 22.392986 113.9613 Q 23.390568 118.66989 23.430471 121.902054 Q 23.430471 123.13905 23.270859 124.33615 Q 22.951632 127.08948 20.876663 129.16444 Q 18.801693 131.23943 15.928658 131.23943 Q 12.417171 131.23943 9.983071 129.12454 Q 7.548972 127.009674 7.548972 123.57799 Q 7.548972 121.82225 8.785974 120.54535 Q 10.022974 119.26845 11.698912 119.26845 Q 13.414752 119.26845 14.591898 120.48549 Q 15.769045 121.702545 15.769045 123.37848 Q 15.769045 124.81499 14.811366 125.89238 Q 13.853688 127.009674 12.496977 127.12938 Q 12.018138 127.16928 11.858524 127.60823 Q 11.698912 128.04716 12.177751 128.4063 Q 13.614268 129.52357 15.689239 129.52357 Q 17.963724 129.52357 19.619709 127.88754 Q 21.275696 126.25151 21.555017 124.176544 Q 21.754534 122.74002 21.754534 121.30351 Q 21.754534 118.191055 20.796856 114.40024 Q 20.637243 113.72189 19.918983 113.8017 Q 18.322853 114.001205 16.966143 114.001205 Q 11.060459 114.001205 7.0302296 110.29021 Q 3 106.5792 3 100.19468 Q 3 98.23942 3.4588876 96.34401 Q 3.9177752 94.44861 4.496372 93.071945 Q 5.07497 91.69528 6.2920194 89.879684 Q 7.509069 88.06409 8.247279 87.106415 Q 8.98549 86.14873 10.58162 84.25333 Q 12.177751 82.357925 12.776299 81.59976 Q 13.015719 81.320435 12.896009 80.9214 Z M 19.120918 99.157196 L 21.71463 110.928665 Q 21.834341 111.4474 22.43289 111.4474 Q 22.592503 111.4474 22.712214 111.4075 Q 24.348246 110.72914 25.425634 108.77388 Q 26.503023 106.81862 26.503023 104.90326 Q 26.503023 102.11003 24.86699 100.19468 Q 23.191051 98.23942 19.839178 98.23942 Q 19.559855 98.23942 19.340387 98.45889 Q 19.120918 98.67836 19.120918 98.95768 Q 19.081017 99.07739 19.120918 99.157196 Z M 13.614268 88.06409 Q 12.975816 88.78235 11.7188635 90.11911 Q 10.46191 91.455864 9.8434105 92.154175 Q 9.224909 92.85248 8.3270855 94.12938 Q 7.429262 95.40629 6.9903264 96.48367 Q 6.5513906 97.561066 6.2122126 99.117294 Q 5.873035 100.67352 5.873035 102.42926 Q 5.873035 104.86336 7.3694077 107.13785 Q 8.86578 109.41234 11.479444 110.84885 Q 14.093107 112.28537 17.085854 112.28537 Q 18.16324 112.28537 19.48005 112.165665 Q 19.799274 112.12576 19.99879 111.86638 Q 20.198307 111.60701 20.1185 111.287796 L 17.524788 99.35671 Q 17.405079 98.798065 16.766626 98.798065 Q 16.646915 98.798065 16.487305 98.83797 Q 14.651753 99.51633 13.893591 100.75333 Q 13.135429 101.990326 13.135429 103.86578 Q 13.135429 106.060455 15.529625 107.656586 Q 15.808948 107.85611 15.808948 108.25514 Q 15.808948 108.57437 15.549577 108.85368 Q 15.290205 109.13301 14.931076 109.13301 Q 14.73156 109.13301 14.571947 109.05321 Q 12.297461 107.85611 11.200121 105.80109 Q 10.102781 103.74607 10.102781 101.47159 Q 10.102781 99.2769 11.67896 96.942566 Q 13.255139 94.60822 15.609431 93.73035 Q 16.207981 93.49094 16.088272 92.89238 L 14.891172 88.383316 Q 14.811366 87.94438 14.332527 87.86457 Q 13.853688 87.78476 13.614268 88.06409 Z M 20.318016 64.840385 Q 19.99879 63.802902 19.24063 63.802902 Q 19.00121 63.802902 18.801693 63.92261 Q 16.247883 65.438934 14.751512 68.19226 Q 13.255139 70.94559 13.255139 74.01814 Q 13.255139 76.013306 14.093107 78.92624 Q 14.212817 79.36517 14.691656 79.44498 Q 15.090689 79.484886 15.370012 79.165665 Q 15.489722 79.00604 16.507256 77.7491 Q 17.524788 76.49214 17.844013 76.07315 Q 18.16324 75.654175 18.921402 74.47703 Q 19.679565 73.29988 19.97884 72.52177 Q 20.278114 71.74365 20.557436 70.58646 Q 20.83676 69.42926 20.83676 68.272064 Q 20.83676 66.59613 20.318016 64.840385 Z "/>
    </g>
    <use href="#721c17d824852181ea82594825b6ee24" x="0" y="-50"/>
    <g transform="translate(55, -95)" visibility="hidden">
        <path id="42fd062ed0f718057d24f74d43dabeb5" d="M 3 104.823456 Q 3 102.42926 5.6336155 100.21463 Q 8.267231 98 11.020556 98 Q 12.137848 98 13.155381 98.27933 Q 14.1729145 98.55865 15.090689 99.55623 Q 16.008465 100.55381 16.008465 102.11003 Q 16.008465 104.30472 13.334946 106.61911 Q 10.661427 108.9335 7.987908 108.9335 Q 6.870617 108.9335 5.8530836 108.654175 Q 4.8355503 108.37485 3.9177752 107.377266 Q 3 106.379684 3 104.823456 Z "/>
    </g>
    <use href="#42fd062ed0f718057d24f74d43dabeb5" x="55" y="-95"/>
    <use href="#42fd062ed0f718057d24f74d43dabeb5" x="42" y="-90" fill="black"/>
    <rect x="58" y="8.452236" width="1.4285715" height="40" fill="black"/>
    <rect x="33" y="33.452236" width="12" height="20" fill="rgba(0,0,0,0.1)"/>
</svg>
