<svg xmlns="http://www.w3.org/2000/svg" xmlns:xlink="http://www.w3.org/1999/xlink" width="213.54285" height="96" viewBox="0 0 213.54285 96">
    <rect x="0" y="0" width="213.54285" height="96" fill="white"/>
    <line x1="3" y1="23" x2="45" y2="23" stroke="black" stroke-width="1"/>
    <line x1="3" y1="33" x2="45" y2="33" stroke="black" stroke-width="1"/>
    <line x1="3" y1="43" x2="45" y2="43" stroke="black" stroke-width="1"/>
    <line x1="3" y1="53" x2="45" y2="53" stroke="black" stroke-width="1"/>
    <line x1="3" y1="63" x2="45" y2="63" stroke="black" stroke-width="1"/>
    <line x1="45" y1="23" x2="72.57143" y2="23" stroke="black" stroke-width="1"/>
    <line x1="45" y1="33" x2="72.57143" y2="33" stroke="black" stroke-width="1"/>
    <line x1="45" y1="43" x2="72.57143" y2="43" stroke="black" stroke-width="1"/>
    <line x1="45" y1="53" x2="72.57143" y2="53" stroke="black" stroke-width="1"/>
    <line x1="45" y1="63" x2="72.57143" y2="63" stroke="black" stroke-width="1"/>
    <line x1="72.57143" y1="23" x2="95.57143" y2="23" stroke="black" stroke-width="1"/>
    <line x1="72.57143" y1="33" x2="95.57143" y2="33" stroke="black" stroke-width="1"/>
    <line x1="72.57143" y1="43" x2="95.57143" y2="43" stroke="black" stroke-width="1"/>
    <line x1="72.57143" y1="53" x2="95.57143" y2="53" stroke="black" stroke-width="1"/>
    <line x1="72.57143" y1="63" x2="95.57143" y2="63" stroke="black" stroke-width="1"/>
    <line x1="95.57143" y1="23" x2="123.14285" y2="23" stroke="black" stroke-width="1"/>
    <line x1="95.57143" y1="33" x2="123.14285" y2="33" stroke="black" stroke-width="1"/>
    <line x1="95.57143" y1="43" x2="123.14285" y2="43" stroke="black" stroke-width="1"/>
    <line x1="95.57143" y1="53" x2="123.14285" y2="53" stroke="black" stroke-width="1"/>
    <line x1="95.57143" y1="63" x2="123.14285" y2="63" stroke="black" stroke-width="1"/>
    <line x1="123.14285" y1="23" x2="146.14285" y2="23" stroke="black" stroke-width="1"/>
    <line x1="123.14285" y1="33" x2="146.14285" y2="33" stroke="black" stroke-width="1"/>
    <line x1="123.14285" y1="43" x2="146.14285" y2="43" stroke="black" stroke-width="1"/>
    <line x1="123.14285" y1="53" x2="146.14285" y2="53" stroke="black" stroke-width="1"/>
    <line x1="123.14285" y1="63" x2="146.14285" y2="63" stroke="black" stroke-width="1"/>
    <line x1="146.14285" y1="23" x2="178.34285" y2="23" stroke="black" stroke-width="1"/>
    <line x1="146.14285" y1="33" x2="178.34285" y2="33" stroke="black" stroke-width="1"/>
    <line x1="146.14285" y1="43" x2="178.34285" y2="43" stroke="black" stroke-width="1"/>
    <line x1="146.14285" y1="53" x2="178.34285" y2="53" stroke="black" stroke-width="1"/>
    <line x1="146.14285" y1="63" x2="178.34285" y2="63" stroke="black" stroke-width="1"/>
    <line x1="178.34285" y1="23" x2="210.54285" y2="23" stroke="black" stroke-width="1"/>
    <line x1="178.34285" y1="33" x2="210.54285" y2="33" stroke="black" stroke-width="1"/>
    <line x1="178.34285" y1="43" x2="210.54285" y2="43" stroke="black" stroke-width="1"/>
    <line x1="178.34285" y1="53" x2="210.54285" y2="53" stroke="black" stroke-width="1"/>
    <line x1="178.34285" y1="63" x2="210.54285" y2="63" stroke="black" stroke-width="1"/>
    <g transform="translate(0, -50)" visibility="hidden">
        <path id="79c003d7f356a2d8b5111a2a227bce45" d="M 12.896009 80.46916 Q 11.978234 77.55623 11.619105 75.28174 Q 11.299879 73.36639 11.299879 70.81258 Q 11.299879 69.93471 11.339783 69.05683 Q 11.499395 65.26602 12.896009 62.09371 Q 14.2926235 58.921402 17.085854 57.24547 Q 17.28537 57.125755 17.604595 57.125755 Q 17.883919 57.125755 18.083435 57.32527 Q 20.318016 59.559856 21.515114 63.03144 Q 22.712214 66.50302 22.712214 70.05441 Q 22.712214 74.16445 20.956469 78.114876 Q 19.280533 82.0653 16.247883 85.097946 Q 16.008465 85.337364 16.088272 85.7364 L 17.684402 92.12092 Q 17.804111 92.75937 18.482468 92.679565 Q 19.120918 92.59976 19.719467 92.59976 Q 22.033857 92.59976 23.909311 93.51753 Q 25.784763 94.43531 26.94196 95.91173 Q 28.099154 97.38815 28.717653 99.16385 Q 29.336155 100.939545 29.336155 102.814995 Q 29.336155 106.24667 27.420797 109.01995 Q 25.505442 111.79323 22.831923 112.6711 Q 22.273277 112.87062 22.392986 113.50907 Q 23.390568 118.21765 23.430471 121.44982 Q 23.430471 122.68682 23.270859 123.88392 Q 22.951632 126.637245 20.876663 128.71222 Q 18.801693 130.78719 15.928658 130.78719 Q 12.417171 130.78719 9.983071 128.6723 Q 7.548972 126.557434 7.548972 123.125755 Q 7.548972 121.37001 8.785974 120.09311 Q 10.022974 118.81621 11.698912 118.81621 Q 13.414752 118.81621 14.591898 120.03325 Q 15.769045 121.250305 15.769045 122.92624 Q 15.769045 124.362755 14.811366 125.44015 Q 13.853688 126.557434 12.496977 126.67715 Q 12.018138 126.71705 11.858524 127.15599 Q 11.698912 127.594925 12.177751 127.954056 Q 13.614268 129.07135 15.689239 129.07135 Q 17.963724 129.07135 19.619709 127.43531 Q 21.275696 125.79927 21.555017 123.724304 Q 21.754534 122.28779 21.754534 120.85127 Q 21.754534 117.738815 20.796856 113.948006 Q 20.637243 113.26965 19.918983 113.34946 Q 18.322853 113.54897 16.966143 113.54897 Q 11.060459 113.54897 7.0302296 109.83797 Q 3 106.12697 3 99.74245 Q 3 97.787186 3.4588876 95.89178 Q 3.9177752 93.99637 4.496372 92.61971 Q 5.07497 91.24305 6.2920194 89.427444 Q 7.509069 87.61185 8.247279 86.654175 Q 8.98549 85.696495 10.58162 83.80109 Q 12.177751 81.905685 12.776299 81.14752 Q 13.015719 80.868195 12.896009 80.46916 Z M 19.120918 98.704956 L 21.71463 110.476425 Q 21.834341 110.99516 22.43289 110.99516 Q 22.592503 110.99516 22.712214 110.95526 Q 24.348246 110.2769 25.425634 108.32164 Q 26.503023 106.36639 26.503023 104.45103 Q 26.503023 101.6578 24.86699 99.74245 Q 23.191051 97.787186 19.839178 97.787186 Q 19.559855 97.787186 19.340387 98.00665 Q 19.120918 98.22612 19.120918 98.50545 Q 19.081017 98.62515 19.120918 98.704956 Z M 13.614268 87.61185 Q 12.975816 88.33011 11.7188635 89.66687 Q 10.46191 91.00363 9.8434105 91.701935 Q 9.224909 92.40024 8.3270855 93.67715 Q 7.429262 94.954056 6.9903264 96.03144 Q 6.5513906 97.108826 6.2122126 98.665054 Q 5.873035 100.22128 5.873035 101.97703 Q 5.873035 104.411125 7.3694077 106.68561 Q 8.86578 108.9601 11.479444 110.396614 Q 14.093107 111.83313 17.085854 111.83313 Q 18.16324 111.83313 19.48005 111.713425 Q 19.799274 111.67352 19.99879 111.41415 Q 20.198307 111.15478 20.1185 110.835556 L 17.524788 98.90448 Q 17.405079 98.345825 16.766626 98.345825 Q 16.646915 98.345825 16.487305 98.385735 Q 14.651753 99.06409 13.893591 100.30109 Q 13.135429 101.538086 13.135429 103.41354 Q 13.135429 105.60822 15.529625 107.20435 Q 15.808948 107.40387 15.808948 107.8029 Q 15.808948 108.12213 15.549577 108.40145 Q 15.290205 108.68077 14.931076 108.68077 Q 14.73156 108.68077 14.571947 108.60097 Q 12.297461 107.40387 11.200121 105.348854 Q 10.102781 103.29384 10.102781 101.01935 Q 10.102781 98.82467 11.67896 96.490326 Q 13.255139 94.15599 15.609431 93.278114 Q 16.207981 93.0387 16.088272 92.44015 L 14.891172 87.931076 Q 14.811366 87.49214 14.332527 87.41234 Q 13.853688 87.33253 13.614268 87.61185 Z M 20.318016 64.38815 Q 19.99879 63.350666 19.24063 63.350666 Q 19.00121 63.350666 18.801693 63.470375 Q 16.247883 64.986694 14.751512 67.74002 Q 13.255139 70.49335 13.255139 73.5659 Q 13.255139 75.561066 14.093107 78.474 Q 14.212817 78.91294 14.691656 78.992744 Q 15.090689 79.03265 15.370012 78.713425 Q 15.489722 78.55381 16.507256 77.29686 Q 17.524788 76.0399 17.844013 75.62092 Q 18.16324 75.201935 18.921402 74.02479 Q 19.679565 72.84764 19.97884 72.06953 Q 20.278114 71.29141 20.557436 70.13422 Q 20.83676 68.97703 20.83676 67.81983 Q 20.83676 66.14389 20.318016 64.38815 Z "/>
    </g>
    <use href="#79c003d7f356a2d8b5111a2a227bce45" x="0" y="-50"/>
    <g transform="translate(42, -55)" visibility="hidden">
        <path id="ba338a046e815f517254eb5ca8ba7a74" d="M 3 104.37122 Q 3 101.97703 5.6336155 99.76239 Q 8.267231 97.54776 11.020556 97.54776 Q 12.137848 97.54776 13.155381 97.82709 Q 14.1729145 98.106415 15.090689 99.10399 Q 16.008465 100.10158 16.008465 101.6578 Q 16.008465 103.85248 13.334946 106.16687 Q 10.661427 108.48126 7.987908 108.48126 Q 6.870617 108.48126 5.8530836 108.201935 Q 4.8355503 107.922615 3.9177752 106.92503 Q 3 105.927444 3 104.37122 Z "/>
    </g>
    <use href="#ba338a046e815f517254eb5ca8ba7a74" x="42" y="-55"/>
    <rect x="56.571426" y="13" width="1.4285715" height="35" fill="black"/>
    <path d="M 57.209877 13.014511 L 57.84833 13.014511 Q 57.84833 15.169289 58.706253 17.443771 Q 59.56417 19.718262 60.78122 21.673523 Q 61.99827 23.628777 63.23527 25.603989 Q 64.472275 27.5792 65.33019 29.853691 Q 66.18811 32.128174 66.18811 34.28295 Q 66.18811 38.792023 64.51218 42.542923 Q 64.23285 43.02176 63.754013 43.02176 Q 63.35498 43.02176 63.055706 42.702545 Q 62.75643 42.383316 62.83624 41.94438 Q 64.51218 38.5925 64.51218 34.442566 Q 64.51218 29.893593 59.08533 24.307137 Q 58.845913 24.067719 58.56659 24.067719 Q 58.287266 24.067719 58.0678 24.287186 Q 57.84833 24.506653 57.84833 24.825874 L 57.84833 26.142685 L 57.209877 26.142685 L 57.209877 13.014511 Z " fill="black"/>
    <use href="#ba338a046e815f517254eb5ca8ba7a74" x="42" y="-40" fill="black"/>
    <rect x="45" y="63" width="1.4285715" height="30" fill="black"/>
    <rect x="33" y="33" width="12" height="20" fill="rgba(0,0,0,0.1)"/>
    <path d="M 78.83624 40.4208 Q 77.1603 40.859734 76.043015 40.859734 Q 74.64639 40.859734 73.60891 39.961914 Q 72.57143 39.064087 72.57143 37.707382 Q 72.57143 36.510284 73.429344 35.67231 Q 74.28727 34.834343 75.48437 34.834343 Q 76.24252 34.834343 76.86103 35.253326 Q 77.47953 35.67231 77.71895 36.390564 Q 77.79875 36.62999 77.95837 37.408104 Q 78.11798 38.18622 78.3574 38.465538 Q 78.59682 38.744858 79.11556 38.744858 Q 79.5545 38.744858 80.412415 37.767227 Q 81.27034 36.789597 81.54966 36.230957 Q 81.709274 35.871826 82.10831 35.871826 Q 82.50734 35.871826 82.666954 36.230957 L 77.75885 52.990326 Q 77.319916 53.38936 76.681465 53.38936 Q 76.003105 53.38936 75.56417 52.990326 L 79.71411 41.37848 Q 79.873726 40.939545 79.5944 40.660217 Q 79.27518 40.261185 78.83624 40.4208 Z " fill="black"/>
    <use href="#ba338a046e815f517254eb5ca8ba7a74" x="92.57143" y="-65" fill="black"/>
    <rect x="107.14285" y="3" width="1.4285715" height="35" fill="black"/>
    <path d="M 107.7813 3.014511 L 108.419754 3.014511 Q 108.419754 5.1692886 109.27768 7.4437714 Q 110.1356 9.718262 111.352646 11.673523 Q 112.569695 13.628777 113.8067 15.603989 Q 115.0437 17.5792 115.90162 19.853691 Q 116.75954 22.128174 116.75954 24.282951 Q 116.75954 28.792023 115.0836 32.542923 Q 114.804276 33.02176 114.32544 33.02176 Q 113.92641 33.02176 113.62714 32.702545 Q 113.32786 32.383316 113.40767 31.944382 Q 115.0836 28.592499 115.0836 24.442566 Q 115.0836 19.893593 109.65676 14.307137 Q 109.417336 14.0677185 109.138016 14.0677185 Q 108.858696 14.0677185 108.63922 14.287186 Q 108.419754 14.506653 108.419754 14.825874 L 108.419754 16.142685 L 107.7813 16.142685 L 107.7813 3.014511 Z " fill="black"/>
    <use href="#ba338a046e815f517254eb5ca8ba7a74" x="92.57143" y="-40" fill="black"/>
    <rect x="95.57143" y="63" width="1.4285715" height="30" fill="black"/>
    <path d="M 129.40767 40.4208 Q 127.73173 40.859734 126.61444 40.859734 Q 125.21782 40.859734 124.180336 39.961914 Q 123.14285 39.064087 123.14285 37.707382 Q 123.14285 36.510284 124.00077 35.67231 Q 124.858696 34.834343 126.05579 34.834343 Q 126.81395 34.834343 127.43246 35.253326 Q 128.05095 35.67231 128.29037 36.390564 Q 128.37018 36.62999 128.52979 37.408104 Q 128.6894 38.18622 128.92883 38.465538 Q 129.16824 38.744858 129.68698 38.744858 Q 130.12593 38.744858 130.98384 37.767227 Q 131.84177 36.789597 132.1211 36.230957 Q 132.2807 35.871826 132.67973 35.871826 Q 133.07877 35.871826 133.23837 36.230957 L 128.33028 52.990326 Q 127.89134 53.38936 127.25289 53.38936 Q 126.57453 53.38936 126.1356 52.990326 L 130.28554 41.37848 Q 130.44514 40.939545 130.16583 40.660217 Q 129.8466 40.261185 129.40767 40.4208 Z " fill="black"/>
    <use href="#ba338a046e815f517254eb5ca8ba7a74" x="143.14285" y="-60" fill="black"/>
    <rect x="157.71428" y="8" width="1.4285715" height="35" fill="black"/>
    <use href="#ba338a046e815f517254eb5ca8ba7a74" x="143.14285" y="-40" fill="black"/>
    <rect x="146.14285" y="63" width="1.4285715" height="30" fill="black"/>
    <use href="#ba338a046e815f517254eb5ca8ba7a74" x="175.34285" y="-60" fill="black"/>
    <rect x="189.91428" y="8" width="1.4285715" height="35" fill="black"/>
    <use href="#ba338a046e815f517254eb5ca8ba7a74" x="175.34285" y="-40" fill="black"/>
    <rect x="178.34285" y="63" width="1.4285715" height="30" fill="black"/>
</svg>
