<svg xmlns="http://www.w3.org/2000/svg" xmlns:xlink="http://www.w3.org/1999/xlink" width="244.14285" height="79.66143" viewBox="0 0 244.14285 79.66143">
    <rect x="0" y="0" width="244.14285" height="79.66143" fill="white"/>
    <line x1="3" y1="18.874245" x2="45" y2="18.874245" stroke="black" stroke-width="1"/>
    <line x1="3" y1="28.874245" x2="45" y2="28.874245" stroke="black" stroke-width="1"/>
    <line x1="3" y1="38.874245" x2="45" y2="38.874245" stroke="black" stroke-width="1"/>
    <line x1="3" y1="48.874245" x2="45" y2="48.874245" stroke="black" stroke-width="1"/>
    <line x1="3" y1="58.874245" x2="45" y2="58.874245" stroke="black" stroke-width="1"/>
    <line x1="45" y1="18.874245" x2="68" y2="18.874245" stroke="black" stroke-width="1"/>
    <line x1="45" y1="28.874245" x2="68" y2="28.874245" stroke="black" stroke-width="1"/>
    <line x1="45" y1="38.874245" x2="68" y2="38.874245" stroke="black" stroke-width="1"/>
    <line x1="45" y1="48.874245" x2="68" y2="48.874245" stroke="black" stroke-width="1"/>
    <line x1="45" y1="58.874245" x2="68" y2="58.874245" stroke="black" stroke-width="1"/>
    <line x1="68" y1="18.874245" x2="95.57143" y2="18.874245" stroke="black" stroke-width="1"/>
    <line x1="68" y1="28.874245" x2="95.57143" y2="28.874245" stroke="black" stroke-width="1"/>
    <line x1="68" y1="38.874245" x2="95.57143" y2="38.874245" stroke="black" stroke-width="1"/>
    <line x1="68" y1="48.874245" x2="95.57143" y2="48.874245" stroke="black" stroke-width="1"/>
    <line x1="68" y1="58.874245" x2="95.57143" y2="58.874245" stroke="black" stroke-width="1"/>
    <line x1="95.57143" y1="18.874245" x2="118.57143" y2="18.874245" stroke="black" stroke-width="1"/>
    <line x1="95.57143" y1="28.874245" x2="118.57143" y2="28.874245" stroke="black" stroke-width="1"/>
    <line x1="95.57143" y1="38.874245" x2="118.57143" y2="38.874245" stroke="black" stroke-width="1"/>
    <line x1="95.57143" y1="48.874245" x2="118.57143" y2="48.874245" stroke="black" stroke-width="1"/>
    <line x1="95.57143" y1="58.874245" x2="118.57143" y2="58.874245" stroke="black" stroke-width="1"/>
    <line x1="118.57143" y1="18.874245" x2="146.14285" y2="18.874245" stroke="black" stroke-width="1"/>
    <line x1="118.57143" y1="28.874245" x2="146.14285" y2="28.874245" stroke="black" stroke-width="1"/>
    <line x1="118.57143" y1="38.874245" x2="146.14285" y2="38.874245" stroke="black" stroke-width="1"/>
    <line x1="118.57143" y1="48.874245" x2="146.14285" y2="48.874245" stroke="black" stroke-width="1"/>
    <line x1="118.57143" y1="58.874245" x2="146.14285" y2="58.874245" stroke="black" stroke-width="1"/>
    <line x1="146.14285" y1="18.874245" x2="169.14285" y2="18.874245" stroke="black" stroke-width="1"/>
    <line x1="146.14285" y1="28.874245" x2="169.14285" y2="28.874245" stroke="black" stroke-width="1"/>
    <line x1="146.14285" y1="38.874245" x2="169.14285" y2="38.874245" stroke="black" stroke-width="1"/>
    <line x1="146.14285" y1="48.874245" x2="169.14285" y2="48.874245" stroke="black" stroke-width="1"/>
    <line x1="146.14285" y1="58.874245" x2="169.14285" y2="58.874245" stroke="black" stroke-width="1"/>
    <line x1="169.14285" y1="18.874245" x2="192.14285" y2="18.874245" stroke="black" stroke-width="1"/>
    <line x1="169.14285" y1="28.874245" x2="192.14285" y2="28.874245" stroke="black" stroke-width="1"/>
    <line x1="169.14285" y1="38.874245" x2="192.14285" y2="38.874245" stroke="black" stroke-width="1"/>
    <line x1="169.14285" y1="48.874245" x2="192.14285" y2="48.874245" stroke="black" stroke-width="1"/>
    <line x1="169.14285" y1="58.874245" x2="192.14285" y2="58.874245" stroke="black" stroke-width="1"/>
    <line x1="192.14285" y1="18.874245" x2="215.14285" y2="18.874245" stroke="black" stroke-width="1"/>
    <line x1="192.14285" y1="28.874245" x2="215.14285" y2="28.874245" stroke="black" stroke-width="1"/>
    <line x1="192.14285" y1="38.874245" x2="215.14285" y2="38.874245" stroke="black" stroke-width="1"/>
    <line x1="192.14285" y1="48.874245" x2="215.14285" y2="48.874245" stroke="black" stroke-width="1"/>
    <line x1="192.14285" y1="58.874245" x2="215.14285" y2="58.874245" stroke="black" stroke-width="1"/>
    <line x1="215.14285" y1="18.874245" x2="238.14285" y2="18.874245" stroke="black" stroke-width="1"/>
    <line x1="215.14285" y1="28.874245" x2="238.14285" y2="28.874245" stroke="black" stroke-width="1"/>
    <line x1="215.14285" y1="38.874245" x2="238.14285" y2="38.874245" stroke="black" stroke-width="1"/>
    <line x1="215.14285" y1="48.874245" x2="238.14285" y2="48.874245" stroke="black" stroke-width="1"/>
    <line x1="215.14285" y1="58.874245" x2="238.14285" y2="58.874245" stroke="black" stroke-width="1"/>
    <line x1="238.14285" y1="18.874245" x2="241.14285" y2="18.874245" stroke="black" stroke-width="1"/>
    <line x1="238.14285" y1="28.874245" x2="241.14285" y2="28.874245" stroke="black" stroke-width="1"/>
    <line x1="238.14285" y1="38.874245" x2="241.14285" y2="38.874245" stroke="black" stroke-width="1"/>
    <line x1="238.14285" y1="48.874245" x2="241.14285" y2="48.874245" stroke="black" stroke-width="1"/>
    <line x1="238.14285" y1="58.874245" x2="241.14285" y2="58.874245" stroke="black" stroke-width="1"/>
    <g transform="translate(0, -50)" visibility="hidden">
        <path id="e82085518de02647a4435b6981516df1" d="M 12.896009 76.343414 Q 11.978234 73.43047 11.619105 71.15599 Q 11.299879 69.24063 11.299879 66.68682 Q 11.299879 65.808945 11.339783 64.931076 Q 11.499395 61.140266 12.896009 57.967957 Q 14.2926235 54.795647 17.085854 53.119713 Q 17.28537 53 17.604595 53 Q 17.883919 53 18.083435 53.199516 Q 20.318016 55.4341 21.515114 58.905685 Q 22.712214 62.37727 22.712214 65.92866 Q 22.712214 70.0387 20.956469 73.98912 Q 19.280533 77.939545 16.247883 80.97219 Q 16.008465 81.21161 16.088272 81.61064 L 17.684402 87.99516 Q 17.804111 88.63362 18.482468 88.55381 Q 19.120918 88.474 19.719467 88.474 Q 22.033857 88.474 23.909311 89.39178 Q 25.784763 90.309555 26.94196 91.78597 Q 28.099154 93.26239 28.717653 95.038086 Q 29.336155 96.81378 29.336155 98.68924 Q 29.336155 102.12092 27.420797 104.894196 Q 25.505442 107.66747 22.831923 108.54534 Q 22.273277 108.744865 22.392986 109.383316 Q 23.390568 114.091896 23.430471 117.324066 Q 23.430471 118.561066 23.270859 119.75816 Q 22.951632 122.51149 20.876663 124.58646 Q 18.801693 126.66143 15.928658 126.66143 Q 12.417171 126.66143 9.983071 124.546555 Q 7.548972 122.43168 7.548972 119 Q 7.548972 117.244255 8.785974 115.967354 Q 10.022974 114.69045 11.698912 114.69045 Q 13.414752 114.69045 14.591898 115.90749 Q 15.769045 117.12455 15.769045 118.80048 Q 15.769045 120.237 14.811366 121.31439 Q 13.853688 122.43168 12.496977 122.55139 Q 12.018138 122.59129 11.858524 123.030235 Q 11.698912 123.46917 12.177751 123.8283 Q 13.614268 124.94559 15.689239 124.94559 Q 17.963724 124.94559 19.619709 123.309555 Q 21.275696 121.673515 21.555017 119.59855 Q 21.754534 118.16203 21.754534 116.72552 Q 21.754534 113.61306 20.796856 109.82225 Q 20.637243 109.1439 19.918983 109.2237 Q 18.322853 109.42322 16.966143 109.42322 Q 11.060459 109.42322 7.0302296 105.71221 Q 3 102.001205 3 95.616684 Q 3 93.66142 3.4588876 91.76602 Q 3.9177752 89.87062 4.496372 88.49396 Q 5.07497 87.117294 6.2920194 85.3017 Q 7.509069 83.4861 8.247279 82.52842 Q 8.98549 81.57074 10.58162 79.67533 Q 12.177751 77.77993 12.776299 77.02177 Q 13.015719 76.74245 12.896009 76.343414 Z M 19.120918 94.57921 L 21.71463 106.35067 Q 21.834341 106.86941 22.43289 106.86941 Q 22.592503 106.86941 22.712214 106.829506 Q 24.348246 106.151146 25.425634 104.195885 Q 26.503023 102.24063 26.503023 100.32527 Q 26.503023 97.53204 24.86699 95.616684 Q 23.191051 93.66142 19.839178 93.66142 Q 19.559855 93.66142 19.340387 93.8809 Q 19.120918 94.100365 19.120918 94.379684 Q 19.081017 94.4994 19.120918 94.57921 Z M 13.614268 83.4861 Q 12.975816 84.20435 11.7188635 85.541115 Q 10.46191 86.87787 9.8434105 87.57618 Q 9.224909 88.27449 8.3270855 89.55139 Q 7.429262 90.82829 6.9903264 91.905685 Q 6.5513906 92.98308 6.2122126 94.5393 Q 5.873035 96.09553 5.873035 97.85127 Q 5.873035 100.28537 7.3694077 102.55986 Q 8.86578 104.83434 11.479444 106.27086 Q 14.093107 107.707375 17.085854 107.707375 Q 18.16324 107.707375 19.48005 107.58767 Q 19.799274 107.54777 19.99879 107.28839 Q 20.198307 107.02902 20.1185 106.7098 L 17.524788 94.77872 Q 17.405079 94.22008 16.766626 94.22008 Q 16.646915 94.22008 16.487305 94.25998 Q 14.651753 94.93833 13.893591 96.17534 Q 13.135429 97.41234 13.135429 99.28779 Q 13.135429 101.48247 15.529625 103.0786 Q 15.808948 103.278114 15.808948 103.67715 Q 15.808948 103.996376 15.549577 104.275696 Q 15.290205 104.555016 14.931076 104.555016 Q 14.73156 104.555016 14.571947 104.47521 Q 12.297461 103.278114 11.200121 101.2231 Q 10.102781 99.168076 10.102781 96.89359 Q 10.102781 94.69891 11.67896 92.36457 Q 13.255139 90.03023 15.609431 89.15236 Q 16.207981 88.91294 16.088272 88.31439 L 14.891172 83.80532 Q 14.811366 83.36639 14.332527 83.286575 Q 13.853688 83.20677 13.614268 83.4861 Z M 20.318016 60.262394 Q 19.99879 59.22491 19.24063 59.22491 Q 19.00121 59.22491 18.801693 59.34462 Q 16.247883 60.860943 14.751512 63.61427 Q 13.255139 66.3676 13.255139 69.44015 Q 13.255139 71.43531 14.093107 74.34825 Q 14.212817 74.787186 14.691656 74.86699 Q 15.090689 74.90689 15.370012 74.58767 Q 15.489722 74.428055 16.507256 73.171104 Q 17.524788 71.91415 17.844013 71.49516 Q 18.16324 71.07618 18.921402 69.89903 Q 19.679565 68.721886 19.97884 67.94377 Q 20.278114 67.165665 20.557436 66.00847 Q 20.83676 64.85127 20.83676 63.694077 Q 20.83676 62.01814 20.318016 60.262394 Z "/>
    </g>
    <use href="#e82085518de02647a4435b6981516df1" x="0" y="-50"/>
    <path d="M 51.264812 36.295044 Q 49.588875 36.73398 48.471584 36.73398 Q 47.07497 36.73398 46.037483 35.83615 Q 45 34.93833 45 33.58162 Q 45 32.38452 45.85792 31.546555 Q 46.71584 30.708588 47.912937 30.708588 Q 48.6711 30.708588 49.2896 31.127571 Q 49.9081 31.546555 50.147522 32.264816 Q 50.227325 32.504234 50.38694 33.28235 Q 50.546555 34.060455 50.785973 34.339783 Q 51.02539 34.61911 51.544136 34.61911 Q 51.98307 34.61911 52.840992 33.64148 Q 53.698914 32.66385 53.978233 32.1052 Q 54.137848 31.74607 54.53688 31.74607 Q 54.935913 31.74607 55.095528 32.1052 L 50.187424 48.86457 Q 49.74849 49.263603 49.110035 49.263603 Q 48.43168 49.263603 47.992744 48.86457 L 52.142685 37.252724 Q 52.3023 36.81378 52.022972 36.534462 Q 51.70375 36.13543 51.264812 36.295044 Z " fill="black"/>
    <rect x="33" y="28.874245" width="12" height="20" fill="rgba(0,0,0,0.1)"/>
    <g transform="translate(65, -50)" visibility="hidden">
        <path id="44c00b032493ed7ceb3921b2d2a9b3cd" d="M 3 100.24547 Q 3 97.85127 5.6336155 95.63664 Q 8.267231 93.42201 11.020556 93.42201 Q 12.137848 93.42201 13.155381 93.70133 Q 14.1729145 93.98065 15.090689 94.97824 Q 16.008465 95.975815 16.008465 97.53204 Q 16.008465 99.72672 13.334946 102.041115 Q 10.661427 104.35551 7.987908 104.35551 Q 6.870617 104.35551 5.8530836 104.07618 Q 4.8355503 103.79686 3.9177752 102.79927 Q 3 101.8017 3 100.24547 Z "/>
    </g>
    <use href="#44c00b032493ed7ceb3921b2d2a9b3cd" x="65" y="-50"/>
    <rect x="79.57143" y="13.874245" width="1.4285715" height="35" fill="black"/>
    <path d="M 80.20988 13.888756 L 80.84833 13.888756 Q 80.84833 16.043533 81.70625 18.318016 Q 82.56417 20.592506 83.78122 22.547768 Q 84.99827 24.503021 86.235275 26.478233 Q 87.472275 28.453445 88.33019 30.727936 Q 89.18811 33.00242 89.18811 35.157196 Q 89.18811 39.666267 87.51218 43.417175 Q 87.23285 43.89601 86.75401 43.89601 Q 86.35498 43.89601 86.05571 43.576782 Q 85.75643 43.25757 85.83624 42.818626 Q 87.51218 39.46675 87.51218 35.31681 Q 87.51218 30.767838 82.085335 25.181381 Q 81.84591 24.941963 81.56659 24.941963 Q 81.28727 24.941963 81.067795 25.16143 Q 80.84833 25.380898 80.84833 25.700119 L 80.84833 27.01693 L 80.20988 27.01693 L 80.20988 13.888756 Z " fill="black"/>
    <path d="M 101.83624 36.295044 Q 100.1603 36.73398 99.043015 36.73398 Q 97.64639 36.73398 96.60891 35.83615 Q 95.57143 34.93833 95.57143 33.58162 Q 95.57143 32.38452 96.429344 31.546555 Q 97.28727 30.708588 98.48437 30.708588 Q 99.24252 30.708588 99.86103 31.127571 Q 100.47953 31.546555 100.71895 32.264816 Q 100.79875 32.504234 100.95837 33.28235 Q 101.11798 34.060455 101.3574 34.339783 Q 101.59682 34.61911 102.11556 34.61911 Q 102.5545 34.61911 103.412415 33.64148 Q 104.27034 32.66385 104.54966 32.1052 Q 104.709274 31.74607 105.10831 31.74607 Q 105.50734 31.74607 105.666954 32.1052 L 100.75885 48.86457 Q 100.319916 49.263603 99.681465 49.263603 Q 99.003105 49.263603 98.56417 48.86457 L 102.71411 37.252724 Q 102.873726 36.81378 102.5944 36.534462 Q 102.27518 36.13543 101.83624 36.295044 Z " fill="black"/>
    <use href="#44c00b032493ed7ceb3921b2d2a9b3cd" x="115.57143" y="-55" fill="black"/>
    <rect x="130.14285" y="8.874245" width="1.4285715" height="35" fill="black"/>
    <path d="M 130.78131 8.888756 L 131.41975 8.888756 Q 131.41975 11.043533 132.27768 13.318016 Q 133.1356 15.592506 134.35265 17.547768 Q 135.5697 19.503021 136.8067 21.478233 Q 138.0437 23.453445 138.90161 25.727936 Q 139.75954 28.002419 139.75954 30.157196 Q 139.75954 34.666267 138.0836 38.417175 Q 137.80428 38.89601 137.32544 38.89601 Q 136.9264 38.89601 136.62714 38.576782 Q 136.32787 38.25757 136.40767 37.818626 Q 138.0836 34.46675 138.0836 30.31681 Q 138.0836 25.767838 132.65675 20.181381 Q 132.41734 19.941963 132.13802 19.941963 Q 131.85869 19.941963 131.63922 20.16143 Q 131.41975 20.380898 131.41975 20.700119 L 131.41975 22.01693 L 130.78131 22.01693 L 130.78131 8.888756 Z " fill="black"/>
    <path d="M 152.40767 36.295044 Q 150.73174 36.73398 149.61444 36.73398 Q 148.21782 36.73398 147.18034 35.83615 Q 146.14285 34.93833 146.14285 33.58162 Q 146.14285 32.38452 147.00078 31.546555 Q 147.85869 30.708588 149.05579 30.708588 Q 149.81395 30.708588 150.43245 31.127571 Q 151.05095 31.546555 151.29037 32.264816 Q 151.37018 32.504234 151.52979 33.28235 Q 151.6894 34.060455 151.92883 34.339783 Q 152.16824 34.61911 152.68698 34.61911 Q 153.12593 34.61911 153.98384 33.64148 Q 154.84177 32.66385 155.1211 32.1052 Q 155.2807 31.74607 155.67973 31.74607 Q 156.07877 31.74607 156.23837 32.1052 L 151.33028 48.86457 Q 150.89134 49.263603 150.25288 49.263603 Q 149.57454 49.263603 149.1356 48.86457 L 153.28554 37.252724 Q 153.44514 36.81378 153.16583 36.534462 Q 152.8466 36.13543 152.40767 36.295044 Z " fill="black"/>
    <use href="#44c00b032493ed7ceb3921b2d2a9b3cd" x="166.14285" y="-60" fill="black"/>
    <rect x="169.14285" y="38.874245" width="1.4285715" height="35" fill="black"/>
    <path d="M 171.49715 63.23459 Q 179.4778 58.246674 179.4778 53.577995 Q 179.4778 50.425636 177.84177 47.07376 Q 177.76196 46.634827 178.06123 46.315598 Q 178.3605 45.996376 178.75954 45.996376 Q 179.27829 45.996376 179.5576 46.43531 Q 181.15373 50.026604 181.15373 53.577995 Q 181.15373 55.214027 180.55519 56.810158 Q 179.95663 58.40629 179.0189 59.74305 Q 178.08118 61.079803 176.94394 62.396614 Q 175.8067 63.713425 174.6495 65.050186 Q 173.49231 66.38694 172.55458 67.7237 Q 171.61685 69.06046 171.01831 70.65659 Q 170.41975 72.25272 170.41975 73.888756 L 169.78131 73.888756 L 169.78131 61.119713 L 170.41975 61.119713 L 170.41975 62.59613 Q 170.41975 62.91536 170.63922 63.114876 Q 170.85869 63.314392 171.13802 63.314392 Q 171.33752 63.314392 171.49715 63.23459 Z " fill="black"/>
    <path d="M 198.40767 36.295044 Q 196.73174 36.73398 195.61444 36.73398 Q 194.21782 36.73398 193.18034 35.83615 Q 192.14285 34.93833 192.14285 33.58162 Q 192.14285 32.38452 193.00078 31.546555 Q 193.85869 30.708588 195.05579 30.708588 Q 195.81395 30.708588 196.43245 31.127571 Q 197.05095 31.546555 197.29037 32.264816 Q 197.37018 32.504234 197.52979 33.28235 Q 197.6894 34.060455 197.92883 34.339783 Q 198.16824 34.61911 198.68698 34.61911 Q 199.12593 34.61911 199.98384 33.64148 Q 200.84177 32.66385 201.1211 32.1052 Q 201.2807 31.74607 201.67973 31.74607 Q 202.07877 31.74607 202.23837 32.1052 L 197.33028 48.86457 Q 196.89134 49.263603 196.25288 49.263603 Q 195.57454 49.263603 195.1356 48.86457 L 199.28554 37.252724 Q 199.44514 36.81378 199.16583 36.534462 Q 198.8466 36.13543 198.40767 36.295044 Z " fill="black"/>
    <use href="#44c00b032493ed7ceb3921b2d2a9b3cd" x="212.14285" y="-65" fill="black"/>
    <rect x="215.14285" y="33.874245" width="1.4285715" height="35" fill="black"/>
    <path d="M 217.49715 58.23459 Q 225.4778 53.246674 225.4778 48.577995 Q 225.4778 45.425636 223.84177 42.07376 Q 223.76196 41.634827 224.06123 41.315598 Q 224.3605 40.996376 224.75954 40.996376 Q 225.27829 40.996376 225.5576 41.43531 Q 227.15373 45.026604 227.15373 48.577995 Q 227.15373 50.214027 226.55519 51.810158 Q 225.95663 53.40629 225.0189 54.74305 Q 224.08118 56.079803 222.94394 57.396614 Q 221.8067 58.713425 220.6495 60.050186 Q 219.49231 61.38694 218.55458 62.7237 Q 217.61685 64.06046 217.01831 65.65659 Q 216.41975 67.25272 216.41975 68.888756 L 215.78131 68.888756 L 215.78131 56.119713 L 216.41975 56.119713 L 216.41975 57.59613 Q 216.41975 57.91536 216.63922 58.114876 Q 216.85869 58.314392 217.13802 58.314392 Q 217.33752 58.314392 217.49715 58.23459 Z " fill="black"/>
    <rect x="238.14285" y="18.874245" width="3" height="40" fill="black"/>
</svg>
