<svg xmlns="http://www.w3.org/2000/svg" xmlns:xlink="http://www.w3.org/1999/xlink" width="194.1" height="95.874245" viewBox="0 0 194.1 95.874245">
    <rect x="0" y="0" width="194.1" height="95.874245" fill="white"/>
    <rect x="0.1" y="15.874245" width="30" height="40" fill="lightgray"/>
    <path d="M 0.1 56.3676 L 0.1 55.37001 L 40.00326 55.37001 L 40.00326 56.3676 L 0.1 56.3676 Z M 0.1 46.391777 L 0.1 45.394196 L 40.00326 45.394196 L 40.00326 46.391777 L 0.1 46.391777 Z M 0.1 36.415962 L 0.1 35.41838 L 40.00326 35.41838 L 40.00326 36.415962 L 0.1 36.415962 Z M 0.1 26.440147 L 0.1 25.442566 L 40.00326 25.442566 L 40.00326 26.440147 L 0.1 26.440147 Z M 0.1 16.464329 L 0.1 15.466747 L 40.00326 15.466747 L 40.00326 16.464329 L 0.1 16.464329 Z " fill="red"/>
    <path d="M 9.99601 23.343414 Q 9.078235 20.430473 8.719106 18.15599 Q 8.399879 16.240631 8.399879 13.686821 Q 8.399879 12.8089485 8.439783 11.931076 Q 8.599396 8.140266 9.99601 4.9679565 Q 11.392624 1.7956467 14.185853 0.11971283 Q 14.385369 0 14.704596 0 Q 14.983918 0 15.1834345 0.1995163 Q 17.418016 2.434101 18.615114 5.9056854 Q 19.812214 9.37727 19.812214 12.928658 Q 19.812214 17.038696 18.056469 20.98912 Q 16.380533 24.939545 13.347884 27.97219 Q 13.108464 28.211609 13.1882715 28.610641 L 14.784402 34.995163 Q 14.904112 35.63362 15.582467 35.55381 Q 16.220919 35.474 16.819468 35.474 Q 19.133858 35.474 21.009312 36.391777 Q 22.884764 37.309555 24.04196 38.785973 Q 25.199154 40.26239 25.817654 42.038086 Q 26.436155 43.81378 26.436155 45.68924 Q 26.436155 49.12092 24.520798 51.894196 Q 22.605442 54.667473 19.931923 55.54534 Q 19.373278 55.744865 19.492987 56.383316 Q 20.490568 61.091896 20.530472 64.324066 Q 20.530472 65.561066 20.37086 66.75816 Q 20.051632 69.51149 17.976664 71.58646 Q 15.901693 73.66143 13.028658 73.66143 Q 9.517171 73.66143 7.083071 71.546555 Q 4.648972 69.43168 4.648972 66 Q 4.648972 64.244255 5.8859735 62.967354 Q 7.1229744 61.690453 8.798912 61.690453 Q 10.514752 61.690453 11.691898 62.907494 Q 12.869045 64.12455 12.869045 65.80048 Q 12.869045 67.237 11.911366 68.31439 Q 10.953689 69.43168 9.596977 69.55139 Q 9.118138 69.59129 8.958525 70.030235 Q 8.798912 70.46917 9.277751 70.8283 Q 10.714269 71.94559 12.789239 71.94559 Q 15.0637245 71.94559 16.71971 70.309555 Q 18.375696 68.673515 18.655018 66.59855 Q 18.854534 65.16203 18.854534 63.725517 Q 18.854534 60.61306 17.896856 56.82225 Q 17.737244 56.143898 17.018984 56.2237 Q 15.422853 56.423218 14.066143 56.423218 Q 8.1604595 56.423218 4.1302295 52.71221 Q 0.1 49.001205 0.1 42.616684 Q 0.1 40.661423 0.55888754 38.76602 Q 1.017775 36.87062 1.5963725 35.493958 Q 2.1749697 34.117294 3.3920193 32.301697 Q 4.609069 30.4861 5.347279 29.52842 Q 6.0854897 28.57074 7.68162 26.675331 Q 9.277751 24.77993 9.8763 24.021767 Q 10.11572 23.742447 9.99601 23.343414 Z M 16.220919 41.57921 L 18.81463 53.35067 Q 18.934341 53.869408 19.53289 53.869408 Q 19.692503 53.869408 19.812214 53.829506 Q 21.448246 53.151146 22.525635 51.195885 Q 23.603024 49.24063 23.603024 47.32527 Q 23.603024 44.532043 21.96699 42.616684 Q 20.291052 40.661423 16.939178 40.661423 Q 16.659855 40.661423 16.440388 40.880898 Q 16.220919 41.100365 16.220919 41.379684 Q 16.181017 41.499397 16.220919 41.57921 Z M 10.714269 30.4861 Q 10.075816 31.204353 8.818864 32.541115 Q 7.56191 33.87787 6.94341 34.57618 Q 6.324909 35.27449 5.427086 36.55139 Q 4.529262 37.828293 4.0903263 38.905685 Q 3.6513906 39.983078 3.3122127 41.5393 Q 2.9730349 43.095528 2.9730349 44.851273 Q 2.9730349 47.28537 4.4694076 49.55986 Q 5.96578 51.834343 8.579444 53.27086 Q 11.193108 54.707375 14.185853 54.707375 Q 15.263241 54.707375 16.58005 54.58767 Q 16.899275 54.547768 17.098791 54.28839 Q 17.298307 54.029022 17.2185 53.7098 L 14.624788 41.778717 Q 14.505079 41.220078 13.866627 41.220078 Q 13.746917 41.220078 13.587304 41.25998 Q 11.751754 41.93833 10.993591 43.17534 Q 10.23543 44.41234 10.23543 46.28779 Q 10.23543 48.482468 12.629625 50.078598 Q 12.908948 50.278114 12.908948 50.677147 Q 12.908948 50.996376 12.649577 51.275696 Q 12.390205 51.555016 12.031076 51.555016 Q 11.83156 51.555016 11.6719475 51.475212 Q 9.397461 50.278114 8.300121 48.2231 Q 7.202781 46.168076 7.202781 43.893593 Q 7.202781 41.698914 8.77896 39.36457 Q 10.35514 37.030228 12.709432 36.15236 Q 13.307981 35.91294 13.1882715 35.314392 L 11.991173 30.80532 Q 11.911366 30.366386 11.432528 30.286575 Q 10.953689 30.206772 10.714269 30.4861 Z M 17.418016 7.262394 Q 17.098791 6.2249107 16.34063 6.2249107 Q 16.10121 6.2249107 15.901693 6.3446198 Q 13.347884 7.860943 11.851512 10.614269 Q 10.35514 13.367596 10.35514 16.440147 Q 10.35514 18.43531 11.193108 21.348251 Q 11.312818 21.787186 11.7916565 21.86699 Q 12.190689 21.90689 12.470013 21.58767 Q 12.589723 21.428055 13.607255 20.171104 Q 14.624788 18.914146 14.944015 18.495163 Q 15.263241 18.07618 16.021402 16.899033 Q 16.779566 15.721886 17.07884 14.943771 Q 17.378115 14.165665 17.657436 13.008465 Q 17.93676 11.851273 17.93676 10.694077 Q 17.93676 9.018139 17.418016 7.262394 Z " fill="black"/>
    <path d="M 38.1 22.245468 Q 38.1 19.851273 40.733616 17.636642 Q 43.36723 15.422012 46.120556 15.422012 Q 47.237846 15.422012 48.255383 15.701332 Q 49.272915 15.980652 50.19069 16.978241 Q 51.108463 17.975815 51.108463 19.532043 Q 51.108463 21.726723 48.434944 24.041115 Q 45.761425 26.355507 43.087906 26.355507 Q 41.970615 26.355507 40.953083 26.07618 Q 39.93555 25.79686 39.017776 24.79927 Q 38.1 23.801697 38.1 22.245468 Z " fill="black"/>
    <rect x="38.1" y="20.874245" width="1.4285715" height="40" fill="black"/>
    <rect x="30.1" y="25.874245" width="8" height="20" fill="gray"/>
    <path d="M 61.1 32.24547 Q 61.1 29.851273 63.733616 27.636642 Q 66.36723 25.422012 69.12056 25.422012 Q 70.23785 25.422012 71.25538 25.701332 Q 72.27292 25.980652 73.19069 26.978241 Q 74.10847 27.975815 74.10847 29.532043 Q 74.10847 31.726723 71.434944 34.041115 Q 68.76143 36.355507 66.087906 36.355507 Q 64.97062 36.355507 63.953083 36.07618 Q 62.93555 35.79686 62.017776 34.79927 Q 61.1 33.801697 61.1 32.24547 Z " fill="black"/>
    <rect x="61.1" y="30.874245" width="1.4285715" height="35" fill="black"/>
    <path d="M 53.853325 23.70617 L 58.162876 22.828293 L 58.28259 22.828293 Q 59.000847 22.828293 59.000847 23.506653 L 59.28017 45.852478 Q 58.721523 46.131798 58.28259 46.131798 Q 57.84365 46.131798 57.285007 45.852478 L 57.404716 38.789604 Q 57.404716 38.510277 57.2052 38.29081 Q 57.005684 38.071342 56.68646 38.071342 Q 56.60665 38.071342 56.566746 38.071342 L 52.257195 38.98912 L 52.137486 38.98912 Q 51.419228 38.98912 51.419228 38.31076 L 51.1 15.925034 Q 51.658646 15.645706 52.137486 15.645706 Q 52.57642 15.645706 53.135067 15.925034 L 53.015358 22.948006 Q 53.015358 23.267235 53.214874 23.486702 Q 53.41439 23.70617 53.733616 23.70617 Q 53.773518 23.70617 53.853325 23.70617 Z M 53.69371 34.87908 L 56.84607 34.160828 Q 57.44462 34.041115 57.44462 33.442566 L 57.564327 27.656593 Q 57.564327 27.337364 57.32491 27.097946 Q 57.08549 26.858528 56.766262 26.938332 L 53.574 27.616684 Q 52.975452 27.736397 52.975452 28.295044 L 52.855743 34.20073 Q 52.855743 34.51995 53.115116 34.739426 Q 53.374485 34.958885 53.69371 34.87908 Z " fill="black"/>
    <path d="M 80.1 57.24547 Q 80.1 54.851273 82.73361 52.636642 Q 85.36723 50.422012 88.12056 50.422012 Q 89.23785 50.422012 90.25538 50.701332 Q 91.27292 50.98065 92.19069 51.97824 Q 93.10847 52.975815 93.10847 54.532043 Q 93.10847 56.726723 90.434944 59.041115 Q 87.76143 61.355507 85.087906 61.355507 Q 83.97062 61.355507 82.95309 61.07618 Q 81.93555 60.79686 81.01778 59.79927 Q 80.1 58.801697 80.1 57.24547 Z " fill="black"/>
    <rect x="91.671425" y="20.874245" width="1.4285715" height="35" fill="black"/>
    <path d="M 76.21911 52.058044 L 76.21911 56.92624 Q 76.21911 57.24547 76.418625 57.444984 Q 76.61814 57.6445 76.93736 57.6445 Q 77.057076 57.6445 77.17678 57.6046 L 77.49601 57.484886 Q 77.61572 57.444984 77.77533 57.444984 Q 78.09456 57.444984 78.33398 57.684402 Q 78.573395 57.92382 78.573395 58.24305 L 78.573395 60.637245 Q 78.573395 61.155983 78.05466 61.355507 L 76.697945 61.874245 Q 76.21911 62.07376 76.21911 62.512695 L 76.21911 68.33857 Q 76.21911 68.6578 75.99963 68.877266 Q 75.78017 69.09673 75.50085 69.09673 Q 75.18162 69.09673 74.96215 68.877266 Q 74.74268 68.6578 74.74268 68.33857 L 74.74268 63.590088 Q 74.74268 63.27086 74.52322 63.071342 Q 74.30375 62.871826 74.02443 62.871826 Q 73.864815 62.871826 73.7451 62.911728 L 71.90955 63.62999 Q 71.43071 63.789604 71.43071 64.26844 L 71.43071 70.09432 Q 71.43071 70.41354 71.19129 70.63301 Q 70.95187 70.85248 70.672554 70.85248 Q 70.39323 70.85248 70.17376 70.63301 Q 69.95429 70.41354 69.95429 70.09432 L 69.95429 65.34583 Q 69.95429 65.0266 69.734825 64.82709 Q 69.51536 64.62757 69.23603 64.62757 Q 69.116325 64.62757 68.99661 64.66747 L 68.67739 64.787186 Q 68.59758 64.82709 68.39806 64.82709 Q 68.07884 64.82709 67.83942 64.58767 Q 67.6 64.34824 67.6 64.02902 L 67.6 61.634827 Q 67.6 61.07618 68.118744 60.876663 L 69.47546 60.397827 Q 69.95429 60.278114 69.95429 59.719467 L 69.95429 54.851273 Q 69.95429 54.532043 69.734825 54.332527 Q 69.51536 54.13301 69.23603 54.13301 Q 69.116325 54.13301 69.036514 54.172913 L 68.67739 54.292625 Q 68.59758 54.332527 68.39806 54.332527 Q 68.07884 54.332527 67.83942 54.09311 Q 67.6 53.85369 67.6 53.534462 L 67.6 51.140266 Q 67.6 50.62152 68.118744 50.422012 L 69.51536 49.903267 Q 69.95429 49.70375 69.95429 49.264816 L 69.95429 43.438934 Q 69.95429 43.119713 70.17376 42.900238 Q 70.39323 42.68077 70.672554 42.68077 Q 70.95187 42.68077 71.19129 42.900238 Q 71.43071 43.119713 71.43071 43.438934 L 71.43071 48.187424 Q 71.43071 48.506653 71.650185 48.70617 Q 71.86965 48.905685 72.18887 48.905685 Q 72.308586 48.905685 72.4283 48.865784 L 74.26385 48.147522 Q 74.74268 47.948006 74.74268 47.469162 L 74.74268 41.683197 Q 74.74268 41.363968 74.96215 41.1445 Q 75.18162 40.925034 75.50085 40.925034 Q 75.78017 40.925034 75.99963 41.1445 Q 76.21911 41.363968 76.21911 41.683197 L 76.21911 46.47159 Q 76.21911 46.750908 76.418625 46.950424 Q 76.61814 47.14994 76.89746 47.14994 Q 77.01717 47.14994 77.17678 47.11004 L 77.49601 46.990326 Q 77.57581 46.950424 77.77533 46.950424 Q 78.09456 46.950424 78.33398 47.189842 Q 78.573395 47.42926 78.573395 47.74849 L 78.573395 50.142685 Q 78.573395 50.701332 78.05466 50.90085 L 76.697945 51.379684 Q 76.21911 51.499397 76.21911 52.058044 Z M 74.74268 57.96373 L 74.74268 53.13543 Q 74.74268 52.85611 74.52322 52.636642 Q 74.30375 52.417175 74.02443 52.417175 Q 73.90472 52.417175 73.785 52.457077 L 71.90955 53.13543 Q 71.43071 53.334946 71.43071 53.81378 L 71.43071 58.642082 Q 71.43071 58.961304 71.630226 59.160828 Q 71.82974 59.360336 72.14897 59.360336 Q 72.268684 59.360336 72.38839 59.320435 L 74.26385 58.642082 Q 74.74268 58.442566 74.74268 57.96373 Z " fill="black"/>
    <path d="M 99.1 52.24547 Q 99.1 49.851273 101.73361 47.636642 Q 104.36723 45.422012 107.12056 45.422012 Q 108.23785 45.422012 109.25538 45.701332 Q 110.27292 45.98065 111.19069 46.97824 Q 112.10847 47.975815 112.10847 49.532043 Q 112.10847 51.726723 109.434944 54.041115 Q 106.76143 56.355507 104.087906 56.355507 Q 102.97062 56.355507 101.95309 56.07618 Q 100.93555 55.79686 100.01778 54.79927 Q 99.1 53.801697 99.1 52.24547 Z " fill="black"/>
    <rect x="110.671425" y="15.874245" width="1.4285715" height="35" fill="black"/>
    <path d="M 118.1 47.24547 Q 118.1 44.851273 120.73361 42.636642 Q 123.36723 40.422012 126.12056 40.422012 Q 127.23785 40.422012 128.25539 40.701332 Q 129.27292 40.98065 130.19069 41.97824 Q 131.10846 42.975815 131.10846 44.532043 Q 131.10846 46.726723 128.43495 49.041115 Q 125.76143 51.355507 123.087906 51.355507 Q 121.97062 51.355507 120.95309 51.07618 Q 119.93555 50.79686 119.01778 49.79927 Q 118.1 48.801697 118.1 47.24547 Z " fill="black"/>
    <rect x="118.1" y="45.874245" width="1.4285715" height="35" fill="black"/>
    <path d="M 137.1 27.245468 Q 137.1 24.851273 139.73361 22.636642 Q 142.36723 20.422012 145.12056 20.422012 Q 146.23785 20.422012 147.25539 20.701332 Q 148.27292 20.980652 149.19069 21.978241 Q 150.10846 22.975815 150.10846 24.532043 Q 150.10846 26.726723 147.43495 29.041115 Q 144.76143 31.355507 142.0879 31.355507 Q 140.97061 31.355507 139.95308 31.07618 Q 138.93555 30.79686 138.01778 29.79927 Q 137.1 28.801697 137.1 27.245468 Z " fill="black"/>
    <rect x="137.1" y="25.874245" width="1.4285715" height="50" fill="black"/>
    <path d="M 156.1 27.245468 Q 156.1 24.851273 158.73361 22.636642 Q 161.36723 20.422012 164.12056 20.422012 Q 165.23785 20.422012 166.25539 20.701332 Q 167.27292 20.980652 168.19069 21.978241 Q 169.10846 22.975815 169.10846 24.532043 Q 169.10846 26.726723 166.43495 29.041115 Q 163.76143 31.355507 161.0879 31.355507 Q 159.97061 31.355507 158.95308 31.07618 Q 157.93555 30.79686 157.01778 29.79927 Q 156.1 28.801697 156.1 27.245468 Z " fill="black"/>
    <rect x="156.1" y="25.874245" width="1.4285715" height="35" fill="black"/>
    <path d="M 175.1 22.245468 Q 175.1 19.851273 177.73361 17.636642 Q 180.36723 15.422012 183.12056 15.422012 Q 184.23785 15.422012 185.25539 15.701332 Q 186.27292 15.980652 187.19069 16.978241 Q 188.10846 17.975815 188.10846 19.532043 Q 188.10846 21.726723 185.43495 24.041115 Q 182.76143 26.355507 180.0879 26.355507 Q 178.97061 26.355507 177.95308 26.07618 Q 176.93555 25.79686 176.01778 24.79927 Q 175.1 23.801697 175.1 22.245468 Z " fill="black"/>
    <rect x="175.1" y="20.874245" width="1.4285715" height="35" fill="black"/>
    <line x1="0" y1="35.874245" x2="0.1" y2="95.874245" stroke="rgba(0,0,0,0.2)" stroke-width="0.2"/>
    <line x1="38" y1="35.874245" x2="38.1" y2="95.874245" stroke="rgba(0,0,0,0.2)" stroke-width="0.2"/>
    <line x1="61" y1="35.874245" x2="61.1" y2="95.874245" stroke="rgba(0,0,0,0.2)" stroke-width="0.2"/>
    <line x1="80" y1="35.874245" x2="80.1" y2="95.874245" stroke="rgba(0,0,0,0.2)" stroke-width="0.2"/>
    <line x1="99" y1="35.874245" x2="99.1" y2="95.874245" stroke="rgba(0,0,0,0.2)" stroke-width="0.2"/>
    <line x1="118" y1="35.874245" x2="118.1" y2="95.874245" stroke="rgba(0,0,0,0.2)" stroke-width="0.2"/>
    <line x1="137" y1="35.874245" x2="137.1" y2="95.874245" stroke="rgba(0,0,0,0.2)" stroke-width="0.2"/>
    <line x1="156" y1="35.874245" x2="156.1" y2="95.874245" stroke="rgba(0,0,0,0.2)" stroke-width="0.2"/>
    <line x1="175" y1="35.874245" x2="175.1" y2="95.874245" stroke="rgba(0,0,0,0.2)" stroke-width="0.2"/>
    <line x1="194" y1="35.874245" x2="194.1" y2="95.874245" stroke="rgba(0,0,0,0.2)" stroke-width="0.2"/>
</svg>
