<svg xmlns="http://www.w3.org/2000/svg" xmlns:xlink="http://www.w3.org/1999/xlink" width="227.18071" height="31.193615" viewBox="0 0 227.18071 31.193615">
    <rect x="0" y="0" width="227.18071" height="31.193615" fill="white"/>
    <path d="M 20.07888 30.524559 L 16.816063 22.188238 L 6.3105054 22.188238 L 3.0835423 30.524559 L 0 30.524559 L 10.362137 4.2068825 L 12.925779 4.2068825 L 23.234133 30.524559 L 20.07888 30.524559 Z M 15.865901 19.44532 L 12.818214 11.324129 Q 12.226604 9.782358 11.599139 7.5414124 Q 11.204733 9.262459 10.469702 11.324129 L 7.38616 19.44532 L 15.865901 19.44532 Z " stroke="black" stroke-width="0.1" fill="tomato"/>
    <path d="M 27.675148 4.422016 L 35.079235 4.422016 Q 40.296158 4.422016 42.626743 5.9817142 Q 44.95733 7.5414124 44.95733 10.911797 Q 44.95733 13.24238 43.657578 14.757259 Q 42.35783 16.27214 39.8659 16.72033 L 39.8659 16.899605 Q 45.835777 17.921478 45.835777 23.174255 Q 45.835777 26.68806 43.460377 28.660091 Q 41.084972 30.632126 36.81821 30.632126 L 27.675148 30.632126 L 27.675148 4.422016 Z M 30.722836 15.644676 L 35.742558 15.644676 Q 38.96952 15.644676 40.385796 14.631767 Q 41.80208 13.61886 41.80208 11.216566 Q 41.80208 9.011475 40.22445 8.034422 Q 38.646824 7.057369 35.204727 7.057369 L 30.722836 7.057369 L 30.722836 15.644676 Z M 30.722836 18.226246 L 30.722836 28.032627 L 36.190746 28.032627 Q 39.363926 28.032627 40.968445 26.804588 Q 42.57296 25.57655 42.57296 22.959126 Q 42.57296 20.520975 40.932587 19.373611 Q 39.292213 18.226246 35.93976 18.226246 L 30.722836 18.226246 Z " stroke="black" stroke-width="0.1" fill="tomato"/>
    <path d="M 60.08928 6.394047 Q 55.768734 6.394047 53.267838 9.271423 Q 50.76694 12.148798 50.76694 17.15059 Q 50.76694 22.295803 53.1782 25.101467 Q 55.58946 27.907131 60.05342 27.907131 Q 62.79634 27.907131 66.31015 26.921116 L 66.31015 29.592327 Q 63.585155 30.614197 59.587307 30.614197 Q 53.7967 30.614197 50.650414 27.100391 Q 47.504124 23.58659 47.504124 17.114735 Q 47.504124 13.063105 49.019 10.015417 Q 50.533882 6.9677296 53.39333 5.3183937 Q 56.252777 3.669056 60.125134 3.669056 Q 64.248474 3.669056 67.332016 5.1749725 L 66.04123 7.7923985 Q 63.065254 6.394047 60.08928 6.394047 Z " stroke="black" stroke-width="0.1" fill="tomato"/>
    <path d="M 83.17712 29.870922 L 82.58551 27.074219 L 82.442085 27.074219 Q 80.97203 28.920757 79.51093 29.575115 Q 78.049835 30.229473 75.86267 30.229473 Q 72.940475 30.229473 71.28217 28.723553 Q 69.62387 27.21764 69.62387 24.438866 Q 69.62387 18.486912 79.14342 18.20007 L 82.47794 18.092506 L 82.47794 16.87343 Q 82.47794 14.560774 81.48296 13.458227 Q 80.48798 12.355682 78.30082 12.355682 Q 75.84474 12.355682 72.74327 13.861599 L 71.828964 11.584797 Q 73.2811 10.795984 75.01111 10.347794 Q 76.74112 9.899605 78.480095 9.899605 Q 81.9939 9.899605 83.68806 11.459303 Q 85.38221 13.019003 85.38221 16.461096 L 85.38221 29.870922 L 83.17712 29.870922 Z M 76.45428 27.773396 Q 79.233055 27.773396 80.81964 26.24955 Q 82.406235 24.725708 82.406235 21.982788 L 82.406235 20.207958 L 79.43025 20.333452 Q 75.8806 20.458946 74.311935 21.435997 Q 72.74327 22.41305 72.74327 24.47472 Q 72.74327 26.0882 73.72032 26.930798 Q 74.69738 27.773396 76.45428 27.773396 Z " stroke="black" stroke-width="0.1" fill="tomato"/>
    <path d="M 97.57009 9.975618 Q 101.442444 9.975618 103.58479 12.619936 Q 105.727135 15.264252 105.727135 20.104696 Q 105.727135 24.94514 103.566864 27.625313 Q 101.406586 30.305485 97.57009 30.305485 Q 95.65184 30.305485 94.06525 29.597347 Q 92.47866 28.88921 91.40301 27.419147 L 91.187874 27.419147 L 90.56041 29.946934 L 88.427025 29.946934 L 88.427025 2.051632 L 91.40301 2.051632 L 91.40301 8.828255 Q 91.40301 11.105055 91.25958 12.915741 L 91.40301 12.915741 Q 93.482605 9.975618 97.57009 9.975618 Z M 97.139824 12.46755 Q 94.09214 12.46755 92.747574 14.215488 Q 91.40301 15.9634285 91.40301 20.104696 Q 91.40301 24.245968 92.783424 26.029758 Q 94.16385 27.813553 97.21154 27.813553 Q 99.95445 27.813553 101.29903 25.814629 Q 102.64359 23.815704 102.64359 20.068842 Q 102.64359 16.232342 101.29903 14.349945 Q 99.95445 12.46755 97.139824 12.46755 Z " stroke="black" stroke-width="0.1" fill="tomato"/>
    <path d="M 116.14019 31.193615 Q 111.87343 31.193615 109.53388 28.567226 Q 107.19433 25.940838 107.19433 21.13625 Q 107.19433 16.206167 109.56973 13.517031 Q 111.94514 10.827896 116.337395 10.827896 Q 117.75367 10.827896 119.16995 11.132664 Q 120.58623 11.437433 121.39297 11.849768 L 120.47866 14.377554 Q 119.492645 13.983149 118.327354 13.723198 Q 117.16206 13.463249 116.265686 13.463249 Q 110.27787 13.463249 110.27787 21.100395 Q 110.27787 24.721764 111.73897 26.65794 Q 113.200066 28.59412 116.06848 28.59412 Q 118.52456 28.59412 121.106125 27.536392 L 121.106125 30.171745 Q 119.134094 31.193615 116.14019 31.193615 Z " stroke="black" stroke-width="0.1" fill="tomato"/>
    <path d="M 136.73431 29.921116 L 136.1427 27.124416 L 135.99928 27.124416 Q 134.52922 28.970959 133.06812 29.625313 Q 131.60703 30.279667 129.41986 30.279667 Q 126.497665 30.279667 124.83936 28.773754 Q 123.18106 27.267838 123.18106 24.489063 Q 123.18106 18.53711 132.7006 18.250269 L 136.03513 18.142702 L 136.03513 16.923628 Q 136.03513 14.610971 135.04016 13.508425 Q 134.04517 12.40588 131.858 12.40588 Q 129.40193 12.40588 126.30046 13.911797 L 125.386154 11.6349945 Q 126.83829 10.846182 128.5683 10.397991 Q 130.29831 9.949802 132.0373 9.949802 Q 135.55109 9.949802 137.24524 11.5095005 Q 138.93939 13.0692005 138.93939 16.511293 L 138.93939 29.921116 L 136.73431 29.921116 Z M 130.01147 27.82359 Q 132.79024 27.82359 134.37683 26.299747 Q 135.96342 24.775906 135.96342 22.032986 L 135.96342 20.258158 L 132.98744 20.38365 Q 129.43779 20.509142 127.869125 21.486197 Q 126.30046 22.463247 126.30046 24.524921 Q 126.30046 26.138401 127.27751 26.980995 Q 128.25456 27.82359 130.01147 27.82359 Z M 135.90964 3.7827168 Q 135.90964 5.5396194 134.8071 6.60631 Q 133.70454 7.6730003 131.87593 7.6730003 Q 130.06525 7.6730003 128.9896 6.624237 Q 127.91394 5.5754757 127.91394 3.818573 Q 127.91394 2.0616703 128.99857 1.0308361 Q 130.08318 0 131.87593 0 Q 133.68661 0 134.79813 1.0666904 Q 135.90964 2.133381 135.90964 3.7827168 Z M 133.97346 3.818573 Q 133.97346 2.8146286 133.38185 2.2678375 Q 132.79024 1.7210464 131.87593 1.7210464 Q 130.96162 1.7210464 130.37003 2.2678375 Q 129.77841 2.8146286 129.77841 3.818573 Q 129.77841 4.8225174 130.31624 5.3693085 Q 130.85406 5.9160995 131.87593 5.9160995 Q 132.80817 5.9160995 133.39082 5.3693085 Q 133.97346 4.8225174 133.97346 3.818573 Z " stroke="black" stroke-width="0.1" fill="tomato"/>
    <path d="M 154.59735 30.112225 L 154.00574 27.315525 L 153.86232 27.315525 Q 152.39226 29.162064 150.93117 29.816418 Q 149.47006 30.470776 147.2829 30.470776 Q 144.3607 30.470776 142.70241 28.964859 Q 141.04411 27.458942 141.04411 24.680172 Q 141.04411 18.728216 150.56364 18.441376 L 153.89818 18.333809 L 153.89818 17.114735 Q 153.89818 14.802078 152.9032 13.699532 Q 151.90822 12.596987 149.72105 12.596987 Q 147.26498 12.596987 144.16351 14.102903 L 143.2492 11.826101 Q 144.70134 11.037289 146.43135 10.589098 Q 148.16136 10.140909 149.90033 10.140909 Q 153.41414 10.140909 155.10829 11.700607 Q 156.80244 13.260307 156.80244 16.7024 L 156.80244 30.112225 L 154.59735 30.112225 Z M 147.87451 28.014698 Q 150.65329 28.014698 152.23988 26.490856 Q 153.82646 24.96701 153.82646 22.224092 L 153.82646 20.449265 L 150.8505 20.574757 Q 147.30083 20.700249 145.73216 21.677303 Q 144.16351 22.654354 144.16351 24.716026 Q 144.16351 26.329506 145.14056 27.1721 Q 146.11761 28.014698 147.87451 28.014698 Z M 144.3607 5.1391163 Q 144.3607 4.2068825 144.83578 3.794548 Q 145.31087 3.3822136 145.9742 3.3822136 Q 146.65544 3.3822136 147.14845 3.794548 Q 147.64145 4.2068825 147.64145 5.1391163 Q 147.64145 6.0354958 147.14845 6.47472 Q 146.65544 6.913946 145.9742 6.913946 Q 145.31087 6.913946 144.83578 6.47472 Q 144.3607 6.0354958 144.3607 5.1391163 Z M 151.19112 5.1391163 Q 151.19112 4.2068825 151.6662 3.794548 Q 152.14128 3.3822136 152.8046 3.3822136 Q 153.46791 3.3822136 153.96092 3.794548 Q 154.45393 4.2068825 154.45393 5.1391163 Q 154.45393 6.0354958 153.96092 6.47472 Q 153.46791 6.913946 152.8046 6.913946 Q 152.14128 6.913946 151.6662 6.47472 Q 151.19112 6.0354958 151.19112 5.1391163 Z " stroke="black" stroke-width="0.1" fill="tomato"/>
    <path d="M 176.71317 20.269987 Q 176.71317 25.074577 174.29295 27.772678 Q 171.87273 30.470776 167.60596 30.470776 Q 164.97061 30.470776 162.92686 29.233776 Q 160.88312 27.996769 159.77162 25.684116 Q 158.66011 23.371456 158.66011 20.269987 Q 158.66011 15.465397 161.0624 12.785227 Q 163.46469 10.105055 167.73146 10.105055 Q 171.8548 10.105055 174.28398 12.847973 Q 176.71317 15.590891 176.71317 20.269987 Z M 161.74365 20.269987 Q 161.74365 24.034779 163.24956 26.00681 Q 164.75548 27.978844 167.67767 27.978844 Q 170.59987 27.978844 172.11475 26.015774 Q 173.62962 24.052708 173.62962 20.269987 Q 173.62962 16.523125 172.11475 14.577984 Q 170.59987 12.632841 167.64182 12.632841 Q 164.71962 12.632841 163.23163 14.551092 Q 161.74365 16.469341 161.74365 20.269987 Z M 162.6221 5.1391163 Q 162.6221 4.2068825 163.09718 3.794548 Q 163.57227 3.3822136 164.23558 3.3822136 Q 164.91682 3.3822136 165.40984 3.794548 Q 165.90285 4.2068825 165.90285 5.1391163 Q 165.90285 6.0354958 165.40984 6.47472 Q 164.91682 6.913946 164.23558 6.913946 Q 163.57227 6.913946 163.09718 6.47472 Q 162.6221 6.0354958 162.6221 5.1391163 Z M 169.4525 5.1391163 Q 169.4525 4.2068825 169.92758 3.794548 Q 170.40266 3.3822136 171.06598 3.3822136 Q 171.72931 3.3822136 172.22232 3.794548 Q 172.71532 4.2068825 172.71532 5.1391163 Q 172.71532 6.0354958 172.22232 6.47472 Q 171.72931 6.913946 171.06598 6.913946 Q 170.40266 6.913946 169.92758 6.47472 Q 169.4525 6.0354958 169.4525 5.1391163 Z " stroke="black" stroke-width="0.1" fill="tomato"/>
    <path d="M 190.01651 30.632126 L 187.11223 30.632126 L 187.11223 11.951595 Q 187.11223 9.621012 187.25566 7.5414124 Q 186.87918 7.9178925 186.41306 8.330227 Q 185.94695 8.742559 182.1463 11.826103 L 180.56866 9.78236 L 187.50664 4.422016 L 190.01651 4.422016 L 190.01651 30.632126 Z " stroke="black" stroke-width="0.1" fill="tomato"/>
    <path d="M 208.4532 30.255646 L 191.22481 30.255646 L 191.22481 27.692005 L 198.12692 20.754032 Q 201.28218 17.562923 202.28612 16.200428 Q 203.29007 14.837933 203.79204 13.547148 Q 204.294 12.256363 204.294 10.768375 Q 204.294 8.670849 203.02115 7.44281 Q 201.74829 6.2147713 199.48943 6.2147713 Q 197.85802 6.2147713 196.39691 6.752598 Q 194.93582 7.2904263 193.14307 8.706703 L 191.56543 6.680889 Q 195.1868 3.669056 199.45357 3.669056 Q 203.14665 3.669056 205.24417 5.5604153 Q 207.3417 7.4517746 207.3417 10.642881 Q 207.3417 13.134815 205.94334 15.572964 Q 204.545 18.011114 200.7085 21.74005 L 194.97168 27.35138 L 194.97168 27.4948 L 208.4532 27.4948 L 208.4532 30.255646 Z " stroke="black" stroke-width="0.1" fill="tomato"/>
    <path d="M 226.37398 10.21262 Q 226.37398 12.722481 224.96666 14.318035 Q 223.55934 15.913588 220.97777 16.451416 L 220.97777 16.594837 Q 224.13303 16.989243 225.65688 18.602724 Q 227.18071 20.216206 227.18071 22.83363 Q 227.18071 26.580494 224.58122 28.597347 Q 221.98172 30.614197 217.19505 30.614197 Q 215.11546 30.614197 213.38545 30.300465 Q 211.65544 29.986732 210.02403 29.197918 L 210.02403 26.36536 Q 211.72714 27.207958 213.65436 27.647182 Q 215.58157 28.08641 217.30263 28.08641 Q 224.09717 28.08641 224.09717 22.76192 Q 224.09717 17.993187 216.60345 17.993187 L 214.02188 17.993187 L 214.02188 15.429543 L 216.6393 15.429543 Q 219.70491 15.429543 221.49768 14.076012 Q 223.29044 12.722481 223.29044 10.320185 Q 223.29044 8.401936 221.97275 7.3083534 Q 220.65508 6.2147713 218.39621 6.2147713 Q 216.67516 6.2147713 215.15132 6.680889 Q 213.62747 7.147005 211.67337 8.401936 L 210.16745 6.394047 Q 211.78093 5.121189 213.88742 4.3951225 Q 215.99391 3.669056 218.3245 3.669056 Q 222.14307 3.669056 224.25851 5.416994 Q 226.37398 7.1649323 226.37398 10.21262 Z " stroke="black" stroke-width="0.1" fill="tomato"/>
</svg>
